G04 #@! TF.GenerationSoftware,KiCad,Pcbnew,(5.1.5-0-10_14)*
G04 #@! TF.CreationDate,2021-12-08T13:46:53-07:00*
G04 #@! TF.ProjectId,genesisctl,67656e65-7369-4736-9374-6c2e6b696361,rev?*
G04 #@! TF.SameCoordinates,Original*
G04 #@! TF.FileFunction,Legend,Top*
G04 #@! TF.FilePolarity,Positive*
%FSLAX46Y46*%
G04 Gerber Fmt 4.6, Leading zero omitted, Abs format (unit mm)*
G04 Created by KiCad (PCBNEW (5.1.5-0-10_14)) date 2021-12-08 13:46:53*
%MOMM*%
%LPD*%
G04 APERTURE LIST*
%ADD10C,0.150000*%
%ADD11C,0.200000*%
%ADD12C,0.120000*%
G04 APERTURE END LIST*
D10*
X202502380Y-74875000D02*
X202407142Y-74827380D01*
X202264285Y-74827380D01*
X202121428Y-74875000D01*
X202026190Y-74970238D01*
X201978571Y-75065476D01*
X201930952Y-75255952D01*
X201930952Y-75398809D01*
X201978571Y-75589285D01*
X202026190Y-75684523D01*
X202121428Y-75779761D01*
X202264285Y-75827380D01*
X202359523Y-75827380D01*
X202502380Y-75779761D01*
X202550000Y-75732142D01*
X202550000Y-75398809D01*
X202359523Y-75398809D01*
X203359523Y-75779761D02*
X203264285Y-75827380D01*
X203073809Y-75827380D01*
X202978571Y-75779761D01*
X202930952Y-75684523D01*
X202930952Y-75303571D01*
X202978571Y-75208333D01*
X203073809Y-75160714D01*
X203264285Y-75160714D01*
X203359523Y-75208333D01*
X203407142Y-75303571D01*
X203407142Y-75398809D01*
X202930952Y-75494047D01*
X203835714Y-75160714D02*
X203835714Y-75827380D01*
X203835714Y-75255952D02*
X203883333Y-75208333D01*
X203978571Y-75160714D01*
X204121428Y-75160714D01*
X204216666Y-75208333D01*
X204264285Y-75303571D01*
X204264285Y-75827380D01*
X205121428Y-75779761D02*
X205026190Y-75827380D01*
X204835714Y-75827380D01*
X204740476Y-75779761D01*
X204692857Y-75684523D01*
X204692857Y-75303571D01*
X204740476Y-75208333D01*
X204835714Y-75160714D01*
X205026190Y-75160714D01*
X205121428Y-75208333D01*
X205169047Y-75303571D01*
X205169047Y-75398809D01*
X204692857Y-75494047D01*
X205550000Y-75779761D02*
X205645238Y-75827380D01*
X205835714Y-75827380D01*
X205930952Y-75779761D01*
X205978571Y-75684523D01*
X205978571Y-75636904D01*
X205930952Y-75541666D01*
X205835714Y-75494047D01*
X205692857Y-75494047D01*
X205597619Y-75446428D01*
X205550000Y-75351190D01*
X205550000Y-75303571D01*
X205597619Y-75208333D01*
X205692857Y-75160714D01*
X205835714Y-75160714D01*
X205930952Y-75208333D01*
X206407142Y-75827380D02*
X206407142Y-75160714D01*
X206407142Y-74827380D02*
X206359523Y-74875000D01*
X206407142Y-74922619D01*
X206454761Y-74875000D01*
X206407142Y-74827380D01*
X206407142Y-74922619D01*
X206835714Y-75779761D02*
X206930952Y-75827380D01*
X207121428Y-75827380D01*
X207216666Y-75779761D01*
X207264285Y-75684523D01*
X207264285Y-75636904D01*
X207216666Y-75541666D01*
X207121428Y-75494047D01*
X206978571Y-75494047D01*
X206883333Y-75446428D01*
X206835714Y-75351190D01*
X206835714Y-75303571D01*
X206883333Y-75208333D01*
X206978571Y-75160714D01*
X207121428Y-75160714D01*
X207216666Y-75208333D01*
X208740476Y-74827380D02*
X208740476Y-75541666D01*
X208692857Y-75684523D01*
X208597619Y-75779761D01*
X208454761Y-75827380D01*
X208359523Y-75827380D01*
X209645238Y-75827380D02*
X209645238Y-75303571D01*
X209597619Y-75208333D01*
X209502380Y-75160714D01*
X209311904Y-75160714D01*
X209216666Y-75208333D01*
X209645238Y-75779761D02*
X209550000Y-75827380D01*
X209311904Y-75827380D01*
X209216666Y-75779761D01*
X209169047Y-75684523D01*
X209169047Y-75589285D01*
X209216666Y-75494047D01*
X209311904Y-75446428D01*
X209550000Y-75446428D01*
X209645238Y-75398809D01*
X210121428Y-75827380D02*
X210121428Y-75160714D01*
X210121428Y-75255952D02*
X210169047Y-75208333D01*
X210264285Y-75160714D01*
X210407142Y-75160714D01*
X210502380Y-75208333D01*
X210550000Y-75303571D01*
X210550000Y-75827380D01*
X210550000Y-75303571D02*
X210597619Y-75208333D01*
X210692857Y-75160714D01*
X210835714Y-75160714D01*
X210930952Y-75208333D01*
X210978571Y-75303571D01*
X210978571Y-75827380D01*
X211454761Y-75827380D02*
X211454761Y-75160714D01*
X211454761Y-75255952D02*
X211502380Y-75208333D01*
X211597619Y-75160714D01*
X211740476Y-75160714D01*
X211835714Y-75208333D01*
X211883333Y-75303571D01*
X211883333Y-75827380D01*
X211883333Y-75303571D02*
X211930952Y-75208333D01*
X212026190Y-75160714D01*
X212169047Y-75160714D01*
X212264285Y-75208333D01*
X212311904Y-75303571D01*
X212311904Y-75827380D01*
X213216666Y-75827380D02*
X213216666Y-75303571D01*
X213169047Y-75208333D01*
X213073809Y-75160714D01*
X212883333Y-75160714D01*
X212788095Y-75208333D01*
X213216666Y-75779761D02*
X213121428Y-75827380D01*
X212883333Y-75827380D01*
X212788095Y-75779761D01*
X212740476Y-75684523D01*
X212740476Y-75589285D01*
X212788095Y-75494047D01*
X212883333Y-75446428D01*
X213121428Y-75446428D01*
X213216666Y-75398809D01*
X214359523Y-75160714D02*
X214597619Y-75827380D01*
X214835714Y-75160714D01*
X215740476Y-75827380D02*
X215169047Y-75827380D01*
X215454761Y-75827380D02*
X215454761Y-74827380D01*
X215359523Y-74970238D01*
X215264285Y-75065476D01*
X215169047Y-75113095D01*
X216169047Y-75732142D02*
X216216666Y-75779761D01*
X216169047Y-75827380D01*
X216121428Y-75779761D01*
X216169047Y-75732142D01*
X216169047Y-75827380D01*
X216835714Y-74827380D02*
X216930952Y-74827380D01*
X217026190Y-74875000D01*
X217073809Y-74922619D01*
X217121428Y-75017857D01*
X217169047Y-75208333D01*
X217169047Y-75446428D01*
X217121428Y-75636904D01*
X217073809Y-75732142D01*
X217026190Y-75779761D01*
X216930952Y-75827380D01*
X216835714Y-75827380D01*
X216740476Y-75779761D01*
X216692857Y-75732142D01*
X216645238Y-75636904D01*
X216597619Y-75446428D01*
X216597619Y-75208333D01*
X216645238Y-75017857D01*
X216692857Y-74922619D01*
X216740476Y-74875000D01*
X216835714Y-74827380D01*
X203002380Y-76572619D02*
X203050000Y-76525000D01*
X203145238Y-76477380D01*
X203383333Y-76477380D01*
X203478571Y-76525000D01*
X203526190Y-76572619D01*
X203573809Y-76667857D01*
X203573809Y-76763095D01*
X203526190Y-76905952D01*
X202954761Y-77477380D01*
X203573809Y-77477380D01*
X204192857Y-76477380D02*
X204288095Y-76477380D01*
X204383333Y-76525000D01*
X204430952Y-76572619D01*
X204478571Y-76667857D01*
X204526190Y-76858333D01*
X204526190Y-77096428D01*
X204478571Y-77286904D01*
X204430952Y-77382142D01*
X204383333Y-77429761D01*
X204288095Y-77477380D01*
X204192857Y-77477380D01*
X204097619Y-77429761D01*
X204050000Y-77382142D01*
X204002380Y-77286904D01*
X203954761Y-77096428D01*
X203954761Y-76858333D01*
X204002380Y-76667857D01*
X204050000Y-76572619D01*
X204097619Y-76525000D01*
X204192857Y-76477380D01*
X204907142Y-76572619D02*
X204954761Y-76525000D01*
X205050000Y-76477380D01*
X205288095Y-76477380D01*
X205383333Y-76525000D01*
X205430952Y-76572619D01*
X205478571Y-76667857D01*
X205478571Y-76763095D01*
X205430952Y-76905952D01*
X204859523Y-77477380D01*
X205478571Y-77477380D01*
X206430952Y-77477380D02*
X205859523Y-77477380D01*
X206145238Y-77477380D02*
X206145238Y-76477380D01*
X206050000Y-76620238D01*
X205954761Y-76715476D01*
X205859523Y-76763095D01*
X207573809Y-77429761D02*
X207716666Y-77477380D01*
X207954761Y-77477380D01*
X208050000Y-77429761D01*
X208097619Y-77382142D01*
X208145238Y-77286904D01*
X208145238Y-77191666D01*
X208097619Y-77096428D01*
X208050000Y-77048809D01*
X207954761Y-77001190D01*
X207764285Y-76953571D01*
X207669047Y-76905952D01*
X207621428Y-76858333D01*
X207573809Y-76763095D01*
X207573809Y-76667857D01*
X207621428Y-76572619D01*
X207669047Y-76525000D01*
X207764285Y-76477380D01*
X208002380Y-76477380D01*
X208145238Y-76525000D01*
X208954761Y-77429761D02*
X208859523Y-77477380D01*
X208669047Y-77477380D01*
X208573809Y-77429761D01*
X208526190Y-77334523D01*
X208526190Y-76953571D01*
X208573809Y-76858333D01*
X208669047Y-76810714D01*
X208859523Y-76810714D01*
X208954761Y-76858333D01*
X209002380Y-76953571D01*
X209002380Y-77048809D01*
X208526190Y-77144047D01*
X209859523Y-77477380D02*
X209859523Y-76953571D01*
X209811904Y-76858333D01*
X209716666Y-76810714D01*
X209526190Y-76810714D01*
X209430952Y-76858333D01*
X209859523Y-77429761D02*
X209764285Y-77477380D01*
X209526190Y-77477380D01*
X209430952Y-77429761D01*
X209383333Y-77334523D01*
X209383333Y-77239285D01*
X209430952Y-77144047D01*
X209526190Y-77096428D01*
X209764285Y-77096428D01*
X209859523Y-77048809D01*
X210335714Y-76810714D02*
X210335714Y-77477380D01*
X210335714Y-76905952D02*
X210383333Y-76858333D01*
X210478571Y-76810714D01*
X210621428Y-76810714D01*
X210716666Y-76858333D01*
X210764285Y-76953571D01*
X210764285Y-77477380D01*
X212002380Y-77477380D02*
X212002380Y-76477380D01*
X212573809Y-77477380D02*
X212145238Y-76905952D01*
X212573809Y-76477380D02*
X212002380Y-77048809D01*
X213430952Y-77477380D02*
X213430952Y-76953571D01*
X213383333Y-76858333D01*
X213288095Y-76810714D01*
X213097619Y-76810714D01*
X213002380Y-76858333D01*
X213430952Y-77429761D02*
X213335714Y-77477380D01*
X213097619Y-77477380D01*
X213002380Y-77429761D01*
X212954761Y-77334523D01*
X212954761Y-77239285D01*
X213002380Y-77144047D01*
X213097619Y-77096428D01*
X213335714Y-77096428D01*
X213430952Y-77048809D01*
X213859523Y-77429761D02*
X213954761Y-77477380D01*
X214145238Y-77477380D01*
X214240476Y-77429761D01*
X214288095Y-77334523D01*
X214288095Y-77286904D01*
X214240476Y-77191666D01*
X214145238Y-77144047D01*
X214002380Y-77144047D01*
X213907142Y-77096428D01*
X213859523Y-77001190D01*
X213859523Y-76953571D01*
X213907142Y-76858333D01*
X214002380Y-76810714D01*
X214145238Y-76810714D01*
X214240476Y-76858333D01*
X215145238Y-76810714D02*
X215145238Y-77477380D01*
X214716666Y-76810714D02*
X214716666Y-77334523D01*
X214764285Y-77429761D01*
X214859523Y-77477380D01*
X215002380Y-77477380D01*
X215097619Y-77429761D01*
X215145238Y-77382142D01*
X215621428Y-76810714D02*
X215621428Y-77477380D01*
X215621428Y-76905952D02*
X215669047Y-76858333D01*
X215764285Y-76810714D01*
X215907142Y-76810714D01*
X216002380Y-76858333D01*
X216050000Y-76953571D01*
X216050000Y-77477380D01*
D11*
X206660952Y-94384761D02*
X206803809Y-94432380D01*
X207041904Y-94432380D01*
X207137142Y-94384761D01*
X207184761Y-94337142D01*
X207232380Y-94241904D01*
X207232380Y-94146666D01*
X207184761Y-94051428D01*
X207137142Y-94003809D01*
X207041904Y-93956190D01*
X206851428Y-93908571D01*
X206756190Y-93860952D01*
X206708571Y-93813333D01*
X206660952Y-93718095D01*
X206660952Y-93622857D01*
X206708571Y-93527619D01*
X206756190Y-93480000D01*
X206851428Y-93432380D01*
X207089523Y-93432380D01*
X207232380Y-93480000D01*
X207518095Y-93765714D02*
X207899047Y-93765714D01*
X207660952Y-93432380D02*
X207660952Y-94289523D01*
X207708571Y-94384761D01*
X207803809Y-94432380D01*
X207899047Y-94432380D01*
X208660952Y-94432380D02*
X208660952Y-93908571D01*
X208613333Y-93813333D01*
X208518095Y-93765714D01*
X208327619Y-93765714D01*
X208232380Y-93813333D01*
X208660952Y-94384761D02*
X208565714Y-94432380D01*
X208327619Y-94432380D01*
X208232380Y-94384761D01*
X208184761Y-94289523D01*
X208184761Y-94194285D01*
X208232380Y-94099047D01*
X208327619Y-94051428D01*
X208565714Y-94051428D01*
X208660952Y-94003809D01*
X209137142Y-94432380D02*
X209137142Y-93765714D01*
X209137142Y-93956190D02*
X209184761Y-93860952D01*
X209232380Y-93813333D01*
X209327619Y-93765714D01*
X209422857Y-93765714D01*
X209613333Y-93765714D02*
X209994285Y-93765714D01*
X209756190Y-93432380D02*
X209756190Y-94289523D01*
X209803809Y-94384761D01*
X209899047Y-94432380D01*
X209994285Y-94432380D01*
X203509523Y-94337142D02*
X203461904Y-94384761D01*
X203319047Y-94432380D01*
X203223809Y-94432380D01*
X203080952Y-94384761D01*
X202985714Y-94289523D01*
X202938095Y-94194285D01*
X202890476Y-94003809D01*
X202890476Y-93860952D01*
X202938095Y-93670476D01*
X202985714Y-93575238D01*
X203080952Y-93480000D01*
X203223809Y-93432380D01*
X203319047Y-93432380D01*
X203461904Y-93480000D01*
X203509523Y-93527619D01*
X198191428Y-93908571D02*
X198334285Y-93956190D01*
X198381904Y-94003809D01*
X198429523Y-94099047D01*
X198429523Y-94241904D01*
X198381904Y-94337142D01*
X198334285Y-94384761D01*
X198239047Y-94432380D01*
X197858095Y-94432380D01*
X197858095Y-93432380D01*
X198191428Y-93432380D01*
X198286666Y-93480000D01*
X198334285Y-93527619D01*
X198381904Y-93622857D01*
X198381904Y-93718095D01*
X198334285Y-93813333D01*
X198286666Y-93860952D01*
X198191428Y-93908571D01*
X197858095Y-93908571D01*
X192801904Y-94146666D02*
X193278095Y-94146666D01*
X192706666Y-94432380D02*
X193040000Y-93432380D01*
X193373333Y-94432380D01*
X230020952Y-94432380D02*
X229687619Y-93956190D01*
X229449523Y-94432380D02*
X229449523Y-93432380D01*
X229830476Y-93432380D01*
X229925714Y-93480000D01*
X229973333Y-93527619D01*
X230020952Y-93622857D01*
X230020952Y-93765714D01*
X229973333Y-93860952D01*
X229925714Y-93908571D01*
X229830476Y-93956190D01*
X229449523Y-93956190D01*
X230449523Y-94432380D02*
X230449523Y-93765714D01*
X230449523Y-93432380D02*
X230401904Y-93480000D01*
X230449523Y-93527619D01*
X230497142Y-93480000D01*
X230449523Y-93432380D01*
X230449523Y-93527619D01*
X231354285Y-93765714D02*
X231354285Y-94575238D01*
X231306666Y-94670476D01*
X231259047Y-94718095D01*
X231163809Y-94765714D01*
X231020952Y-94765714D01*
X230925714Y-94718095D01*
X231354285Y-94384761D02*
X231259047Y-94432380D01*
X231068571Y-94432380D01*
X230973333Y-94384761D01*
X230925714Y-94337142D01*
X230878095Y-94241904D01*
X230878095Y-93956190D01*
X230925714Y-93860952D01*
X230973333Y-93813333D01*
X231068571Y-93765714D01*
X231259047Y-93765714D01*
X231354285Y-93813333D01*
X231830476Y-94432380D02*
X231830476Y-93432380D01*
X232259047Y-94432380D02*
X232259047Y-93908571D01*
X232211428Y-93813333D01*
X232116190Y-93765714D01*
X231973333Y-93765714D01*
X231878095Y-93813333D01*
X231830476Y-93860952D01*
X232592380Y-93765714D02*
X232973333Y-93765714D01*
X232735238Y-93432380D02*
X232735238Y-94289523D01*
X232782857Y-94384761D01*
X232878095Y-94432380D01*
X232973333Y-94432380D01*
X225369523Y-94432380D02*
X224893333Y-94432380D01*
X224893333Y-93432380D01*
X226083809Y-94384761D02*
X225988571Y-94432380D01*
X225798095Y-94432380D01*
X225702857Y-94384761D01*
X225655238Y-94289523D01*
X225655238Y-93908571D01*
X225702857Y-93813333D01*
X225798095Y-93765714D01*
X225988571Y-93765714D01*
X226083809Y-93813333D01*
X226131428Y-93908571D01*
X226131428Y-94003809D01*
X225655238Y-94099047D01*
X226417142Y-93765714D02*
X226798095Y-93765714D01*
X226560000Y-94432380D02*
X226560000Y-93575238D01*
X226607619Y-93480000D01*
X226702857Y-93432380D01*
X226798095Y-93432380D01*
X226988571Y-93765714D02*
X227369523Y-93765714D01*
X227131428Y-93432380D02*
X227131428Y-94289523D01*
X227179047Y-94384761D01*
X227274285Y-94432380D01*
X227369523Y-94432380D01*
X219289523Y-94432380D02*
X219289523Y-93432380D01*
X219527619Y-93432380D01*
X219670476Y-93480000D01*
X219765714Y-93575238D01*
X219813333Y-93670476D01*
X219860952Y-93860952D01*
X219860952Y-94003809D01*
X219813333Y-94194285D01*
X219765714Y-94289523D01*
X219670476Y-94384761D01*
X219527619Y-94432380D01*
X219289523Y-94432380D01*
X220432380Y-94432380D02*
X220337142Y-94384761D01*
X220289523Y-94337142D01*
X220241904Y-94241904D01*
X220241904Y-93956190D01*
X220289523Y-93860952D01*
X220337142Y-93813333D01*
X220432380Y-93765714D01*
X220575238Y-93765714D01*
X220670476Y-93813333D01*
X220718095Y-93860952D01*
X220765714Y-93956190D01*
X220765714Y-94241904D01*
X220718095Y-94337142D01*
X220670476Y-94384761D01*
X220575238Y-94432380D01*
X220432380Y-94432380D01*
X221099047Y-93765714D02*
X221289523Y-94432380D01*
X221480000Y-93956190D01*
X221670476Y-94432380D01*
X221860952Y-93765714D01*
X222241904Y-93765714D02*
X222241904Y-94432380D01*
X222241904Y-93860952D02*
X222289523Y-93813333D01*
X222384761Y-93765714D01*
X222527619Y-93765714D01*
X222622857Y-93813333D01*
X222670476Y-93908571D01*
X222670476Y-94432380D01*
X215161904Y-93432380D02*
X215161904Y-94241904D01*
X215209523Y-94337142D01*
X215257142Y-94384761D01*
X215352380Y-94432380D01*
X215542857Y-94432380D01*
X215638095Y-94384761D01*
X215685714Y-94337142D01*
X215733333Y-94241904D01*
X215733333Y-93432380D01*
X216209523Y-93765714D02*
X216209523Y-94765714D01*
X216209523Y-93813333D02*
X216304761Y-93765714D01*
X216495238Y-93765714D01*
X216590476Y-93813333D01*
X216638095Y-93860952D01*
X216685714Y-93956190D01*
X216685714Y-94241904D01*
X216638095Y-94337142D01*
X216590476Y-94384761D01*
X216495238Y-94432380D01*
X216304761Y-94432380D01*
X216209523Y-94384761D01*
X201771428Y-69032380D02*
X201771428Y-68032380D01*
X202152380Y-68032380D01*
X202247619Y-68080000D01*
X202295238Y-68127619D01*
X202342857Y-68222857D01*
X202342857Y-68365714D01*
X202295238Y-68460952D01*
X202247619Y-68508571D01*
X202152380Y-68556190D01*
X201771428Y-68556190D01*
X202771428Y-69032380D02*
X202771428Y-68365714D01*
X202771428Y-68032380D02*
X202723809Y-68080000D01*
X202771428Y-68127619D01*
X202819047Y-68080000D01*
X202771428Y-68032380D01*
X202771428Y-68127619D01*
X203247619Y-68365714D02*
X203247619Y-69032380D01*
X203247619Y-68460952D02*
X203295238Y-68413333D01*
X203390476Y-68365714D01*
X203533333Y-68365714D01*
X203628571Y-68413333D01*
X203676190Y-68508571D01*
X203676190Y-69032380D01*
X204676190Y-69032380D02*
X204104761Y-69032380D01*
X204390476Y-69032380D02*
X204390476Y-68032380D01*
X204295238Y-68175238D01*
X204200000Y-68270476D01*
X204104761Y-68318095D01*
X227838095Y-49030000D02*
X227742857Y-48982380D01*
X227600000Y-48982380D01*
X227457142Y-49030000D01*
X227361904Y-49125238D01*
X227314285Y-49220476D01*
X227266666Y-49410952D01*
X227266666Y-49553809D01*
X227314285Y-49744285D01*
X227361904Y-49839523D01*
X227457142Y-49934761D01*
X227600000Y-49982380D01*
X227695238Y-49982380D01*
X227838095Y-49934761D01*
X227885714Y-49887142D01*
X227885714Y-49553809D01*
X227695238Y-49553809D01*
X228314285Y-49982380D02*
X228314285Y-48982380D01*
X228885714Y-49982380D01*
X228885714Y-48982380D01*
X229361904Y-49982380D02*
X229361904Y-48982380D01*
X229600000Y-48982380D01*
X229742857Y-49030000D01*
X229838095Y-49125238D01*
X229885714Y-49220476D01*
X229933333Y-49410952D01*
X229933333Y-49553809D01*
X229885714Y-49744285D01*
X229838095Y-49839523D01*
X229742857Y-49934761D01*
X229600000Y-49982380D01*
X229361904Y-49982380D01*
X227314285Y-36901428D02*
X228076190Y-36901428D01*
X227695238Y-37282380D02*
X227695238Y-36520476D01*
X229028571Y-36282380D02*
X228552380Y-36282380D01*
X228504761Y-36758571D01*
X228552380Y-36710952D01*
X228647619Y-36663333D01*
X228885714Y-36663333D01*
X228980952Y-36710952D01*
X229028571Y-36758571D01*
X229076190Y-36853809D01*
X229076190Y-37091904D01*
X229028571Y-37187142D01*
X228980952Y-37234761D01*
X228885714Y-37282380D01*
X228647619Y-37282380D01*
X228552380Y-37234761D01*
X228504761Y-37187142D01*
X229361904Y-36282380D02*
X229695238Y-37282380D01*
X230028571Y-36282380D01*
D12*
X193310000Y-52130000D02*
G75*
G02X195310000Y-52130000I1000000J0D01*
G01*
X195310000Y-52130000D02*
X196960000Y-52130000D01*
X196960000Y-52130000D02*
X196960000Y-34230000D01*
X196960000Y-34230000D02*
X191660000Y-34230000D01*
X191660000Y-34230000D02*
X191660000Y-52130000D01*
X191660000Y-52130000D02*
X193310000Y-52130000D01*
X209280000Y-34230000D02*
G75*
G02X207280000Y-34230000I-1000000J0D01*
G01*
X207280000Y-34230000D02*
X205630000Y-34230000D01*
X205630000Y-34230000D02*
X205630000Y-44510000D01*
X205630000Y-44510000D02*
X210930000Y-44510000D01*
X210930000Y-44510000D02*
X210930000Y-34230000D01*
X210930000Y-34230000D02*
X209280000Y-34230000D01*
X202390260Y-58210000D02*
G75*
G03X206629741Y-58210000I2119740J1060000D01*
G01*
X202390260Y-56090000D02*
G75*
G02X206629741Y-56090000I2119740J-1060000D01*
G01*
X207047288Y-58485000D02*
X206597288Y-58485000D01*
X206822288Y-58710000D02*
X206822288Y-58260000D01*
X218730000Y-54797712D02*
X218280000Y-54797712D01*
X218505000Y-54572712D02*
X218505000Y-55022712D01*
X216110000Y-59229740D02*
G75*
G02X216110000Y-54990259I1060000J2119740D01*
G01*
X218230000Y-59229740D02*
G75*
G03X218230000Y-54990259I-1060000J2119740D01*
G01*
X218500000Y-68640000D02*
X218500000Y-63440000D01*
X208280000Y-68640000D02*
X218500000Y-68640000D01*
X205680000Y-63440000D02*
X218500000Y-63440000D01*
X208280000Y-68640000D02*
X208280000Y-66040000D01*
X208280000Y-66040000D02*
X205680000Y-66040000D01*
X205680000Y-66040000D02*
X205680000Y-63440000D01*
X207010000Y-68640000D02*
X205680000Y-68640000D01*
X205680000Y-68640000D02*
X205680000Y-67310000D01*
X227065244Y-41323318D02*
G75*
G02X226920000Y-40640000I1534756J683318D01*
G01*
X229283042Y-42175426D02*
G75*
G02X227916000Y-42175000I-683042J1535426D01*
G01*
X230135426Y-39956958D02*
G75*
G02X230135000Y-41324000I-1535426J-683042D01*
G01*
X227916958Y-39104574D02*
G75*
G02X229284000Y-39105000I683042J-1535426D01*
G01*
X226919747Y-40668805D02*
G75*
G02X227065000Y-39956000I1680253J28805D01*
G01*
X230280000Y-45640000D02*
G75*
G03X230280000Y-45640000I-1680000J0D01*
G01*
X225100000Y-38080000D02*
X225100000Y-48200000D01*
X226600000Y-38080000D02*
X226600000Y-48200000D01*
X230901000Y-38080000D02*
X230901000Y-48200000D01*
X232960000Y-38080000D02*
X232960000Y-48200000D01*
X224540000Y-38080000D02*
X224540000Y-48200000D01*
X232960000Y-38080000D02*
X224540000Y-38080000D01*
X232960000Y-48200000D02*
X224540000Y-48200000D01*
X232900000Y-39640000D02*
X232900000Y-41640000D01*
X231900000Y-39640000D02*
X231900000Y-41640000D01*
X232900000Y-39640000D02*
X231900000Y-39640000D01*
X232900000Y-41640000D02*
X231900000Y-41640000D01*
X229669000Y-46915000D02*
X229623000Y-46868000D01*
X227361000Y-44606000D02*
X227326000Y-44571000D01*
X229875000Y-46710000D02*
X229839000Y-46675000D01*
X227577000Y-44413000D02*
X227531000Y-44366000D01*
X232900000Y-44640000D02*
X232900000Y-46640000D01*
X231900000Y-44640000D02*
X231900000Y-46640000D01*
X232900000Y-44640000D02*
X231900000Y-44640000D01*
X232900000Y-46640000D02*
X231900000Y-46640000D01*
X225040000Y-37840000D02*
X224300000Y-37840000D01*
X224300000Y-37840000D02*
X224300000Y-38340000D01*
X216583318Y-90434756D02*
G75*
G02X215900000Y-90580000I-683318J1534756D01*
G01*
X217435426Y-88216958D02*
G75*
G02X217435000Y-89584000I-1535426J-683042D01*
G01*
X215216958Y-87364574D02*
G75*
G02X216584000Y-87365000I683042J-1535426D01*
G01*
X214364574Y-89583042D02*
G75*
G02X214365000Y-88216000I1535426J683042D01*
G01*
X215928805Y-90580253D02*
G75*
G02X215216000Y-90435000I-28805J1680253D01*
G01*
X222580000Y-88900000D02*
G75*
G03X222580000Y-88900000I-1680000J0D01*
G01*
X227580000Y-88900000D02*
G75*
G03X227580000Y-88900000I-1680000J0D01*
G01*
X232580000Y-88900000D02*
G75*
G03X232580000Y-88900000I-1680000J0D01*
G01*
X213340000Y-92400000D02*
X233461000Y-92400000D01*
X213340000Y-90900000D02*
X233461000Y-90900000D01*
X213340000Y-86599000D02*
X233461000Y-86599000D01*
X213340000Y-84540000D02*
X233461000Y-84540000D01*
X213340000Y-92960000D02*
X233461000Y-92960000D01*
X213340000Y-84540000D02*
X213340000Y-92960000D01*
X233461000Y-84540000D02*
X233461000Y-92960000D01*
X214900000Y-84600000D02*
X216900000Y-84600000D01*
X214900000Y-85600000D02*
X216900000Y-85600000D01*
X214900000Y-84600000D02*
X214900000Y-85600000D01*
X216900000Y-84600000D02*
X216900000Y-85600000D01*
X222175000Y-87831000D02*
X222128000Y-87877000D01*
X219866000Y-90139000D02*
X219831000Y-90174000D01*
X221970000Y-87625000D02*
X221935000Y-87661000D01*
X219673000Y-89923000D02*
X219626000Y-89969000D01*
X219900000Y-84600000D02*
X221900000Y-84600000D01*
X219900000Y-85600000D02*
X221900000Y-85600000D01*
X219900000Y-84600000D02*
X219900000Y-85600000D01*
X221900000Y-84600000D02*
X221900000Y-85600000D01*
X227175000Y-87831000D02*
X227128000Y-87877000D01*
X224866000Y-90139000D02*
X224831000Y-90174000D01*
X226970000Y-87625000D02*
X226935000Y-87661000D01*
X224673000Y-89923000D02*
X224626000Y-89969000D01*
X224900000Y-84600000D02*
X226900000Y-84600000D01*
X224900000Y-85600000D02*
X226900000Y-85600000D01*
X224900000Y-84600000D02*
X224900000Y-85600000D01*
X226900000Y-84600000D02*
X226900000Y-85600000D01*
X232175000Y-87831000D02*
X232128000Y-87877000D01*
X229866000Y-90139000D02*
X229831000Y-90174000D01*
X231970000Y-87625000D02*
X231935000Y-87661000D01*
X229673000Y-89923000D02*
X229626000Y-89969000D01*
X229900000Y-84600000D02*
X231900000Y-84600000D01*
X229900000Y-85600000D02*
X231900000Y-85600000D01*
X229900000Y-84600000D02*
X229900000Y-85600000D01*
X231900000Y-84600000D02*
X231900000Y-85600000D01*
X213100000Y-92460000D02*
X213100000Y-93200000D01*
X213100000Y-93200000D02*
X213600000Y-93200000D01*
X190240000Y-93200000D02*
X190740000Y-93200000D01*
X190240000Y-92460000D02*
X190240000Y-93200000D01*
X209040000Y-84600000D02*
X209040000Y-85600000D01*
X207040000Y-84600000D02*
X207040000Y-85600000D01*
X207040000Y-85600000D02*
X209040000Y-85600000D01*
X207040000Y-84600000D02*
X209040000Y-84600000D01*
X206813000Y-89923000D02*
X206766000Y-89969000D01*
X209110000Y-87625000D02*
X209075000Y-87661000D01*
X207006000Y-90139000D02*
X206971000Y-90174000D01*
X209315000Y-87831000D02*
X209268000Y-87877000D01*
X204040000Y-84600000D02*
X204040000Y-85600000D01*
X202040000Y-84600000D02*
X202040000Y-85600000D01*
X202040000Y-85600000D02*
X204040000Y-85600000D01*
X202040000Y-84600000D02*
X204040000Y-84600000D01*
X201813000Y-89923000D02*
X201766000Y-89969000D01*
X204110000Y-87625000D02*
X204075000Y-87661000D01*
X202006000Y-90139000D02*
X201971000Y-90174000D01*
X204315000Y-87831000D02*
X204268000Y-87877000D01*
X199040000Y-84600000D02*
X199040000Y-85600000D01*
X197040000Y-84600000D02*
X197040000Y-85600000D01*
X197040000Y-85600000D02*
X199040000Y-85600000D01*
X197040000Y-84600000D02*
X199040000Y-84600000D01*
X196813000Y-89923000D02*
X196766000Y-89969000D01*
X199110000Y-87625000D02*
X199075000Y-87661000D01*
X197006000Y-90139000D02*
X196971000Y-90174000D01*
X199315000Y-87831000D02*
X199268000Y-87877000D01*
X194040000Y-84600000D02*
X194040000Y-85600000D01*
X192040000Y-84600000D02*
X192040000Y-85600000D01*
X192040000Y-85600000D02*
X194040000Y-85600000D01*
X192040000Y-84600000D02*
X194040000Y-84600000D01*
X210601000Y-84540000D02*
X210601000Y-92960000D01*
X190480000Y-84540000D02*
X190480000Y-92960000D01*
X190480000Y-92960000D02*
X210601000Y-92960000D01*
X190480000Y-84540000D02*
X210601000Y-84540000D01*
X190480000Y-86599000D02*
X210601000Y-86599000D01*
X190480000Y-90900000D02*
X210601000Y-90900000D01*
X190480000Y-92400000D02*
X210601000Y-92400000D01*
X209720000Y-88900000D02*
G75*
G03X209720000Y-88900000I-1680000J0D01*
G01*
X204720000Y-88900000D02*
G75*
G03X204720000Y-88900000I-1680000J0D01*
G01*
X199720000Y-88900000D02*
G75*
G03X199720000Y-88900000I-1680000J0D01*
G01*
X193068805Y-90580253D02*
G75*
G02X192356000Y-90435000I-28805J1680253D01*
G01*
X191504574Y-89583042D02*
G75*
G02X191505000Y-88216000I1535426J683042D01*
G01*
X192356958Y-87364574D02*
G75*
G02X193724000Y-87365000I683042J-1535426D01*
G01*
X194575426Y-88216958D02*
G75*
G02X194575000Y-89584000I-1535426J-683042D01*
G01*
X193723318Y-90434756D02*
G75*
G02X193040000Y-90580000I-683318J1534756D01*
G01*
X217070000Y-42640000D02*
X217400000Y-42640000D01*
X217070000Y-36100000D02*
X217070000Y-42640000D01*
X217400000Y-36100000D02*
X217070000Y-36100000D01*
X219810000Y-42640000D02*
X219480000Y-42640000D01*
X219810000Y-36100000D02*
X219810000Y-42640000D01*
X219480000Y-36100000D02*
X219810000Y-36100000D01*
X212630000Y-48160000D02*
X212630000Y-48490000D01*
X219170000Y-48160000D02*
X212630000Y-48160000D01*
X219170000Y-48490000D02*
X219170000Y-48160000D01*
X212630000Y-50900000D02*
X212630000Y-50570000D01*
X219170000Y-50900000D02*
X212630000Y-50900000D01*
X219170000Y-50570000D02*
X219170000Y-50900000D01*
X195310000Y-55820000D02*
G75*
G02X193310000Y-55820000I-1000000J0D01*
G01*
X193310000Y-55820000D02*
X191660000Y-55820000D01*
X191660000Y-55820000D02*
X191660000Y-81340000D01*
X191660000Y-81340000D02*
X196960000Y-81340000D01*
X196960000Y-81340000D02*
X196960000Y-55820000D01*
X196960000Y-55820000D02*
X195310000Y-55820000D01*
X231250000Y-55820000D02*
X229600000Y-55820000D01*
X231250000Y-81340000D02*
X231250000Y-55820000D01*
X225950000Y-81340000D02*
X231250000Y-81340000D01*
X225950000Y-55820000D02*
X225950000Y-81340000D01*
X227600000Y-55820000D02*
X225950000Y-55820000D01*
X229600000Y-55820000D02*
G75*
G02X227600000Y-55820000I-1000000J0D01*
G01*
D10*
X193548095Y-52582380D02*
X193548095Y-53391904D01*
X193595714Y-53487142D01*
X193643333Y-53534761D01*
X193738571Y-53582380D01*
X193929047Y-53582380D01*
X194024285Y-53534761D01*
X194071904Y-53487142D01*
X194119523Y-53391904D01*
X194119523Y-52582380D01*
X194500476Y-52582380D02*
X195119523Y-52582380D01*
X194786190Y-52963333D01*
X194929047Y-52963333D01*
X195024285Y-53010952D01*
X195071904Y-53058571D01*
X195119523Y-53153809D01*
X195119523Y-53391904D01*
X195071904Y-53487142D01*
X195024285Y-53534761D01*
X194929047Y-53582380D01*
X194643333Y-53582380D01*
X194548095Y-53534761D01*
X194500476Y-53487142D01*
X207518095Y-32682380D02*
X207518095Y-33491904D01*
X207565714Y-33587142D01*
X207613333Y-33634761D01*
X207708571Y-33682380D01*
X207899047Y-33682380D01*
X207994285Y-33634761D01*
X208041904Y-33587142D01*
X208089523Y-33491904D01*
X208089523Y-32682380D01*
X209089523Y-33682380D02*
X208518095Y-33682380D01*
X208803809Y-33682380D02*
X208803809Y-32682380D01*
X208708571Y-32825238D01*
X208613333Y-32920476D01*
X208518095Y-32968095D01*
X204343333Y-61007142D02*
X204295714Y-61054761D01*
X204152857Y-61102380D01*
X204057619Y-61102380D01*
X203914761Y-61054761D01*
X203819523Y-60959523D01*
X203771904Y-60864285D01*
X203724285Y-60673809D01*
X203724285Y-60530952D01*
X203771904Y-60340476D01*
X203819523Y-60245238D01*
X203914761Y-60150000D01*
X204057619Y-60102380D01*
X204152857Y-60102380D01*
X204295714Y-60150000D01*
X204343333Y-60197619D01*
X205295714Y-61102380D02*
X204724285Y-61102380D01*
X205010000Y-61102380D02*
X205010000Y-60102380D01*
X204914761Y-60245238D01*
X204819523Y-60340476D01*
X204724285Y-60388095D01*
X221027142Y-57276666D02*
X221074761Y-57324285D01*
X221122380Y-57467142D01*
X221122380Y-57562380D01*
X221074761Y-57705238D01*
X220979523Y-57800476D01*
X220884285Y-57848095D01*
X220693809Y-57895714D01*
X220550952Y-57895714D01*
X220360476Y-57848095D01*
X220265238Y-57800476D01*
X220170000Y-57705238D01*
X220122380Y-57562380D01*
X220122380Y-57467142D01*
X220170000Y-57324285D01*
X220217619Y-57276666D01*
X220217619Y-56895714D02*
X220170000Y-56848095D01*
X220122380Y-56752857D01*
X220122380Y-56514761D01*
X220170000Y-56419523D01*
X220217619Y-56371904D01*
X220312857Y-56324285D01*
X220408095Y-56324285D01*
X220550952Y-56371904D01*
X221122380Y-56943333D01*
X221122380Y-56324285D01*
X204132380Y-66373333D02*
X204846666Y-66373333D01*
X204989523Y-66420952D01*
X205084761Y-66516190D01*
X205132380Y-66659047D01*
X205132380Y-66754285D01*
X205132380Y-65373333D02*
X205132380Y-65944761D01*
X205132380Y-65659047D02*
X204132380Y-65659047D01*
X204275238Y-65754285D01*
X204370476Y-65849523D01*
X204418095Y-65944761D01*
X233412380Y-43473333D02*
X234126666Y-43473333D01*
X234269523Y-43520952D01*
X234364761Y-43616190D01*
X234412380Y-43759047D01*
X234412380Y-43854285D01*
X233507619Y-43044761D02*
X233460000Y-42997142D01*
X233412380Y-42901904D01*
X233412380Y-42663809D01*
X233460000Y-42568571D01*
X233507619Y-42520952D01*
X233602857Y-42473333D01*
X233698095Y-42473333D01*
X233840952Y-42520952D01*
X234412380Y-43092380D01*
X234412380Y-42473333D01*
X223066666Y-82992380D02*
X223066666Y-83706666D01*
X223019047Y-83849523D01*
X222923809Y-83944761D01*
X222780952Y-83992380D01*
X222685714Y-83992380D01*
X223447619Y-82992380D02*
X224066666Y-82992380D01*
X223733333Y-83373333D01*
X223876190Y-83373333D01*
X223971428Y-83420952D01*
X224019047Y-83468571D01*
X224066666Y-83563809D01*
X224066666Y-83801904D01*
X224019047Y-83897142D01*
X223971428Y-83944761D01*
X223876190Y-83992380D01*
X223590476Y-83992380D01*
X223495238Y-83944761D01*
X223447619Y-83897142D01*
X205406666Y-88352380D02*
X205406666Y-89066666D01*
X205359047Y-89209523D01*
X205263809Y-89304761D01*
X205120952Y-89352380D01*
X205025714Y-89352380D01*
X206311428Y-88685714D02*
X206311428Y-89352380D01*
X206073333Y-88304761D02*
X205835238Y-89019047D01*
X206454285Y-89019047D01*
X221262380Y-39536666D02*
X220786190Y-39870000D01*
X221262380Y-40108095D02*
X220262380Y-40108095D01*
X220262380Y-39727142D01*
X220310000Y-39631904D01*
X220357619Y-39584285D01*
X220452857Y-39536666D01*
X220595714Y-39536666D01*
X220690952Y-39584285D01*
X220738571Y-39631904D01*
X220786190Y-39727142D01*
X220786190Y-40108095D01*
X221262380Y-38584285D02*
X221262380Y-39155714D01*
X221262380Y-38870000D02*
X220262380Y-38870000D01*
X220405238Y-38965238D01*
X220500476Y-39060476D01*
X220548095Y-39155714D01*
X215733333Y-52352380D02*
X215400000Y-51876190D01*
X215161904Y-52352380D02*
X215161904Y-51352380D01*
X215542857Y-51352380D01*
X215638095Y-51400000D01*
X215685714Y-51447619D01*
X215733333Y-51542857D01*
X215733333Y-51685714D01*
X215685714Y-51780952D01*
X215638095Y-51828571D01*
X215542857Y-51876190D01*
X215161904Y-51876190D01*
X216114285Y-51447619D02*
X216161904Y-51400000D01*
X216257142Y-51352380D01*
X216495238Y-51352380D01*
X216590476Y-51400000D01*
X216638095Y-51447619D01*
X216685714Y-51542857D01*
X216685714Y-51638095D01*
X216638095Y-51780952D01*
X216066666Y-52352380D01*
X216685714Y-52352380D01*
X193548095Y-54272380D02*
X193548095Y-55081904D01*
X193595714Y-55177142D01*
X193643333Y-55224761D01*
X193738571Y-55272380D01*
X193929047Y-55272380D01*
X194024285Y-55224761D01*
X194071904Y-55177142D01*
X194119523Y-55081904D01*
X194119523Y-54272380D01*
X194548095Y-54367619D02*
X194595714Y-54320000D01*
X194690952Y-54272380D01*
X194929047Y-54272380D01*
X195024285Y-54320000D01*
X195071904Y-54367619D01*
X195119523Y-54462857D01*
X195119523Y-54558095D01*
X195071904Y-54700952D01*
X194500476Y-55272380D01*
X195119523Y-55272380D01*
X227838095Y-54272380D02*
X227838095Y-55081904D01*
X227885714Y-55177142D01*
X227933333Y-55224761D01*
X228028571Y-55272380D01*
X228219047Y-55272380D01*
X228314285Y-55224761D01*
X228361904Y-55177142D01*
X228409523Y-55081904D01*
X228409523Y-54272380D01*
X229314285Y-54605714D02*
X229314285Y-55272380D01*
X229076190Y-54224761D02*
X228838095Y-54939047D01*
X229457142Y-54939047D01*
M02*
