M48
INCH,TZ
T1C0.0157
T2C0.0315
T3C0.0394
T4C0.0512
%
G90
G05
T1
X87000Y-32500
X88500Y-34000
X90000Y-20000
X90000Y-22000
T2
X83500Y-19500
X86500Y-19500
X85500Y-21500
X85500Y-23469
X86000Y-14000
X86000Y-17000
X75000Y-22500
X75000Y-23500
X75000Y-24500
X75000Y-25500
X75000Y-26500
X75000Y-27500
X75000Y-28500
X75000Y-29500
X75000Y-30500
X75000Y-31500
X78000Y-22500
X78000Y-23500
X78000Y-24500
X78000Y-25500
X78000Y-26500
X78000Y-27500
X78000Y-28500
X78000Y-29500
X78000Y-30500
X78000Y-31500
X88500Y-22500
X88500Y-23500
X88500Y-24500
X88500Y-25500
X88500Y-26500
X88500Y-27500
X88500Y-28500
X88500Y-29500
X88500Y-30500
X88500Y-31500
X91500Y-22500
X91500Y-23500
X91500Y-24500
X91500Y-25500
X91500Y-26500
X91500Y-27500
X91500Y-28500
X91500Y-29500
X91500Y-30500
X91500Y-31500
X75000Y-14000
X75000Y-15000
X75000Y-16000
X75000Y-17000
X75000Y-18000
X75000Y-19000
X75000Y-20000
X78000Y-14000
X78000Y-15000
X78000Y-16000
X78000Y-17000
X78000Y-18000
X78000Y-19000
X78000Y-20000
X79531Y-22500
X81500Y-22500
X80500Y-14000
X80500Y-15000
X80500Y-16000
X80500Y-17000
X83500Y-14000
X83500Y-15000
X83500Y-16000
X83500Y-17000
T3
X81500Y-25500
X81500Y-26500
X82500Y-25500
X82500Y-26500
X83500Y-25500
X83500Y-26500
X84500Y-25500
X84500Y-26500
X85500Y-25500
X85500Y-26500
T4
X76000Y-35000
X77969Y-35000
X79937Y-35000
X81906Y-35000
X90000Y-16000
X90000Y-17969
X85000Y-35000
X86969Y-35000
X88937Y-35000
X90906Y-35000
T0
M30
