G04 #@! TF.GenerationSoftware,KiCad,Pcbnew,(5.1.5-0-10_14)*
G04 #@! TF.CreationDate,2022-01-19T13:44:37-07:00*
G04 #@! TF.ProjectId,genesisctl,67656e65-7369-4736-9374-6c2e6b696361,rev?*
G04 #@! TF.SameCoordinates,Original*
G04 #@! TF.FileFunction,Copper,L1,Top*
G04 #@! TF.FilePolarity,Positive*
%FSLAX46Y46*%
G04 Gerber Fmt 4.6, Leading zero omitted, Abs format (unit mm)*
G04 Created by KiCad (PCBNEW (5.1.5-0-10_14)) date 2022-01-19 13:44:37*
%MOMM*%
%LPD*%
G04 APERTURE LIST*
%ADD10C,2.600000*%
%ADD11R,2.600000X2.600000*%
%ADD12O,1.600000X1.600000*%
%ADD13R,1.600000X1.600000*%
%ADD14C,1.600000*%
%ADD15R,1.700000X1.700000*%
%ADD16O,1.700000X1.700000*%
%ADD17C,0.800000*%
%ADD18C,0.250000*%
%ADD19C,0.254000*%
G04 APERTURE END LIST*
D10*
X208040000Y-88900000D03*
X203040000Y-88900000D03*
X198040000Y-88900000D03*
D11*
X193040000Y-88900000D03*
D12*
X232410000Y-57150000D03*
X224790000Y-80010000D03*
X232410000Y-59690000D03*
X224790000Y-77470000D03*
X232410000Y-62230000D03*
X224790000Y-74930000D03*
X232410000Y-64770000D03*
X224790000Y-72390000D03*
X232410000Y-67310000D03*
X224790000Y-69850000D03*
X232410000Y-69850000D03*
X224790000Y-67310000D03*
X232410000Y-72390000D03*
X224790000Y-64770000D03*
X232410000Y-74930000D03*
X224790000Y-62230000D03*
X232410000Y-77470000D03*
X224790000Y-59690000D03*
X232410000Y-80010000D03*
D13*
X224790000Y-57150000D03*
X198120000Y-50800000D03*
D12*
X190500000Y-35560000D03*
X198120000Y-48260000D03*
X190500000Y-38100000D03*
X198120000Y-45720000D03*
X190500000Y-40640000D03*
X198120000Y-43180000D03*
X190500000Y-43180000D03*
X198120000Y-40640000D03*
X190500000Y-45720000D03*
X198120000Y-38100000D03*
X190500000Y-48260000D03*
X198120000Y-35560000D03*
X190500000Y-50800000D03*
D13*
X204470000Y-35560000D03*
D12*
X212090000Y-43180000D03*
X204470000Y-38100000D03*
X212090000Y-40640000D03*
X204470000Y-40640000D03*
X212090000Y-38100000D03*
X204470000Y-43180000D03*
X212090000Y-35560000D03*
D13*
X207010000Y-57150000D03*
D14*
X202010000Y-57150000D03*
X217170000Y-59610000D03*
D13*
X217170000Y-54610000D03*
D15*
X207010000Y-67310000D03*
D16*
X207010000Y-64770000D03*
X209550000Y-67310000D03*
X209550000Y-64770000D03*
X212090000Y-67310000D03*
X212090000Y-64770000D03*
X214630000Y-67310000D03*
X214630000Y-64770000D03*
X217170000Y-67310000D03*
X217170000Y-64770000D03*
D11*
X228600000Y-40640000D03*
D10*
X228600000Y-45640000D03*
D11*
X215900000Y-88900000D03*
D10*
X220900000Y-88900000D03*
X225900000Y-88900000D03*
X230900000Y-88900000D03*
D12*
X218440000Y-43180000D03*
D14*
X218440000Y-35560000D03*
D12*
X212090000Y-49530000D03*
D14*
X219710000Y-49530000D03*
D13*
X190500000Y-57150000D03*
D12*
X198120000Y-80010000D03*
X190500000Y-59690000D03*
X198120000Y-77470000D03*
X190500000Y-62230000D03*
X198120000Y-74930000D03*
X190500000Y-64770000D03*
X198120000Y-72390000D03*
X190500000Y-67310000D03*
X198120000Y-69850000D03*
X190500000Y-69850000D03*
X198120000Y-67310000D03*
X190500000Y-72390000D03*
X198120000Y-64770000D03*
X190500000Y-74930000D03*
X198120000Y-62230000D03*
X190500000Y-77470000D03*
X198120000Y-59690000D03*
X190500000Y-80010000D03*
X198120000Y-57150000D03*
D17*
X228600000Y-55880000D03*
X228600000Y-50800000D03*
X220980000Y-82550000D03*
X224790000Y-86360000D03*
D18*
X207010000Y-48260000D02*
X207010000Y-57150000D01*
X212090000Y-43180000D02*
X207010000Y-48260000D01*
X212090000Y-64690000D02*
X212090000Y-64770000D01*
X217170000Y-59610000D02*
X212090000Y-64690000D01*
X209550000Y-38100000D02*
X212090000Y-40640000D01*
X204470000Y-38100000D02*
X209550000Y-38100000D01*
X212090000Y-40640000D02*
X213360000Y-40640000D01*
X213360000Y-40640000D02*
X214630000Y-41910000D01*
X214630000Y-46990000D02*
X212090000Y-49530000D01*
X214630000Y-41910000D02*
X214630000Y-46990000D01*
X217170000Y-54610000D02*
X212090000Y-49530000D01*
X214350000Y-88900000D02*
X215900000Y-88900000D01*
X207010000Y-81560000D02*
X214350000Y-88900000D01*
X207010000Y-67310000D02*
X207010000Y-81560000D01*
X198120000Y-38100000D02*
X196850000Y-38100000D01*
X196850000Y-38100000D02*
X195580000Y-39370000D01*
X195580000Y-45720000D02*
X198120000Y-48260000D01*
X195580000Y-39370000D02*
X195580000Y-45720000D01*
X198120000Y-48260000D02*
X204470000Y-54610000D01*
X204470000Y-59690000D02*
X209550000Y-64770000D01*
X204470000Y-54610000D02*
X204470000Y-59690000D01*
X209550000Y-64770000D02*
X220980000Y-53340000D01*
X220980000Y-53340000D02*
X232410000Y-53340000D01*
X232410000Y-53340000D02*
X234950000Y-55880000D01*
X234950000Y-77470000D02*
X232410000Y-80010000D01*
X234950000Y-55880000D02*
X234950000Y-77470000D01*
X223990001Y-63029999D02*
X224790000Y-62230000D01*
X200660000Y-64770000D02*
X198120000Y-62230000D01*
X207010000Y-64770000D02*
X200660000Y-64770000D01*
X209550000Y-77550000D02*
X220900000Y-88900000D01*
X209550000Y-67310000D02*
X209550000Y-77550000D01*
X213780001Y-65619999D02*
X214630000Y-64770000D01*
X199295001Y-65945001D02*
X213454999Y-65945001D01*
X213454999Y-65945001D02*
X213780001Y-65619999D01*
X198120000Y-64770000D02*
X199295001Y-65945001D01*
X200660000Y-88900000D02*
X203040000Y-88900000D01*
X194310000Y-82550000D02*
X200660000Y-88900000D01*
X194310000Y-71120000D02*
X194310000Y-82550000D01*
X198120000Y-67310000D02*
X194310000Y-71120000D01*
X198120000Y-59690000D02*
X193040000Y-64770000D01*
X193040000Y-83900000D02*
X198040000Y-88900000D01*
X193040000Y-64770000D02*
X193040000Y-83900000D01*
X213360000Y-38100000D02*
X218440000Y-43180000D01*
X212090000Y-38100000D02*
X213360000Y-38100000D01*
X218440000Y-48260000D02*
X219710000Y-49530000D01*
X218440000Y-43180000D02*
X218440000Y-48260000D01*
X203200000Y-40640000D02*
X198120000Y-45720000D01*
X204470000Y-40640000D02*
X203200000Y-40640000D01*
X198919999Y-78269999D02*
X198120000Y-77470000D01*
X205739999Y-85089999D02*
X198919999Y-78269999D01*
X205739999Y-89005001D02*
X205739999Y-85089999D01*
X207259999Y-90525001D02*
X205739999Y-89005001D01*
X222436522Y-90525001D02*
X207259999Y-90525001D01*
X224061523Y-88900000D02*
X222436522Y-90525001D01*
X225900000Y-88900000D02*
X224061523Y-88900000D01*
X228824989Y-90975011D02*
X229600001Y-90199999D01*
X205289991Y-89191403D02*
X207073599Y-90975011D01*
X205289990Y-88744988D02*
X205289991Y-89191403D01*
X207073599Y-90975011D02*
X228824989Y-90975011D01*
X203820001Y-87274999D02*
X205289990Y-88744988D01*
X202844999Y-87274999D02*
X203820001Y-87274999D01*
X196544990Y-80974990D02*
X202844999Y-87274999D01*
X229600001Y-90199999D02*
X230900000Y-88900000D01*
X196544990Y-71425010D02*
X196544990Y-80974990D01*
X198120000Y-69850000D02*
X196544990Y-71425010D01*
X193040000Y-90450000D02*
X193040000Y-88900000D01*
X194015021Y-91425021D02*
X193040000Y-90450000D01*
X232525001Y-89680001D02*
X230779981Y-91425021D01*
X232525001Y-88119999D02*
X232525001Y-89680001D01*
X231284999Y-86879997D02*
X232525001Y-88119999D01*
X230779981Y-91425021D02*
X194015021Y-91425021D01*
X231284999Y-66184999D02*
X231284999Y-86879997D01*
X224790000Y-59690000D02*
X231284999Y-66184999D01*
D19*
G36*
X234823000Y-54678198D02*
G01*
X232973804Y-52829003D01*
X232950001Y-52799999D01*
X232834276Y-52705026D01*
X232702247Y-52634454D01*
X232558986Y-52590997D01*
X232447333Y-52580000D01*
X232447322Y-52580000D01*
X232410000Y-52576324D01*
X232372678Y-52580000D01*
X221017322Y-52580000D01*
X220979999Y-52576324D01*
X220942677Y-52580000D01*
X220942667Y-52580000D01*
X220831014Y-52590997D01*
X220687753Y-52634454D01*
X220555723Y-52705026D01*
X220472083Y-52773668D01*
X220439999Y-52799999D01*
X220416201Y-52828997D01*
X218608072Y-54637126D01*
X218608072Y-53810000D01*
X218595812Y-53685518D01*
X218559502Y-53565820D01*
X218500537Y-53455506D01*
X218421185Y-53358815D01*
X218324494Y-53279463D01*
X218214180Y-53220498D01*
X218094482Y-53184188D01*
X217970000Y-53171928D01*
X216806730Y-53171928D01*
X213488688Y-49853887D01*
X213525000Y-49671335D01*
X213525000Y-49388665D01*
X213488688Y-49206114D01*
X215141008Y-47553795D01*
X215170001Y-47530001D01*
X215193795Y-47501008D01*
X215193799Y-47501004D01*
X215264973Y-47414277D01*
X215264974Y-47414276D01*
X215335546Y-47282247D01*
X215379003Y-47138986D01*
X215390000Y-47027333D01*
X215390000Y-47027324D01*
X215393676Y-46990001D01*
X215390000Y-46952678D01*
X215390000Y-41947322D01*
X215393676Y-41909999D01*
X215390000Y-41872676D01*
X215390000Y-41872667D01*
X215379003Y-41761014D01*
X215335546Y-41617753D01*
X215264974Y-41485724D01*
X215170001Y-41369999D01*
X215141004Y-41346202D01*
X213923804Y-40129003D01*
X213900001Y-40099999D01*
X213784276Y-40005026D01*
X213652247Y-39934454D01*
X213508986Y-39890997D01*
X213397333Y-39880000D01*
X213397322Y-39880000D01*
X213360000Y-39876324D01*
X213322678Y-39880000D01*
X213308043Y-39880000D01*
X213204637Y-39725241D01*
X213004759Y-39525363D01*
X212772241Y-39370000D01*
X213004759Y-39214637D01*
X213202297Y-39017099D01*
X217041312Y-42856114D01*
X217005000Y-43038665D01*
X217005000Y-43321335D01*
X217060147Y-43598574D01*
X217168320Y-43859727D01*
X217325363Y-44094759D01*
X217525241Y-44294637D01*
X217680000Y-44398044D01*
X217680001Y-48222667D01*
X217676324Y-48260000D01*
X217680001Y-48297333D01*
X217690998Y-48408986D01*
X217704180Y-48452442D01*
X217734454Y-48552246D01*
X217805026Y-48684276D01*
X217872362Y-48766324D01*
X217900000Y-48800001D01*
X217928998Y-48823799D01*
X218311312Y-49206114D01*
X218275000Y-49388665D01*
X218275000Y-49671335D01*
X218330147Y-49948574D01*
X218438320Y-50209727D01*
X218595363Y-50444759D01*
X218795241Y-50644637D01*
X219030273Y-50801680D01*
X219291426Y-50909853D01*
X219568665Y-50965000D01*
X219851335Y-50965000D01*
X220128574Y-50909853D01*
X220389727Y-50801680D01*
X220624759Y-50644637D01*
X220824637Y-50444759D01*
X220981680Y-50209727D01*
X221089853Y-49948574D01*
X221145000Y-49671335D01*
X221145000Y-49388665D01*
X221089853Y-49111426D01*
X220981680Y-48850273D01*
X220824637Y-48615241D01*
X220624759Y-48415363D01*
X220389727Y-48258320D01*
X220128574Y-48150147D01*
X219851335Y-48095000D01*
X219568665Y-48095000D01*
X219386114Y-48131312D01*
X219200000Y-47945199D01*
X219200000Y-46989224D01*
X227430381Y-46989224D01*
X227562317Y-47284312D01*
X227903045Y-47455159D01*
X228270557Y-47556250D01*
X228650729Y-47583701D01*
X229028951Y-47536457D01*
X229390690Y-47416333D01*
X229637683Y-47284312D01*
X229769619Y-46989224D01*
X228600000Y-45819605D01*
X227430381Y-46989224D01*
X219200000Y-46989224D01*
X219200000Y-45690729D01*
X226656299Y-45690729D01*
X226703543Y-46068951D01*
X226823667Y-46430690D01*
X226955688Y-46677683D01*
X227250776Y-46809619D01*
X228420395Y-45640000D01*
X228779605Y-45640000D01*
X229949224Y-46809619D01*
X230244312Y-46677683D01*
X230415159Y-46336955D01*
X230516250Y-45969443D01*
X230543701Y-45589271D01*
X230496457Y-45211049D01*
X230376333Y-44849310D01*
X230244312Y-44602317D01*
X229949224Y-44470381D01*
X228779605Y-45640000D01*
X228420395Y-45640000D01*
X227250776Y-44470381D01*
X226955688Y-44602317D01*
X226784841Y-44943045D01*
X226683750Y-45310557D01*
X226656299Y-45690729D01*
X219200000Y-45690729D01*
X219200000Y-44398043D01*
X219354759Y-44294637D01*
X219358620Y-44290776D01*
X227430381Y-44290776D01*
X228600000Y-45460395D01*
X229769619Y-44290776D01*
X229637683Y-43995688D01*
X229296955Y-43824841D01*
X228929443Y-43723750D01*
X228549271Y-43696299D01*
X228171049Y-43743543D01*
X227809310Y-43863667D01*
X227562317Y-43995688D01*
X227430381Y-44290776D01*
X219358620Y-44290776D01*
X219554637Y-44094759D01*
X219711680Y-43859727D01*
X219819853Y-43598574D01*
X219875000Y-43321335D01*
X219875000Y-43038665D01*
X219819853Y-42761426D01*
X219711680Y-42500273D01*
X219554637Y-42265241D01*
X219354759Y-42065363D01*
X219119727Y-41908320D01*
X218858574Y-41800147D01*
X218581335Y-41745000D01*
X218298665Y-41745000D01*
X218116114Y-41781312D01*
X215674802Y-39340000D01*
X226661928Y-39340000D01*
X226661928Y-41940000D01*
X226674188Y-42064482D01*
X226710498Y-42184180D01*
X226769463Y-42294494D01*
X226848815Y-42391185D01*
X226945506Y-42470537D01*
X227055820Y-42529502D01*
X227175518Y-42565812D01*
X227300000Y-42578072D01*
X229900000Y-42578072D01*
X230024482Y-42565812D01*
X230144180Y-42529502D01*
X230254494Y-42470537D01*
X230351185Y-42391185D01*
X230430537Y-42294494D01*
X230489502Y-42184180D01*
X230525812Y-42064482D01*
X230538072Y-41940000D01*
X230538072Y-39340000D01*
X230525812Y-39215518D01*
X230489502Y-39095820D01*
X230430537Y-38985506D01*
X230351185Y-38888815D01*
X230254494Y-38809463D01*
X230144180Y-38750498D01*
X230024482Y-38714188D01*
X229900000Y-38701928D01*
X227300000Y-38701928D01*
X227175518Y-38714188D01*
X227055820Y-38750498D01*
X226945506Y-38809463D01*
X226848815Y-38888815D01*
X226769463Y-38985506D01*
X226710498Y-39095820D01*
X226674188Y-39215518D01*
X226661928Y-39340000D01*
X215674802Y-39340000D01*
X213923804Y-37589003D01*
X213900001Y-37559999D01*
X213784276Y-37465026D01*
X213652247Y-37394454D01*
X213508986Y-37350997D01*
X213397333Y-37340000D01*
X213397322Y-37340000D01*
X213360000Y-37336324D01*
X213322678Y-37340000D01*
X213308043Y-37340000D01*
X213204637Y-37185241D01*
X213004759Y-36985363D01*
X212772241Y-36830000D01*
X213004759Y-36674637D01*
X213204637Y-36474759D01*
X213361680Y-36239727D01*
X213469853Y-35978574D01*
X213525000Y-35701335D01*
X213525000Y-35418665D01*
X217005000Y-35418665D01*
X217005000Y-35701335D01*
X217060147Y-35978574D01*
X217168320Y-36239727D01*
X217325363Y-36474759D01*
X217525241Y-36674637D01*
X217760273Y-36831680D01*
X218021426Y-36939853D01*
X218298665Y-36995000D01*
X218581335Y-36995000D01*
X218858574Y-36939853D01*
X219119727Y-36831680D01*
X219354759Y-36674637D01*
X219554637Y-36474759D01*
X219711680Y-36239727D01*
X219819853Y-35978574D01*
X219875000Y-35701335D01*
X219875000Y-35418665D01*
X219819853Y-35141426D01*
X219711680Y-34880273D01*
X219554637Y-34645241D01*
X219354759Y-34445363D01*
X219119727Y-34288320D01*
X218858574Y-34180147D01*
X218581335Y-34125000D01*
X218298665Y-34125000D01*
X218021426Y-34180147D01*
X217760273Y-34288320D01*
X217525241Y-34445363D01*
X217325363Y-34645241D01*
X217168320Y-34880273D01*
X217060147Y-35141426D01*
X217005000Y-35418665D01*
X213525000Y-35418665D01*
X213469853Y-35141426D01*
X213361680Y-34880273D01*
X213204637Y-34645241D01*
X213004759Y-34445363D01*
X212769727Y-34288320D01*
X212508574Y-34180147D01*
X212231335Y-34125000D01*
X211948665Y-34125000D01*
X211671426Y-34180147D01*
X211410273Y-34288320D01*
X211175241Y-34445363D01*
X210975363Y-34645241D01*
X210818320Y-34880273D01*
X210710147Y-35141426D01*
X210655000Y-35418665D01*
X210655000Y-35701335D01*
X210710147Y-35978574D01*
X210818320Y-36239727D01*
X210975363Y-36474759D01*
X211175241Y-36674637D01*
X211407759Y-36830000D01*
X211175241Y-36985363D01*
X210975363Y-37185241D01*
X210818320Y-37420273D01*
X210710147Y-37681426D01*
X210655000Y-37958665D01*
X210655000Y-38130199D01*
X210113804Y-37589003D01*
X210090001Y-37559999D01*
X209974276Y-37465026D01*
X209842247Y-37394454D01*
X209698986Y-37350997D01*
X209587333Y-37340000D01*
X209587322Y-37340000D01*
X209550000Y-37336324D01*
X209512678Y-37340000D01*
X205688043Y-37340000D01*
X205584637Y-37185241D01*
X205386039Y-36986643D01*
X205394482Y-36985812D01*
X205514180Y-36949502D01*
X205624494Y-36890537D01*
X205721185Y-36811185D01*
X205800537Y-36714494D01*
X205859502Y-36604180D01*
X205895812Y-36484482D01*
X205908072Y-36360000D01*
X205905000Y-35845750D01*
X205746250Y-35687000D01*
X204597000Y-35687000D01*
X204597000Y-35707000D01*
X204343000Y-35707000D01*
X204343000Y-35687000D01*
X203193750Y-35687000D01*
X203035000Y-35845750D01*
X203031928Y-36360000D01*
X203044188Y-36484482D01*
X203080498Y-36604180D01*
X203139463Y-36714494D01*
X203218815Y-36811185D01*
X203315506Y-36890537D01*
X203425820Y-36949502D01*
X203545518Y-36985812D01*
X203553961Y-36986643D01*
X203355363Y-37185241D01*
X203198320Y-37420273D01*
X203090147Y-37681426D01*
X203035000Y-37958665D01*
X203035000Y-38241335D01*
X203090147Y-38518574D01*
X203198320Y-38779727D01*
X203355363Y-39014759D01*
X203555241Y-39214637D01*
X203787759Y-39370000D01*
X203555241Y-39525363D01*
X203355363Y-39725241D01*
X203251957Y-39880000D01*
X203237323Y-39880000D01*
X203200000Y-39876324D01*
X203162677Y-39880000D01*
X203162667Y-39880000D01*
X203051014Y-39890997D01*
X202909912Y-39933799D01*
X202907753Y-39934454D01*
X202775723Y-40005026D01*
X202692083Y-40073668D01*
X202659999Y-40099999D01*
X202636202Y-40128996D01*
X199555000Y-43210199D01*
X199555000Y-43038665D01*
X199499853Y-42761426D01*
X199391680Y-42500273D01*
X199234637Y-42265241D01*
X199034759Y-42065363D01*
X198802241Y-41910000D01*
X199034759Y-41754637D01*
X199234637Y-41554759D01*
X199391680Y-41319727D01*
X199499853Y-41058574D01*
X199555000Y-40781335D01*
X199555000Y-40498665D01*
X199499853Y-40221426D01*
X199391680Y-39960273D01*
X199234637Y-39725241D01*
X199034759Y-39525363D01*
X198802241Y-39370000D01*
X199034759Y-39214637D01*
X199234637Y-39014759D01*
X199391680Y-38779727D01*
X199499853Y-38518574D01*
X199555000Y-38241335D01*
X199555000Y-37958665D01*
X199499853Y-37681426D01*
X199391680Y-37420273D01*
X199234637Y-37185241D01*
X199034759Y-36985363D01*
X198799727Y-36828320D01*
X198789135Y-36823933D01*
X198975131Y-36712385D01*
X199183519Y-36523414D01*
X199351037Y-36297420D01*
X199471246Y-36043087D01*
X199511904Y-35909039D01*
X199389915Y-35687000D01*
X198247000Y-35687000D01*
X198247000Y-35707000D01*
X197993000Y-35707000D01*
X197993000Y-35687000D01*
X196850085Y-35687000D01*
X196728096Y-35909039D01*
X196768754Y-36043087D01*
X196888963Y-36297420D01*
X197056481Y-36523414D01*
X197264869Y-36712385D01*
X197450865Y-36823933D01*
X197440273Y-36828320D01*
X197205241Y-36985363D01*
X197005363Y-37185241D01*
X196901957Y-37340000D01*
X196887322Y-37340000D01*
X196849999Y-37336324D01*
X196812676Y-37340000D01*
X196812667Y-37340000D01*
X196701014Y-37350997D01*
X196557753Y-37394454D01*
X196425724Y-37465026D01*
X196309999Y-37559999D01*
X196286201Y-37588997D01*
X195069003Y-38806196D01*
X195039999Y-38829999D01*
X194984871Y-38897174D01*
X194945026Y-38945724D01*
X194923762Y-38985506D01*
X194874454Y-39077754D01*
X194830997Y-39221015D01*
X194820000Y-39332668D01*
X194820000Y-39332678D01*
X194816324Y-39370000D01*
X194820000Y-39407323D01*
X194820001Y-45682668D01*
X194816324Y-45720000D01*
X194820001Y-45757333D01*
X194830245Y-45861335D01*
X194830998Y-45868985D01*
X194874454Y-46012246D01*
X194945026Y-46144276D01*
X195012362Y-46226324D01*
X195040000Y-46260001D01*
X195068998Y-46283799D01*
X196721312Y-47936114D01*
X196685000Y-48118665D01*
X196685000Y-48401335D01*
X196740147Y-48678574D01*
X196848320Y-48939727D01*
X197005363Y-49174759D01*
X197203961Y-49373357D01*
X197195518Y-49374188D01*
X197075820Y-49410498D01*
X196965506Y-49469463D01*
X196868815Y-49548815D01*
X196789463Y-49645506D01*
X196730498Y-49755820D01*
X196694188Y-49875518D01*
X196681928Y-50000000D01*
X196681928Y-51600000D01*
X196694188Y-51724482D01*
X196730498Y-51844180D01*
X196789463Y-51954494D01*
X196868815Y-52051185D01*
X196965506Y-52130537D01*
X197075820Y-52189502D01*
X197195518Y-52225812D01*
X197320000Y-52238072D01*
X198920000Y-52238072D01*
X199044482Y-52225812D01*
X199164180Y-52189502D01*
X199274494Y-52130537D01*
X199371185Y-52051185D01*
X199450537Y-51954494D01*
X199509502Y-51844180D01*
X199545812Y-51724482D01*
X199558072Y-51600000D01*
X199558072Y-50772873D01*
X203710000Y-54924802D01*
X203710001Y-59652668D01*
X203706324Y-59690000D01*
X203710001Y-59727333D01*
X203720245Y-59831335D01*
X203720998Y-59838985D01*
X203764454Y-59982246D01*
X203835026Y-60114276D01*
X203906201Y-60201002D01*
X203930000Y-60230001D01*
X203958998Y-60253799D01*
X206990198Y-63285000D01*
X206863740Y-63285000D01*
X206576842Y-63342068D01*
X206306589Y-63454010D01*
X206063368Y-63616525D01*
X205856525Y-63823368D01*
X205731822Y-64010000D01*
X200974803Y-64010000D01*
X199518688Y-62553886D01*
X199555000Y-62371335D01*
X199555000Y-62088665D01*
X199499853Y-61811426D01*
X199391680Y-61550273D01*
X199234637Y-61315241D01*
X199034759Y-61115363D01*
X198802241Y-60960000D01*
X199034759Y-60804637D01*
X199234637Y-60604759D01*
X199391680Y-60369727D01*
X199499853Y-60108574D01*
X199555000Y-59831335D01*
X199555000Y-59548665D01*
X199499853Y-59271426D01*
X199391680Y-59010273D01*
X199234637Y-58775241D01*
X199034759Y-58575363D01*
X198802241Y-58420000D01*
X199034759Y-58264637D01*
X199156694Y-58142702D01*
X201196903Y-58142702D01*
X201268486Y-58386671D01*
X201523996Y-58507571D01*
X201798184Y-58576300D01*
X202080512Y-58590217D01*
X202360130Y-58548787D01*
X202626292Y-58453603D01*
X202751514Y-58386671D01*
X202823097Y-58142702D01*
X202010000Y-57329605D01*
X201196903Y-58142702D01*
X199156694Y-58142702D01*
X199234637Y-58064759D01*
X199391680Y-57829727D01*
X199499853Y-57568574D01*
X199555000Y-57291335D01*
X199555000Y-57220512D01*
X200569783Y-57220512D01*
X200611213Y-57500130D01*
X200706397Y-57766292D01*
X200773329Y-57891514D01*
X201017298Y-57963097D01*
X201830395Y-57150000D01*
X202189605Y-57150000D01*
X203002702Y-57963097D01*
X203246671Y-57891514D01*
X203367571Y-57636004D01*
X203436300Y-57361816D01*
X203450217Y-57079488D01*
X203408787Y-56799870D01*
X203313603Y-56533708D01*
X203246671Y-56408486D01*
X203002702Y-56336903D01*
X202189605Y-57150000D01*
X201830395Y-57150000D01*
X201017298Y-56336903D01*
X200773329Y-56408486D01*
X200652429Y-56663996D01*
X200583700Y-56938184D01*
X200569783Y-57220512D01*
X199555000Y-57220512D01*
X199555000Y-57008665D01*
X199499853Y-56731426D01*
X199391680Y-56470273D01*
X199234637Y-56235241D01*
X199156694Y-56157298D01*
X201196903Y-56157298D01*
X202010000Y-56970395D01*
X202823097Y-56157298D01*
X202751514Y-55913329D01*
X202496004Y-55792429D01*
X202221816Y-55723700D01*
X201939488Y-55709783D01*
X201659870Y-55751213D01*
X201393708Y-55846397D01*
X201268486Y-55913329D01*
X201196903Y-56157298D01*
X199156694Y-56157298D01*
X199034759Y-56035363D01*
X198799727Y-55878320D01*
X198538574Y-55770147D01*
X198261335Y-55715000D01*
X197978665Y-55715000D01*
X197701426Y-55770147D01*
X197440273Y-55878320D01*
X197205241Y-56035363D01*
X197005363Y-56235241D01*
X196848320Y-56470273D01*
X196740147Y-56731426D01*
X196685000Y-57008665D01*
X196685000Y-57291335D01*
X196740147Y-57568574D01*
X196848320Y-57829727D01*
X197005363Y-58064759D01*
X197205241Y-58264637D01*
X197437759Y-58420000D01*
X197205241Y-58575363D01*
X197005363Y-58775241D01*
X196848320Y-59010273D01*
X196740147Y-59271426D01*
X196685000Y-59548665D01*
X196685000Y-59831335D01*
X196721312Y-60013886D01*
X192529003Y-64206196D01*
X192499999Y-64229999D01*
X192444871Y-64297174D01*
X192405026Y-64345724D01*
X192369008Y-64413109D01*
X192334454Y-64477754D01*
X192290997Y-64621015D01*
X192280000Y-64732668D01*
X192280000Y-64732678D01*
X192276324Y-64770000D01*
X192280000Y-64807322D01*
X192280001Y-83862667D01*
X192276324Y-83900000D01*
X192290998Y-84048985D01*
X192334454Y-84192246D01*
X192405026Y-84324276D01*
X192454413Y-84384453D01*
X192500000Y-84440001D01*
X192528998Y-84463799D01*
X196244213Y-88179015D01*
X196179361Y-88335581D01*
X196105000Y-88709419D01*
X196105000Y-89090581D01*
X196179361Y-89464419D01*
X196325225Y-89816566D01*
X196536987Y-90133491D01*
X196806509Y-90403013D01*
X197123434Y-90614775D01*
X197244739Y-90665021D01*
X194774326Y-90665021D01*
X194791185Y-90651185D01*
X194870537Y-90554494D01*
X194929502Y-90444180D01*
X194965812Y-90324482D01*
X194978072Y-90200000D01*
X194978072Y-87600000D01*
X194965812Y-87475518D01*
X194929502Y-87355820D01*
X194870537Y-87245506D01*
X194791185Y-87148815D01*
X194694494Y-87069463D01*
X194584180Y-87010498D01*
X194464482Y-86974188D01*
X194340000Y-86961928D01*
X191740000Y-86961928D01*
X191615518Y-86974188D01*
X191495820Y-87010498D01*
X191385506Y-87069463D01*
X191288815Y-87148815D01*
X191209463Y-87245506D01*
X191150498Y-87355820D01*
X191114188Y-87475518D01*
X191101928Y-87600000D01*
X191101928Y-90200000D01*
X191114188Y-90324482D01*
X191150498Y-90444180D01*
X191209463Y-90554494D01*
X191288815Y-90651185D01*
X191385506Y-90730537D01*
X191495820Y-90789502D01*
X191615518Y-90825812D01*
X191740000Y-90838072D01*
X192385674Y-90838072D01*
X192405026Y-90874276D01*
X192430688Y-90905545D01*
X192499999Y-90990001D01*
X192529002Y-91013804D01*
X193451222Y-91936024D01*
X193475020Y-91965022D01*
X193504018Y-91988820D01*
X193590744Y-92059995D01*
X193722774Y-92130567D01*
X193866035Y-92174024D01*
X193977688Y-92185021D01*
X193977698Y-92185021D01*
X194015021Y-92188697D01*
X194052344Y-92185021D01*
X230742659Y-92185021D01*
X230779981Y-92188697D01*
X230817303Y-92185021D01*
X230817314Y-92185021D01*
X230928967Y-92174024D01*
X231072228Y-92130567D01*
X231204257Y-92059995D01*
X231319982Y-91965022D01*
X231343785Y-91936018D01*
X233036004Y-90243800D01*
X233065002Y-90220002D01*
X233136000Y-90133491D01*
X233159975Y-90104278D01*
X233230547Y-89972248D01*
X233240206Y-89940405D01*
X233274004Y-89828987D01*
X233285001Y-89717334D01*
X233285001Y-89717324D01*
X233288677Y-89680001D01*
X233285001Y-89642678D01*
X233285001Y-88157324D01*
X233288677Y-88119999D01*
X233285001Y-88082674D01*
X233285001Y-88082666D01*
X233274004Y-87971013D01*
X233230547Y-87827752D01*
X233159975Y-87695723D01*
X233065002Y-87579998D01*
X233036005Y-87556201D01*
X232044999Y-86565196D01*
X232044999Y-81400509D01*
X232268665Y-81445000D01*
X232551335Y-81445000D01*
X232828574Y-81389853D01*
X233089727Y-81281680D01*
X233324759Y-81124637D01*
X233524637Y-80924759D01*
X233681680Y-80689727D01*
X233789853Y-80428574D01*
X233845000Y-80151335D01*
X233845000Y-79868665D01*
X233808688Y-79686114D01*
X234823000Y-78671803D01*
X234823000Y-93853000D01*
X189357000Y-93853000D01*
X189357000Y-80866188D01*
X189436481Y-80973414D01*
X189644869Y-81162385D01*
X189886119Y-81307070D01*
X190150960Y-81401909D01*
X190373000Y-81280624D01*
X190373000Y-80137000D01*
X190627000Y-80137000D01*
X190627000Y-81280624D01*
X190849040Y-81401909D01*
X191113881Y-81307070D01*
X191355131Y-81162385D01*
X191563519Y-80973414D01*
X191731037Y-80747420D01*
X191851246Y-80493087D01*
X191891904Y-80359039D01*
X191769915Y-80137000D01*
X190627000Y-80137000D01*
X190373000Y-80137000D01*
X190353000Y-80137000D01*
X190353000Y-79883000D01*
X190373000Y-79883000D01*
X190373000Y-79863000D01*
X190627000Y-79863000D01*
X190627000Y-79883000D01*
X191769915Y-79883000D01*
X191891904Y-79660961D01*
X191851246Y-79526913D01*
X191731037Y-79272580D01*
X191563519Y-79046586D01*
X191355131Y-78857615D01*
X191169135Y-78746067D01*
X191179727Y-78741680D01*
X191414759Y-78584637D01*
X191614637Y-78384759D01*
X191771680Y-78149727D01*
X191879853Y-77888574D01*
X191935000Y-77611335D01*
X191935000Y-77328665D01*
X191879853Y-77051426D01*
X191771680Y-76790273D01*
X191614637Y-76555241D01*
X191414759Y-76355363D01*
X191182241Y-76200000D01*
X191414759Y-76044637D01*
X191614637Y-75844759D01*
X191771680Y-75609727D01*
X191879853Y-75348574D01*
X191935000Y-75071335D01*
X191935000Y-74788665D01*
X191879853Y-74511426D01*
X191771680Y-74250273D01*
X191614637Y-74015241D01*
X191414759Y-73815363D01*
X191182241Y-73660000D01*
X191414759Y-73504637D01*
X191614637Y-73304759D01*
X191771680Y-73069727D01*
X191879853Y-72808574D01*
X191935000Y-72531335D01*
X191935000Y-72248665D01*
X191879853Y-71971426D01*
X191771680Y-71710273D01*
X191614637Y-71475241D01*
X191414759Y-71275363D01*
X191182241Y-71120000D01*
X191414759Y-70964637D01*
X191614637Y-70764759D01*
X191771680Y-70529727D01*
X191879853Y-70268574D01*
X191935000Y-69991335D01*
X191935000Y-69708665D01*
X191879853Y-69431426D01*
X191771680Y-69170273D01*
X191614637Y-68935241D01*
X191414759Y-68735363D01*
X191182241Y-68580000D01*
X191414759Y-68424637D01*
X191614637Y-68224759D01*
X191771680Y-67989727D01*
X191879853Y-67728574D01*
X191935000Y-67451335D01*
X191935000Y-67168665D01*
X191879853Y-66891426D01*
X191771680Y-66630273D01*
X191614637Y-66395241D01*
X191414759Y-66195363D01*
X191182241Y-66040000D01*
X191414759Y-65884637D01*
X191614637Y-65684759D01*
X191771680Y-65449727D01*
X191879853Y-65188574D01*
X191935000Y-64911335D01*
X191935000Y-64628665D01*
X191879853Y-64351426D01*
X191771680Y-64090273D01*
X191614637Y-63855241D01*
X191414759Y-63655363D01*
X191182241Y-63500000D01*
X191414759Y-63344637D01*
X191614637Y-63144759D01*
X191771680Y-62909727D01*
X191879853Y-62648574D01*
X191935000Y-62371335D01*
X191935000Y-62088665D01*
X191879853Y-61811426D01*
X191771680Y-61550273D01*
X191614637Y-61315241D01*
X191414759Y-61115363D01*
X191182241Y-60960000D01*
X191414759Y-60804637D01*
X191614637Y-60604759D01*
X191771680Y-60369727D01*
X191879853Y-60108574D01*
X191935000Y-59831335D01*
X191935000Y-59548665D01*
X191879853Y-59271426D01*
X191771680Y-59010273D01*
X191614637Y-58775241D01*
X191416039Y-58576643D01*
X191424482Y-58575812D01*
X191544180Y-58539502D01*
X191654494Y-58480537D01*
X191751185Y-58401185D01*
X191830537Y-58304494D01*
X191889502Y-58194180D01*
X191925812Y-58074482D01*
X191938072Y-57950000D01*
X191935000Y-57435750D01*
X191776250Y-57277000D01*
X190627000Y-57277000D01*
X190627000Y-57297000D01*
X190373000Y-57297000D01*
X190373000Y-57277000D01*
X190353000Y-57277000D01*
X190353000Y-57023000D01*
X190373000Y-57023000D01*
X190373000Y-55873750D01*
X190627000Y-55873750D01*
X190627000Y-57023000D01*
X191776250Y-57023000D01*
X191935000Y-56864250D01*
X191938072Y-56350000D01*
X191925812Y-56225518D01*
X191889502Y-56105820D01*
X191830537Y-55995506D01*
X191751185Y-55898815D01*
X191654494Y-55819463D01*
X191544180Y-55760498D01*
X191424482Y-55724188D01*
X191300000Y-55711928D01*
X190785750Y-55715000D01*
X190627000Y-55873750D01*
X190373000Y-55873750D01*
X190214250Y-55715000D01*
X189700000Y-55711928D01*
X189575518Y-55724188D01*
X189455820Y-55760498D01*
X189357000Y-55813319D01*
X189357000Y-51672311D01*
X189385363Y-51714759D01*
X189585241Y-51914637D01*
X189820273Y-52071680D01*
X190081426Y-52179853D01*
X190358665Y-52235000D01*
X190641335Y-52235000D01*
X190918574Y-52179853D01*
X191179727Y-52071680D01*
X191414759Y-51914637D01*
X191614637Y-51714759D01*
X191771680Y-51479727D01*
X191879853Y-51218574D01*
X191935000Y-50941335D01*
X191935000Y-50658665D01*
X191879853Y-50381426D01*
X191771680Y-50120273D01*
X191614637Y-49885241D01*
X191414759Y-49685363D01*
X191182241Y-49530000D01*
X191414759Y-49374637D01*
X191614637Y-49174759D01*
X191771680Y-48939727D01*
X191879853Y-48678574D01*
X191935000Y-48401335D01*
X191935000Y-48118665D01*
X191879853Y-47841426D01*
X191771680Y-47580273D01*
X191614637Y-47345241D01*
X191414759Y-47145363D01*
X191182241Y-46990000D01*
X191414759Y-46834637D01*
X191614637Y-46634759D01*
X191771680Y-46399727D01*
X191879853Y-46138574D01*
X191935000Y-45861335D01*
X191935000Y-45578665D01*
X191879853Y-45301426D01*
X191771680Y-45040273D01*
X191614637Y-44805241D01*
X191414759Y-44605363D01*
X191182241Y-44450000D01*
X191414759Y-44294637D01*
X191614637Y-44094759D01*
X191771680Y-43859727D01*
X191879853Y-43598574D01*
X191935000Y-43321335D01*
X191935000Y-43038665D01*
X191879853Y-42761426D01*
X191771680Y-42500273D01*
X191614637Y-42265241D01*
X191414759Y-42065363D01*
X191182241Y-41910000D01*
X191414759Y-41754637D01*
X191614637Y-41554759D01*
X191771680Y-41319727D01*
X191879853Y-41058574D01*
X191935000Y-40781335D01*
X191935000Y-40498665D01*
X191879853Y-40221426D01*
X191771680Y-39960273D01*
X191614637Y-39725241D01*
X191414759Y-39525363D01*
X191182241Y-39370000D01*
X191414759Y-39214637D01*
X191614637Y-39014759D01*
X191771680Y-38779727D01*
X191879853Y-38518574D01*
X191935000Y-38241335D01*
X191935000Y-37958665D01*
X191879853Y-37681426D01*
X191771680Y-37420273D01*
X191614637Y-37185241D01*
X191414759Y-36985363D01*
X191182241Y-36830000D01*
X191414759Y-36674637D01*
X191614637Y-36474759D01*
X191771680Y-36239727D01*
X191879853Y-35978574D01*
X191935000Y-35701335D01*
X191935000Y-35418665D01*
X191893685Y-35210961D01*
X196728096Y-35210961D01*
X196850085Y-35433000D01*
X197993000Y-35433000D01*
X197993000Y-34289376D01*
X198247000Y-34289376D01*
X198247000Y-35433000D01*
X199389915Y-35433000D01*
X199511904Y-35210961D01*
X199471246Y-35076913D01*
X199351037Y-34822580D01*
X199304650Y-34760000D01*
X203031928Y-34760000D01*
X203035000Y-35274250D01*
X203193750Y-35433000D01*
X204343000Y-35433000D01*
X204343000Y-34283750D01*
X204597000Y-34283750D01*
X204597000Y-35433000D01*
X205746250Y-35433000D01*
X205905000Y-35274250D01*
X205908072Y-34760000D01*
X205895812Y-34635518D01*
X205859502Y-34515820D01*
X205800537Y-34405506D01*
X205721185Y-34308815D01*
X205624494Y-34229463D01*
X205514180Y-34170498D01*
X205394482Y-34134188D01*
X205270000Y-34121928D01*
X204755750Y-34125000D01*
X204597000Y-34283750D01*
X204343000Y-34283750D01*
X204184250Y-34125000D01*
X203670000Y-34121928D01*
X203545518Y-34134188D01*
X203425820Y-34170498D01*
X203315506Y-34229463D01*
X203218815Y-34308815D01*
X203139463Y-34405506D01*
X203080498Y-34515820D01*
X203044188Y-34635518D01*
X203031928Y-34760000D01*
X199304650Y-34760000D01*
X199183519Y-34596586D01*
X198975131Y-34407615D01*
X198733881Y-34262930D01*
X198469040Y-34168091D01*
X198247000Y-34289376D01*
X197993000Y-34289376D01*
X197770960Y-34168091D01*
X197506119Y-34262930D01*
X197264869Y-34407615D01*
X197056481Y-34596586D01*
X196888963Y-34822580D01*
X196768754Y-35076913D01*
X196728096Y-35210961D01*
X191893685Y-35210961D01*
X191879853Y-35141426D01*
X191771680Y-34880273D01*
X191614637Y-34645241D01*
X191414759Y-34445363D01*
X191179727Y-34288320D01*
X190918574Y-34180147D01*
X190641335Y-34125000D01*
X190358665Y-34125000D01*
X190081426Y-34180147D01*
X189820273Y-34288320D01*
X189585241Y-34445363D01*
X189385363Y-34645241D01*
X189357000Y-34687689D01*
X189357000Y-33147000D01*
X234823000Y-33147000D01*
X234823000Y-54678198D01*
G37*
X234823000Y-54678198D02*
X232973804Y-52829003D01*
X232950001Y-52799999D01*
X232834276Y-52705026D01*
X232702247Y-52634454D01*
X232558986Y-52590997D01*
X232447333Y-52580000D01*
X232447322Y-52580000D01*
X232410000Y-52576324D01*
X232372678Y-52580000D01*
X221017322Y-52580000D01*
X220979999Y-52576324D01*
X220942677Y-52580000D01*
X220942667Y-52580000D01*
X220831014Y-52590997D01*
X220687753Y-52634454D01*
X220555723Y-52705026D01*
X220472083Y-52773668D01*
X220439999Y-52799999D01*
X220416201Y-52828997D01*
X218608072Y-54637126D01*
X218608072Y-53810000D01*
X218595812Y-53685518D01*
X218559502Y-53565820D01*
X218500537Y-53455506D01*
X218421185Y-53358815D01*
X218324494Y-53279463D01*
X218214180Y-53220498D01*
X218094482Y-53184188D01*
X217970000Y-53171928D01*
X216806730Y-53171928D01*
X213488688Y-49853887D01*
X213525000Y-49671335D01*
X213525000Y-49388665D01*
X213488688Y-49206114D01*
X215141008Y-47553795D01*
X215170001Y-47530001D01*
X215193795Y-47501008D01*
X215193799Y-47501004D01*
X215264973Y-47414277D01*
X215264974Y-47414276D01*
X215335546Y-47282247D01*
X215379003Y-47138986D01*
X215390000Y-47027333D01*
X215390000Y-47027324D01*
X215393676Y-46990001D01*
X215390000Y-46952678D01*
X215390000Y-41947322D01*
X215393676Y-41909999D01*
X215390000Y-41872676D01*
X215390000Y-41872667D01*
X215379003Y-41761014D01*
X215335546Y-41617753D01*
X215264974Y-41485724D01*
X215170001Y-41369999D01*
X215141004Y-41346202D01*
X213923804Y-40129003D01*
X213900001Y-40099999D01*
X213784276Y-40005026D01*
X213652247Y-39934454D01*
X213508986Y-39890997D01*
X213397333Y-39880000D01*
X213397322Y-39880000D01*
X213360000Y-39876324D01*
X213322678Y-39880000D01*
X213308043Y-39880000D01*
X213204637Y-39725241D01*
X213004759Y-39525363D01*
X212772241Y-39370000D01*
X213004759Y-39214637D01*
X213202297Y-39017099D01*
X217041312Y-42856114D01*
X217005000Y-43038665D01*
X217005000Y-43321335D01*
X217060147Y-43598574D01*
X217168320Y-43859727D01*
X217325363Y-44094759D01*
X217525241Y-44294637D01*
X217680000Y-44398044D01*
X217680001Y-48222667D01*
X217676324Y-48260000D01*
X217680001Y-48297333D01*
X217690998Y-48408986D01*
X217704180Y-48452442D01*
X217734454Y-48552246D01*
X217805026Y-48684276D01*
X217872362Y-48766324D01*
X217900000Y-48800001D01*
X217928998Y-48823799D01*
X218311312Y-49206114D01*
X218275000Y-49388665D01*
X218275000Y-49671335D01*
X218330147Y-49948574D01*
X218438320Y-50209727D01*
X218595363Y-50444759D01*
X218795241Y-50644637D01*
X219030273Y-50801680D01*
X219291426Y-50909853D01*
X219568665Y-50965000D01*
X219851335Y-50965000D01*
X220128574Y-50909853D01*
X220389727Y-50801680D01*
X220624759Y-50644637D01*
X220824637Y-50444759D01*
X220981680Y-50209727D01*
X221089853Y-49948574D01*
X221145000Y-49671335D01*
X221145000Y-49388665D01*
X221089853Y-49111426D01*
X220981680Y-48850273D01*
X220824637Y-48615241D01*
X220624759Y-48415363D01*
X220389727Y-48258320D01*
X220128574Y-48150147D01*
X219851335Y-48095000D01*
X219568665Y-48095000D01*
X219386114Y-48131312D01*
X219200000Y-47945199D01*
X219200000Y-46989224D01*
X227430381Y-46989224D01*
X227562317Y-47284312D01*
X227903045Y-47455159D01*
X228270557Y-47556250D01*
X228650729Y-47583701D01*
X229028951Y-47536457D01*
X229390690Y-47416333D01*
X229637683Y-47284312D01*
X229769619Y-46989224D01*
X228600000Y-45819605D01*
X227430381Y-46989224D01*
X219200000Y-46989224D01*
X219200000Y-45690729D01*
X226656299Y-45690729D01*
X226703543Y-46068951D01*
X226823667Y-46430690D01*
X226955688Y-46677683D01*
X227250776Y-46809619D01*
X228420395Y-45640000D01*
X228779605Y-45640000D01*
X229949224Y-46809619D01*
X230244312Y-46677683D01*
X230415159Y-46336955D01*
X230516250Y-45969443D01*
X230543701Y-45589271D01*
X230496457Y-45211049D01*
X230376333Y-44849310D01*
X230244312Y-44602317D01*
X229949224Y-44470381D01*
X228779605Y-45640000D01*
X228420395Y-45640000D01*
X227250776Y-44470381D01*
X226955688Y-44602317D01*
X226784841Y-44943045D01*
X226683750Y-45310557D01*
X226656299Y-45690729D01*
X219200000Y-45690729D01*
X219200000Y-44398043D01*
X219354759Y-44294637D01*
X219358620Y-44290776D01*
X227430381Y-44290776D01*
X228600000Y-45460395D01*
X229769619Y-44290776D01*
X229637683Y-43995688D01*
X229296955Y-43824841D01*
X228929443Y-43723750D01*
X228549271Y-43696299D01*
X228171049Y-43743543D01*
X227809310Y-43863667D01*
X227562317Y-43995688D01*
X227430381Y-44290776D01*
X219358620Y-44290776D01*
X219554637Y-44094759D01*
X219711680Y-43859727D01*
X219819853Y-43598574D01*
X219875000Y-43321335D01*
X219875000Y-43038665D01*
X219819853Y-42761426D01*
X219711680Y-42500273D01*
X219554637Y-42265241D01*
X219354759Y-42065363D01*
X219119727Y-41908320D01*
X218858574Y-41800147D01*
X218581335Y-41745000D01*
X218298665Y-41745000D01*
X218116114Y-41781312D01*
X215674802Y-39340000D01*
X226661928Y-39340000D01*
X226661928Y-41940000D01*
X226674188Y-42064482D01*
X226710498Y-42184180D01*
X226769463Y-42294494D01*
X226848815Y-42391185D01*
X226945506Y-42470537D01*
X227055820Y-42529502D01*
X227175518Y-42565812D01*
X227300000Y-42578072D01*
X229900000Y-42578072D01*
X230024482Y-42565812D01*
X230144180Y-42529502D01*
X230254494Y-42470537D01*
X230351185Y-42391185D01*
X230430537Y-42294494D01*
X230489502Y-42184180D01*
X230525812Y-42064482D01*
X230538072Y-41940000D01*
X230538072Y-39340000D01*
X230525812Y-39215518D01*
X230489502Y-39095820D01*
X230430537Y-38985506D01*
X230351185Y-38888815D01*
X230254494Y-38809463D01*
X230144180Y-38750498D01*
X230024482Y-38714188D01*
X229900000Y-38701928D01*
X227300000Y-38701928D01*
X227175518Y-38714188D01*
X227055820Y-38750498D01*
X226945506Y-38809463D01*
X226848815Y-38888815D01*
X226769463Y-38985506D01*
X226710498Y-39095820D01*
X226674188Y-39215518D01*
X226661928Y-39340000D01*
X215674802Y-39340000D01*
X213923804Y-37589003D01*
X213900001Y-37559999D01*
X213784276Y-37465026D01*
X213652247Y-37394454D01*
X213508986Y-37350997D01*
X213397333Y-37340000D01*
X213397322Y-37340000D01*
X213360000Y-37336324D01*
X213322678Y-37340000D01*
X213308043Y-37340000D01*
X213204637Y-37185241D01*
X213004759Y-36985363D01*
X212772241Y-36830000D01*
X213004759Y-36674637D01*
X213204637Y-36474759D01*
X213361680Y-36239727D01*
X213469853Y-35978574D01*
X213525000Y-35701335D01*
X213525000Y-35418665D01*
X217005000Y-35418665D01*
X217005000Y-35701335D01*
X217060147Y-35978574D01*
X217168320Y-36239727D01*
X217325363Y-36474759D01*
X217525241Y-36674637D01*
X217760273Y-36831680D01*
X218021426Y-36939853D01*
X218298665Y-36995000D01*
X218581335Y-36995000D01*
X218858574Y-36939853D01*
X219119727Y-36831680D01*
X219354759Y-36674637D01*
X219554637Y-36474759D01*
X219711680Y-36239727D01*
X219819853Y-35978574D01*
X219875000Y-35701335D01*
X219875000Y-35418665D01*
X219819853Y-35141426D01*
X219711680Y-34880273D01*
X219554637Y-34645241D01*
X219354759Y-34445363D01*
X219119727Y-34288320D01*
X218858574Y-34180147D01*
X218581335Y-34125000D01*
X218298665Y-34125000D01*
X218021426Y-34180147D01*
X217760273Y-34288320D01*
X217525241Y-34445363D01*
X217325363Y-34645241D01*
X217168320Y-34880273D01*
X217060147Y-35141426D01*
X217005000Y-35418665D01*
X213525000Y-35418665D01*
X213469853Y-35141426D01*
X213361680Y-34880273D01*
X213204637Y-34645241D01*
X213004759Y-34445363D01*
X212769727Y-34288320D01*
X212508574Y-34180147D01*
X212231335Y-34125000D01*
X211948665Y-34125000D01*
X211671426Y-34180147D01*
X211410273Y-34288320D01*
X211175241Y-34445363D01*
X210975363Y-34645241D01*
X210818320Y-34880273D01*
X210710147Y-35141426D01*
X210655000Y-35418665D01*
X210655000Y-35701335D01*
X210710147Y-35978574D01*
X210818320Y-36239727D01*
X210975363Y-36474759D01*
X211175241Y-36674637D01*
X211407759Y-36830000D01*
X211175241Y-36985363D01*
X210975363Y-37185241D01*
X210818320Y-37420273D01*
X210710147Y-37681426D01*
X210655000Y-37958665D01*
X210655000Y-38130199D01*
X210113804Y-37589003D01*
X210090001Y-37559999D01*
X209974276Y-37465026D01*
X209842247Y-37394454D01*
X209698986Y-37350997D01*
X209587333Y-37340000D01*
X209587322Y-37340000D01*
X209550000Y-37336324D01*
X209512678Y-37340000D01*
X205688043Y-37340000D01*
X205584637Y-37185241D01*
X205386039Y-36986643D01*
X205394482Y-36985812D01*
X205514180Y-36949502D01*
X205624494Y-36890537D01*
X205721185Y-36811185D01*
X205800537Y-36714494D01*
X205859502Y-36604180D01*
X205895812Y-36484482D01*
X205908072Y-36360000D01*
X205905000Y-35845750D01*
X205746250Y-35687000D01*
X204597000Y-35687000D01*
X204597000Y-35707000D01*
X204343000Y-35707000D01*
X204343000Y-35687000D01*
X203193750Y-35687000D01*
X203035000Y-35845750D01*
X203031928Y-36360000D01*
X203044188Y-36484482D01*
X203080498Y-36604180D01*
X203139463Y-36714494D01*
X203218815Y-36811185D01*
X203315506Y-36890537D01*
X203425820Y-36949502D01*
X203545518Y-36985812D01*
X203553961Y-36986643D01*
X203355363Y-37185241D01*
X203198320Y-37420273D01*
X203090147Y-37681426D01*
X203035000Y-37958665D01*
X203035000Y-38241335D01*
X203090147Y-38518574D01*
X203198320Y-38779727D01*
X203355363Y-39014759D01*
X203555241Y-39214637D01*
X203787759Y-39370000D01*
X203555241Y-39525363D01*
X203355363Y-39725241D01*
X203251957Y-39880000D01*
X203237323Y-39880000D01*
X203200000Y-39876324D01*
X203162677Y-39880000D01*
X203162667Y-39880000D01*
X203051014Y-39890997D01*
X202909912Y-39933799D01*
X202907753Y-39934454D01*
X202775723Y-40005026D01*
X202692083Y-40073668D01*
X202659999Y-40099999D01*
X202636202Y-40128996D01*
X199555000Y-43210199D01*
X199555000Y-43038665D01*
X199499853Y-42761426D01*
X199391680Y-42500273D01*
X199234637Y-42265241D01*
X199034759Y-42065363D01*
X198802241Y-41910000D01*
X199034759Y-41754637D01*
X199234637Y-41554759D01*
X199391680Y-41319727D01*
X199499853Y-41058574D01*
X199555000Y-40781335D01*
X199555000Y-40498665D01*
X199499853Y-40221426D01*
X199391680Y-39960273D01*
X199234637Y-39725241D01*
X199034759Y-39525363D01*
X198802241Y-39370000D01*
X199034759Y-39214637D01*
X199234637Y-39014759D01*
X199391680Y-38779727D01*
X199499853Y-38518574D01*
X199555000Y-38241335D01*
X199555000Y-37958665D01*
X199499853Y-37681426D01*
X199391680Y-37420273D01*
X199234637Y-37185241D01*
X199034759Y-36985363D01*
X198799727Y-36828320D01*
X198789135Y-36823933D01*
X198975131Y-36712385D01*
X199183519Y-36523414D01*
X199351037Y-36297420D01*
X199471246Y-36043087D01*
X199511904Y-35909039D01*
X199389915Y-35687000D01*
X198247000Y-35687000D01*
X198247000Y-35707000D01*
X197993000Y-35707000D01*
X197993000Y-35687000D01*
X196850085Y-35687000D01*
X196728096Y-35909039D01*
X196768754Y-36043087D01*
X196888963Y-36297420D01*
X197056481Y-36523414D01*
X197264869Y-36712385D01*
X197450865Y-36823933D01*
X197440273Y-36828320D01*
X197205241Y-36985363D01*
X197005363Y-37185241D01*
X196901957Y-37340000D01*
X196887322Y-37340000D01*
X196849999Y-37336324D01*
X196812676Y-37340000D01*
X196812667Y-37340000D01*
X196701014Y-37350997D01*
X196557753Y-37394454D01*
X196425724Y-37465026D01*
X196309999Y-37559999D01*
X196286201Y-37588997D01*
X195069003Y-38806196D01*
X195039999Y-38829999D01*
X194984871Y-38897174D01*
X194945026Y-38945724D01*
X194923762Y-38985506D01*
X194874454Y-39077754D01*
X194830997Y-39221015D01*
X194820000Y-39332668D01*
X194820000Y-39332678D01*
X194816324Y-39370000D01*
X194820000Y-39407323D01*
X194820001Y-45682668D01*
X194816324Y-45720000D01*
X194820001Y-45757333D01*
X194830245Y-45861335D01*
X194830998Y-45868985D01*
X194874454Y-46012246D01*
X194945026Y-46144276D01*
X195012362Y-46226324D01*
X195040000Y-46260001D01*
X195068998Y-46283799D01*
X196721312Y-47936114D01*
X196685000Y-48118665D01*
X196685000Y-48401335D01*
X196740147Y-48678574D01*
X196848320Y-48939727D01*
X197005363Y-49174759D01*
X197203961Y-49373357D01*
X197195518Y-49374188D01*
X197075820Y-49410498D01*
X196965506Y-49469463D01*
X196868815Y-49548815D01*
X196789463Y-49645506D01*
X196730498Y-49755820D01*
X196694188Y-49875518D01*
X196681928Y-50000000D01*
X196681928Y-51600000D01*
X196694188Y-51724482D01*
X196730498Y-51844180D01*
X196789463Y-51954494D01*
X196868815Y-52051185D01*
X196965506Y-52130537D01*
X197075820Y-52189502D01*
X197195518Y-52225812D01*
X197320000Y-52238072D01*
X198920000Y-52238072D01*
X199044482Y-52225812D01*
X199164180Y-52189502D01*
X199274494Y-52130537D01*
X199371185Y-52051185D01*
X199450537Y-51954494D01*
X199509502Y-51844180D01*
X199545812Y-51724482D01*
X199558072Y-51600000D01*
X199558072Y-50772873D01*
X203710000Y-54924802D01*
X203710001Y-59652668D01*
X203706324Y-59690000D01*
X203710001Y-59727333D01*
X203720245Y-59831335D01*
X203720998Y-59838985D01*
X203764454Y-59982246D01*
X203835026Y-60114276D01*
X203906201Y-60201002D01*
X203930000Y-60230001D01*
X203958998Y-60253799D01*
X206990198Y-63285000D01*
X206863740Y-63285000D01*
X206576842Y-63342068D01*
X206306589Y-63454010D01*
X206063368Y-63616525D01*
X205856525Y-63823368D01*
X205731822Y-64010000D01*
X200974803Y-64010000D01*
X199518688Y-62553886D01*
X199555000Y-62371335D01*
X199555000Y-62088665D01*
X199499853Y-61811426D01*
X199391680Y-61550273D01*
X199234637Y-61315241D01*
X199034759Y-61115363D01*
X198802241Y-60960000D01*
X199034759Y-60804637D01*
X199234637Y-60604759D01*
X199391680Y-60369727D01*
X199499853Y-60108574D01*
X199555000Y-59831335D01*
X199555000Y-59548665D01*
X199499853Y-59271426D01*
X199391680Y-59010273D01*
X199234637Y-58775241D01*
X199034759Y-58575363D01*
X198802241Y-58420000D01*
X199034759Y-58264637D01*
X199156694Y-58142702D01*
X201196903Y-58142702D01*
X201268486Y-58386671D01*
X201523996Y-58507571D01*
X201798184Y-58576300D01*
X202080512Y-58590217D01*
X202360130Y-58548787D01*
X202626292Y-58453603D01*
X202751514Y-58386671D01*
X202823097Y-58142702D01*
X202010000Y-57329605D01*
X201196903Y-58142702D01*
X199156694Y-58142702D01*
X199234637Y-58064759D01*
X199391680Y-57829727D01*
X199499853Y-57568574D01*
X199555000Y-57291335D01*
X199555000Y-57220512D01*
X200569783Y-57220512D01*
X200611213Y-57500130D01*
X200706397Y-57766292D01*
X200773329Y-57891514D01*
X201017298Y-57963097D01*
X201830395Y-57150000D01*
X202189605Y-57150000D01*
X203002702Y-57963097D01*
X203246671Y-57891514D01*
X203367571Y-57636004D01*
X203436300Y-57361816D01*
X203450217Y-57079488D01*
X203408787Y-56799870D01*
X203313603Y-56533708D01*
X203246671Y-56408486D01*
X203002702Y-56336903D01*
X202189605Y-57150000D01*
X201830395Y-57150000D01*
X201017298Y-56336903D01*
X200773329Y-56408486D01*
X200652429Y-56663996D01*
X200583700Y-56938184D01*
X200569783Y-57220512D01*
X199555000Y-57220512D01*
X199555000Y-57008665D01*
X199499853Y-56731426D01*
X199391680Y-56470273D01*
X199234637Y-56235241D01*
X199156694Y-56157298D01*
X201196903Y-56157298D01*
X202010000Y-56970395D01*
X202823097Y-56157298D01*
X202751514Y-55913329D01*
X202496004Y-55792429D01*
X202221816Y-55723700D01*
X201939488Y-55709783D01*
X201659870Y-55751213D01*
X201393708Y-55846397D01*
X201268486Y-55913329D01*
X201196903Y-56157298D01*
X199156694Y-56157298D01*
X199034759Y-56035363D01*
X198799727Y-55878320D01*
X198538574Y-55770147D01*
X198261335Y-55715000D01*
X197978665Y-55715000D01*
X197701426Y-55770147D01*
X197440273Y-55878320D01*
X197205241Y-56035363D01*
X197005363Y-56235241D01*
X196848320Y-56470273D01*
X196740147Y-56731426D01*
X196685000Y-57008665D01*
X196685000Y-57291335D01*
X196740147Y-57568574D01*
X196848320Y-57829727D01*
X197005363Y-58064759D01*
X197205241Y-58264637D01*
X197437759Y-58420000D01*
X197205241Y-58575363D01*
X197005363Y-58775241D01*
X196848320Y-59010273D01*
X196740147Y-59271426D01*
X196685000Y-59548665D01*
X196685000Y-59831335D01*
X196721312Y-60013886D01*
X192529003Y-64206196D01*
X192499999Y-64229999D01*
X192444871Y-64297174D01*
X192405026Y-64345724D01*
X192369008Y-64413109D01*
X192334454Y-64477754D01*
X192290997Y-64621015D01*
X192280000Y-64732668D01*
X192280000Y-64732678D01*
X192276324Y-64770000D01*
X192280000Y-64807322D01*
X192280001Y-83862667D01*
X192276324Y-83900000D01*
X192290998Y-84048985D01*
X192334454Y-84192246D01*
X192405026Y-84324276D01*
X192454413Y-84384453D01*
X192500000Y-84440001D01*
X192528998Y-84463799D01*
X196244213Y-88179015D01*
X196179361Y-88335581D01*
X196105000Y-88709419D01*
X196105000Y-89090581D01*
X196179361Y-89464419D01*
X196325225Y-89816566D01*
X196536987Y-90133491D01*
X196806509Y-90403013D01*
X197123434Y-90614775D01*
X197244739Y-90665021D01*
X194774326Y-90665021D01*
X194791185Y-90651185D01*
X194870537Y-90554494D01*
X194929502Y-90444180D01*
X194965812Y-90324482D01*
X194978072Y-90200000D01*
X194978072Y-87600000D01*
X194965812Y-87475518D01*
X194929502Y-87355820D01*
X194870537Y-87245506D01*
X194791185Y-87148815D01*
X194694494Y-87069463D01*
X194584180Y-87010498D01*
X194464482Y-86974188D01*
X194340000Y-86961928D01*
X191740000Y-86961928D01*
X191615518Y-86974188D01*
X191495820Y-87010498D01*
X191385506Y-87069463D01*
X191288815Y-87148815D01*
X191209463Y-87245506D01*
X191150498Y-87355820D01*
X191114188Y-87475518D01*
X191101928Y-87600000D01*
X191101928Y-90200000D01*
X191114188Y-90324482D01*
X191150498Y-90444180D01*
X191209463Y-90554494D01*
X191288815Y-90651185D01*
X191385506Y-90730537D01*
X191495820Y-90789502D01*
X191615518Y-90825812D01*
X191740000Y-90838072D01*
X192385674Y-90838072D01*
X192405026Y-90874276D01*
X192430688Y-90905545D01*
X192499999Y-90990001D01*
X192529002Y-91013804D01*
X193451222Y-91936024D01*
X193475020Y-91965022D01*
X193504018Y-91988820D01*
X193590744Y-92059995D01*
X193722774Y-92130567D01*
X193866035Y-92174024D01*
X193977688Y-92185021D01*
X193977698Y-92185021D01*
X194015021Y-92188697D01*
X194052344Y-92185021D01*
X230742659Y-92185021D01*
X230779981Y-92188697D01*
X230817303Y-92185021D01*
X230817314Y-92185021D01*
X230928967Y-92174024D01*
X231072228Y-92130567D01*
X231204257Y-92059995D01*
X231319982Y-91965022D01*
X231343785Y-91936018D01*
X233036004Y-90243800D01*
X233065002Y-90220002D01*
X233136000Y-90133491D01*
X233159975Y-90104278D01*
X233230547Y-89972248D01*
X233240206Y-89940405D01*
X233274004Y-89828987D01*
X233285001Y-89717334D01*
X233285001Y-89717324D01*
X233288677Y-89680001D01*
X233285001Y-89642678D01*
X233285001Y-88157324D01*
X233288677Y-88119999D01*
X233285001Y-88082674D01*
X233285001Y-88082666D01*
X233274004Y-87971013D01*
X233230547Y-87827752D01*
X233159975Y-87695723D01*
X233065002Y-87579998D01*
X233036005Y-87556201D01*
X232044999Y-86565196D01*
X232044999Y-81400509D01*
X232268665Y-81445000D01*
X232551335Y-81445000D01*
X232828574Y-81389853D01*
X233089727Y-81281680D01*
X233324759Y-81124637D01*
X233524637Y-80924759D01*
X233681680Y-80689727D01*
X233789853Y-80428574D01*
X233845000Y-80151335D01*
X233845000Y-79868665D01*
X233808688Y-79686114D01*
X234823000Y-78671803D01*
X234823000Y-93853000D01*
X189357000Y-93853000D01*
X189357000Y-80866188D01*
X189436481Y-80973414D01*
X189644869Y-81162385D01*
X189886119Y-81307070D01*
X190150960Y-81401909D01*
X190373000Y-81280624D01*
X190373000Y-80137000D01*
X190627000Y-80137000D01*
X190627000Y-81280624D01*
X190849040Y-81401909D01*
X191113881Y-81307070D01*
X191355131Y-81162385D01*
X191563519Y-80973414D01*
X191731037Y-80747420D01*
X191851246Y-80493087D01*
X191891904Y-80359039D01*
X191769915Y-80137000D01*
X190627000Y-80137000D01*
X190373000Y-80137000D01*
X190353000Y-80137000D01*
X190353000Y-79883000D01*
X190373000Y-79883000D01*
X190373000Y-79863000D01*
X190627000Y-79863000D01*
X190627000Y-79883000D01*
X191769915Y-79883000D01*
X191891904Y-79660961D01*
X191851246Y-79526913D01*
X191731037Y-79272580D01*
X191563519Y-79046586D01*
X191355131Y-78857615D01*
X191169135Y-78746067D01*
X191179727Y-78741680D01*
X191414759Y-78584637D01*
X191614637Y-78384759D01*
X191771680Y-78149727D01*
X191879853Y-77888574D01*
X191935000Y-77611335D01*
X191935000Y-77328665D01*
X191879853Y-77051426D01*
X191771680Y-76790273D01*
X191614637Y-76555241D01*
X191414759Y-76355363D01*
X191182241Y-76200000D01*
X191414759Y-76044637D01*
X191614637Y-75844759D01*
X191771680Y-75609727D01*
X191879853Y-75348574D01*
X191935000Y-75071335D01*
X191935000Y-74788665D01*
X191879853Y-74511426D01*
X191771680Y-74250273D01*
X191614637Y-74015241D01*
X191414759Y-73815363D01*
X191182241Y-73660000D01*
X191414759Y-73504637D01*
X191614637Y-73304759D01*
X191771680Y-73069727D01*
X191879853Y-72808574D01*
X191935000Y-72531335D01*
X191935000Y-72248665D01*
X191879853Y-71971426D01*
X191771680Y-71710273D01*
X191614637Y-71475241D01*
X191414759Y-71275363D01*
X191182241Y-71120000D01*
X191414759Y-70964637D01*
X191614637Y-70764759D01*
X191771680Y-70529727D01*
X191879853Y-70268574D01*
X191935000Y-69991335D01*
X191935000Y-69708665D01*
X191879853Y-69431426D01*
X191771680Y-69170273D01*
X191614637Y-68935241D01*
X191414759Y-68735363D01*
X191182241Y-68580000D01*
X191414759Y-68424637D01*
X191614637Y-68224759D01*
X191771680Y-67989727D01*
X191879853Y-67728574D01*
X191935000Y-67451335D01*
X191935000Y-67168665D01*
X191879853Y-66891426D01*
X191771680Y-66630273D01*
X191614637Y-66395241D01*
X191414759Y-66195363D01*
X191182241Y-66040000D01*
X191414759Y-65884637D01*
X191614637Y-65684759D01*
X191771680Y-65449727D01*
X191879853Y-65188574D01*
X191935000Y-64911335D01*
X191935000Y-64628665D01*
X191879853Y-64351426D01*
X191771680Y-64090273D01*
X191614637Y-63855241D01*
X191414759Y-63655363D01*
X191182241Y-63500000D01*
X191414759Y-63344637D01*
X191614637Y-63144759D01*
X191771680Y-62909727D01*
X191879853Y-62648574D01*
X191935000Y-62371335D01*
X191935000Y-62088665D01*
X191879853Y-61811426D01*
X191771680Y-61550273D01*
X191614637Y-61315241D01*
X191414759Y-61115363D01*
X191182241Y-60960000D01*
X191414759Y-60804637D01*
X191614637Y-60604759D01*
X191771680Y-60369727D01*
X191879853Y-60108574D01*
X191935000Y-59831335D01*
X191935000Y-59548665D01*
X191879853Y-59271426D01*
X191771680Y-59010273D01*
X191614637Y-58775241D01*
X191416039Y-58576643D01*
X191424482Y-58575812D01*
X191544180Y-58539502D01*
X191654494Y-58480537D01*
X191751185Y-58401185D01*
X191830537Y-58304494D01*
X191889502Y-58194180D01*
X191925812Y-58074482D01*
X191938072Y-57950000D01*
X191935000Y-57435750D01*
X191776250Y-57277000D01*
X190627000Y-57277000D01*
X190627000Y-57297000D01*
X190373000Y-57297000D01*
X190373000Y-57277000D01*
X190353000Y-57277000D01*
X190353000Y-57023000D01*
X190373000Y-57023000D01*
X190373000Y-55873750D01*
X190627000Y-55873750D01*
X190627000Y-57023000D01*
X191776250Y-57023000D01*
X191935000Y-56864250D01*
X191938072Y-56350000D01*
X191925812Y-56225518D01*
X191889502Y-56105820D01*
X191830537Y-55995506D01*
X191751185Y-55898815D01*
X191654494Y-55819463D01*
X191544180Y-55760498D01*
X191424482Y-55724188D01*
X191300000Y-55711928D01*
X190785750Y-55715000D01*
X190627000Y-55873750D01*
X190373000Y-55873750D01*
X190214250Y-55715000D01*
X189700000Y-55711928D01*
X189575518Y-55724188D01*
X189455820Y-55760498D01*
X189357000Y-55813319D01*
X189357000Y-51672311D01*
X189385363Y-51714759D01*
X189585241Y-51914637D01*
X189820273Y-52071680D01*
X190081426Y-52179853D01*
X190358665Y-52235000D01*
X190641335Y-52235000D01*
X190918574Y-52179853D01*
X191179727Y-52071680D01*
X191414759Y-51914637D01*
X191614637Y-51714759D01*
X191771680Y-51479727D01*
X191879853Y-51218574D01*
X191935000Y-50941335D01*
X191935000Y-50658665D01*
X191879853Y-50381426D01*
X191771680Y-50120273D01*
X191614637Y-49885241D01*
X191414759Y-49685363D01*
X191182241Y-49530000D01*
X191414759Y-49374637D01*
X191614637Y-49174759D01*
X191771680Y-48939727D01*
X191879853Y-48678574D01*
X191935000Y-48401335D01*
X191935000Y-48118665D01*
X191879853Y-47841426D01*
X191771680Y-47580273D01*
X191614637Y-47345241D01*
X191414759Y-47145363D01*
X191182241Y-46990000D01*
X191414759Y-46834637D01*
X191614637Y-46634759D01*
X191771680Y-46399727D01*
X191879853Y-46138574D01*
X191935000Y-45861335D01*
X191935000Y-45578665D01*
X191879853Y-45301426D01*
X191771680Y-45040273D01*
X191614637Y-44805241D01*
X191414759Y-44605363D01*
X191182241Y-44450000D01*
X191414759Y-44294637D01*
X191614637Y-44094759D01*
X191771680Y-43859727D01*
X191879853Y-43598574D01*
X191935000Y-43321335D01*
X191935000Y-43038665D01*
X191879853Y-42761426D01*
X191771680Y-42500273D01*
X191614637Y-42265241D01*
X191414759Y-42065363D01*
X191182241Y-41910000D01*
X191414759Y-41754637D01*
X191614637Y-41554759D01*
X191771680Y-41319727D01*
X191879853Y-41058574D01*
X191935000Y-40781335D01*
X191935000Y-40498665D01*
X191879853Y-40221426D01*
X191771680Y-39960273D01*
X191614637Y-39725241D01*
X191414759Y-39525363D01*
X191182241Y-39370000D01*
X191414759Y-39214637D01*
X191614637Y-39014759D01*
X191771680Y-38779727D01*
X191879853Y-38518574D01*
X191935000Y-38241335D01*
X191935000Y-37958665D01*
X191879853Y-37681426D01*
X191771680Y-37420273D01*
X191614637Y-37185241D01*
X191414759Y-36985363D01*
X191182241Y-36830000D01*
X191414759Y-36674637D01*
X191614637Y-36474759D01*
X191771680Y-36239727D01*
X191879853Y-35978574D01*
X191935000Y-35701335D01*
X191935000Y-35418665D01*
X191893685Y-35210961D01*
X196728096Y-35210961D01*
X196850085Y-35433000D01*
X197993000Y-35433000D01*
X197993000Y-34289376D01*
X198247000Y-34289376D01*
X198247000Y-35433000D01*
X199389915Y-35433000D01*
X199511904Y-35210961D01*
X199471246Y-35076913D01*
X199351037Y-34822580D01*
X199304650Y-34760000D01*
X203031928Y-34760000D01*
X203035000Y-35274250D01*
X203193750Y-35433000D01*
X204343000Y-35433000D01*
X204343000Y-34283750D01*
X204597000Y-34283750D01*
X204597000Y-35433000D01*
X205746250Y-35433000D01*
X205905000Y-35274250D01*
X205908072Y-34760000D01*
X205895812Y-34635518D01*
X205859502Y-34515820D01*
X205800537Y-34405506D01*
X205721185Y-34308815D01*
X205624494Y-34229463D01*
X205514180Y-34170498D01*
X205394482Y-34134188D01*
X205270000Y-34121928D01*
X204755750Y-34125000D01*
X204597000Y-34283750D01*
X204343000Y-34283750D01*
X204184250Y-34125000D01*
X203670000Y-34121928D01*
X203545518Y-34134188D01*
X203425820Y-34170498D01*
X203315506Y-34229463D01*
X203218815Y-34308815D01*
X203139463Y-34405506D01*
X203080498Y-34515820D01*
X203044188Y-34635518D01*
X203031928Y-34760000D01*
X199304650Y-34760000D01*
X199183519Y-34596586D01*
X198975131Y-34407615D01*
X198733881Y-34262930D01*
X198469040Y-34168091D01*
X198247000Y-34289376D01*
X197993000Y-34289376D01*
X197770960Y-34168091D01*
X197506119Y-34262930D01*
X197264869Y-34407615D01*
X197056481Y-34596586D01*
X196888963Y-34822580D01*
X196768754Y-35076913D01*
X196728096Y-35210961D01*
X191893685Y-35210961D01*
X191879853Y-35141426D01*
X191771680Y-34880273D01*
X191614637Y-34645241D01*
X191414759Y-34445363D01*
X191179727Y-34288320D01*
X190918574Y-34180147D01*
X190641335Y-34125000D01*
X190358665Y-34125000D01*
X190081426Y-34180147D01*
X189820273Y-34288320D01*
X189585241Y-34445363D01*
X189385363Y-34645241D01*
X189357000Y-34687689D01*
X189357000Y-33147000D01*
X234823000Y-33147000D01*
X234823000Y-54678198D01*
G36*
X234190000Y-56194803D02*
G01*
X234190001Y-77155196D01*
X233845000Y-77500197D01*
X233845000Y-77328665D01*
X233789853Y-77051426D01*
X233681680Y-76790273D01*
X233524637Y-76555241D01*
X233324759Y-76355363D01*
X233092241Y-76200000D01*
X233324759Y-76044637D01*
X233524637Y-75844759D01*
X233681680Y-75609727D01*
X233789853Y-75348574D01*
X233845000Y-75071335D01*
X233845000Y-74788665D01*
X233789853Y-74511426D01*
X233681680Y-74250273D01*
X233524637Y-74015241D01*
X233324759Y-73815363D01*
X233092241Y-73660000D01*
X233324759Y-73504637D01*
X233524637Y-73304759D01*
X233681680Y-73069727D01*
X233789853Y-72808574D01*
X233845000Y-72531335D01*
X233845000Y-72248665D01*
X233789853Y-71971426D01*
X233681680Y-71710273D01*
X233524637Y-71475241D01*
X233324759Y-71275363D01*
X233092241Y-71120000D01*
X233324759Y-70964637D01*
X233524637Y-70764759D01*
X233681680Y-70529727D01*
X233789853Y-70268574D01*
X233845000Y-69991335D01*
X233845000Y-69708665D01*
X233789853Y-69431426D01*
X233681680Y-69170273D01*
X233524637Y-68935241D01*
X233324759Y-68735363D01*
X233092241Y-68580000D01*
X233324759Y-68424637D01*
X233524637Y-68224759D01*
X233681680Y-67989727D01*
X233789853Y-67728574D01*
X233845000Y-67451335D01*
X233845000Y-67168665D01*
X233789853Y-66891426D01*
X233681680Y-66630273D01*
X233524637Y-66395241D01*
X233324759Y-66195363D01*
X233092241Y-66040000D01*
X233324759Y-65884637D01*
X233524637Y-65684759D01*
X233681680Y-65449727D01*
X233789853Y-65188574D01*
X233845000Y-64911335D01*
X233845000Y-64628665D01*
X233789853Y-64351426D01*
X233681680Y-64090273D01*
X233524637Y-63855241D01*
X233324759Y-63655363D01*
X233092241Y-63500000D01*
X233324759Y-63344637D01*
X233524637Y-63144759D01*
X233681680Y-62909727D01*
X233789853Y-62648574D01*
X233845000Y-62371335D01*
X233845000Y-62088665D01*
X233789853Y-61811426D01*
X233681680Y-61550273D01*
X233524637Y-61315241D01*
X233324759Y-61115363D01*
X233092241Y-60960000D01*
X233324759Y-60804637D01*
X233524637Y-60604759D01*
X233681680Y-60369727D01*
X233789853Y-60108574D01*
X233845000Y-59831335D01*
X233845000Y-59548665D01*
X233789853Y-59271426D01*
X233681680Y-59010273D01*
X233524637Y-58775241D01*
X233324759Y-58575363D01*
X233092241Y-58420000D01*
X233324759Y-58264637D01*
X233524637Y-58064759D01*
X233681680Y-57829727D01*
X233789853Y-57568574D01*
X233845000Y-57291335D01*
X233845000Y-57008665D01*
X233789853Y-56731426D01*
X233681680Y-56470273D01*
X233524637Y-56235241D01*
X233324759Y-56035363D01*
X233089727Y-55878320D01*
X232828574Y-55770147D01*
X232551335Y-55715000D01*
X232268665Y-55715000D01*
X231991426Y-55770147D01*
X231730273Y-55878320D01*
X231495241Y-56035363D01*
X231295363Y-56235241D01*
X231138320Y-56470273D01*
X231030147Y-56731426D01*
X230975000Y-57008665D01*
X230975000Y-57291335D01*
X231030147Y-57568574D01*
X231138320Y-57829727D01*
X231295363Y-58064759D01*
X231495241Y-58264637D01*
X231727759Y-58420000D01*
X231495241Y-58575363D01*
X231295363Y-58775241D01*
X231138320Y-59010273D01*
X231030147Y-59271426D01*
X230975000Y-59548665D01*
X230975000Y-59831335D01*
X231030147Y-60108574D01*
X231138320Y-60369727D01*
X231295363Y-60604759D01*
X231495241Y-60804637D01*
X231727759Y-60960000D01*
X231495241Y-61115363D01*
X231295363Y-61315241D01*
X231138320Y-61550273D01*
X231030147Y-61811426D01*
X230975000Y-62088665D01*
X230975000Y-62371335D01*
X231030147Y-62648574D01*
X231138320Y-62909727D01*
X231295363Y-63144759D01*
X231495241Y-63344637D01*
X231727759Y-63500000D01*
X231495241Y-63655363D01*
X231295363Y-63855241D01*
X231138320Y-64090273D01*
X231030147Y-64351426D01*
X230975000Y-64628665D01*
X230975000Y-64800198D01*
X226188688Y-60013887D01*
X226225000Y-59831335D01*
X226225000Y-59548665D01*
X226169853Y-59271426D01*
X226061680Y-59010273D01*
X225904637Y-58775241D01*
X225706039Y-58576643D01*
X225714482Y-58575812D01*
X225834180Y-58539502D01*
X225944494Y-58480537D01*
X226041185Y-58401185D01*
X226120537Y-58304494D01*
X226179502Y-58194180D01*
X226215812Y-58074482D01*
X226228072Y-57950000D01*
X226225000Y-57435750D01*
X226066250Y-57277000D01*
X224917000Y-57277000D01*
X224917000Y-57297000D01*
X224663000Y-57297000D01*
X224663000Y-57277000D01*
X223513750Y-57277000D01*
X223355000Y-57435750D01*
X223351928Y-57950000D01*
X223364188Y-58074482D01*
X223400498Y-58194180D01*
X223459463Y-58304494D01*
X223538815Y-58401185D01*
X223635506Y-58480537D01*
X223745820Y-58539502D01*
X223865518Y-58575812D01*
X223873961Y-58576643D01*
X223675363Y-58775241D01*
X223518320Y-59010273D01*
X223410147Y-59271426D01*
X223355000Y-59548665D01*
X223355000Y-59831335D01*
X223410147Y-60108574D01*
X223518320Y-60369727D01*
X223675363Y-60604759D01*
X223875241Y-60804637D01*
X224107759Y-60960000D01*
X223875241Y-61115363D01*
X223675363Y-61315241D01*
X223518320Y-61550273D01*
X223410147Y-61811426D01*
X223355000Y-62088665D01*
X223355000Y-62371335D01*
X223392533Y-62560023D01*
X223355027Y-62605723D01*
X223284455Y-62737753D01*
X223240999Y-62881014D01*
X223226325Y-63029999D01*
X223240999Y-63178984D01*
X223284455Y-63322245D01*
X223355027Y-63454275D01*
X223450000Y-63570000D01*
X223565725Y-63664973D01*
X223697755Y-63735545D01*
X223772413Y-63758191D01*
X223675363Y-63855241D01*
X223518320Y-64090273D01*
X223410147Y-64351426D01*
X223355000Y-64628665D01*
X223355000Y-64911335D01*
X223410147Y-65188574D01*
X223518320Y-65449727D01*
X223675363Y-65684759D01*
X223875241Y-65884637D01*
X224107759Y-66040000D01*
X223875241Y-66195363D01*
X223675363Y-66395241D01*
X223518320Y-66630273D01*
X223410147Y-66891426D01*
X223355000Y-67168665D01*
X223355000Y-67451335D01*
X223410147Y-67728574D01*
X223518320Y-67989727D01*
X223675363Y-68224759D01*
X223875241Y-68424637D01*
X224107759Y-68580000D01*
X223875241Y-68735363D01*
X223675363Y-68935241D01*
X223518320Y-69170273D01*
X223410147Y-69431426D01*
X223355000Y-69708665D01*
X223355000Y-69991335D01*
X223410147Y-70268574D01*
X223518320Y-70529727D01*
X223675363Y-70764759D01*
X223875241Y-70964637D01*
X224107759Y-71120000D01*
X223875241Y-71275363D01*
X223675363Y-71475241D01*
X223518320Y-71710273D01*
X223410147Y-71971426D01*
X223355000Y-72248665D01*
X223355000Y-72531335D01*
X223410147Y-72808574D01*
X223518320Y-73069727D01*
X223675363Y-73304759D01*
X223875241Y-73504637D01*
X224107759Y-73660000D01*
X223875241Y-73815363D01*
X223675363Y-74015241D01*
X223518320Y-74250273D01*
X223410147Y-74511426D01*
X223355000Y-74788665D01*
X223355000Y-75071335D01*
X223410147Y-75348574D01*
X223518320Y-75609727D01*
X223675363Y-75844759D01*
X223875241Y-76044637D01*
X224107759Y-76200000D01*
X223875241Y-76355363D01*
X223675363Y-76555241D01*
X223518320Y-76790273D01*
X223410147Y-77051426D01*
X223355000Y-77328665D01*
X223355000Y-77611335D01*
X223410147Y-77888574D01*
X223518320Y-78149727D01*
X223675363Y-78384759D01*
X223875241Y-78584637D01*
X224110273Y-78741680D01*
X224120865Y-78746067D01*
X223934869Y-78857615D01*
X223726481Y-79046586D01*
X223558963Y-79272580D01*
X223438754Y-79526913D01*
X223398096Y-79660961D01*
X223520085Y-79883000D01*
X224663000Y-79883000D01*
X224663000Y-79863000D01*
X224917000Y-79863000D01*
X224917000Y-79883000D01*
X226059915Y-79883000D01*
X226181904Y-79660961D01*
X226141246Y-79526913D01*
X226021037Y-79272580D01*
X225853519Y-79046586D01*
X225645131Y-78857615D01*
X225459135Y-78746067D01*
X225469727Y-78741680D01*
X225704759Y-78584637D01*
X225904637Y-78384759D01*
X226061680Y-78149727D01*
X226169853Y-77888574D01*
X226225000Y-77611335D01*
X226225000Y-77328665D01*
X226169853Y-77051426D01*
X226061680Y-76790273D01*
X225904637Y-76555241D01*
X225704759Y-76355363D01*
X225472241Y-76200000D01*
X225704759Y-76044637D01*
X225904637Y-75844759D01*
X226061680Y-75609727D01*
X226169853Y-75348574D01*
X226225000Y-75071335D01*
X226225000Y-74788665D01*
X226169853Y-74511426D01*
X226061680Y-74250273D01*
X225904637Y-74015241D01*
X225704759Y-73815363D01*
X225472241Y-73660000D01*
X225704759Y-73504637D01*
X225904637Y-73304759D01*
X226061680Y-73069727D01*
X226169853Y-72808574D01*
X226225000Y-72531335D01*
X226225000Y-72248665D01*
X226169853Y-71971426D01*
X226061680Y-71710273D01*
X225904637Y-71475241D01*
X225704759Y-71275363D01*
X225472241Y-71120000D01*
X225704759Y-70964637D01*
X225904637Y-70764759D01*
X226061680Y-70529727D01*
X226169853Y-70268574D01*
X226225000Y-69991335D01*
X226225000Y-69708665D01*
X226169853Y-69431426D01*
X226061680Y-69170273D01*
X225904637Y-68935241D01*
X225704759Y-68735363D01*
X225472241Y-68580000D01*
X225704759Y-68424637D01*
X225904637Y-68224759D01*
X226061680Y-67989727D01*
X226169853Y-67728574D01*
X226225000Y-67451335D01*
X226225000Y-67168665D01*
X226169853Y-66891426D01*
X226061680Y-66630273D01*
X225904637Y-66395241D01*
X225704759Y-66195363D01*
X225472241Y-66040000D01*
X225704759Y-65884637D01*
X225904637Y-65684759D01*
X226061680Y-65449727D01*
X226169853Y-65188574D01*
X226225000Y-64911335D01*
X226225000Y-64628665D01*
X226169853Y-64351426D01*
X226061680Y-64090273D01*
X225904637Y-63855241D01*
X225704759Y-63655363D01*
X225472241Y-63500000D01*
X225704759Y-63344637D01*
X225904637Y-63144759D01*
X226061680Y-62909727D01*
X226169853Y-62648574D01*
X226225000Y-62371335D01*
X226225000Y-62199801D01*
X230524999Y-66499801D01*
X230525000Y-86842664D01*
X230521323Y-86879997D01*
X230533149Y-87000062D01*
X230335581Y-87039361D01*
X229983434Y-87185225D01*
X229666509Y-87396987D01*
X229396987Y-87666509D01*
X229185225Y-87983434D01*
X229039361Y-88335581D01*
X228965000Y-88709419D01*
X228965000Y-89090581D01*
X229039361Y-89464419D01*
X229104213Y-89620986D01*
X229089008Y-89636191D01*
X229088997Y-89636200D01*
X228510187Y-90215011D01*
X227321493Y-90215011D01*
X227403013Y-90133491D01*
X227614775Y-89816566D01*
X227760639Y-89464419D01*
X227835000Y-89090581D01*
X227835000Y-88709419D01*
X227760639Y-88335581D01*
X227614775Y-87983434D01*
X227403013Y-87666509D01*
X227133491Y-87396987D01*
X226816566Y-87185225D01*
X226464419Y-87039361D01*
X226090581Y-86965000D01*
X225709419Y-86965000D01*
X225335581Y-87039361D01*
X224983434Y-87185225D01*
X224666509Y-87396987D01*
X224396987Y-87666509D01*
X224185225Y-87983434D01*
X224120373Y-88140000D01*
X224098845Y-88140000D01*
X224061522Y-88136324D01*
X224024199Y-88140000D01*
X224024190Y-88140000D01*
X223912537Y-88150997D01*
X223769276Y-88194454D01*
X223637247Y-88265026D01*
X223637245Y-88265027D01*
X223637246Y-88265027D01*
X223550519Y-88336201D01*
X223550515Y-88336205D01*
X223521522Y-88359999D01*
X223497728Y-88388992D01*
X222835000Y-89051721D01*
X222835000Y-88709419D01*
X222760639Y-88335581D01*
X222614775Y-87983434D01*
X222403013Y-87666509D01*
X222133491Y-87396987D01*
X221816566Y-87185225D01*
X221464419Y-87039361D01*
X221090581Y-86965000D01*
X220709419Y-86965000D01*
X220335581Y-87039361D01*
X220179015Y-87104213D01*
X213433841Y-80359039D01*
X223398096Y-80359039D01*
X223438754Y-80493087D01*
X223558963Y-80747420D01*
X223726481Y-80973414D01*
X223934869Y-81162385D01*
X224176119Y-81307070D01*
X224440960Y-81401909D01*
X224663000Y-81280624D01*
X224663000Y-80137000D01*
X224917000Y-80137000D01*
X224917000Y-81280624D01*
X225139040Y-81401909D01*
X225403881Y-81307070D01*
X225645131Y-81162385D01*
X225853519Y-80973414D01*
X226021037Y-80747420D01*
X226141246Y-80493087D01*
X226181904Y-80359039D01*
X226059915Y-80137000D01*
X224917000Y-80137000D01*
X224663000Y-80137000D01*
X223520085Y-80137000D01*
X223398096Y-80359039D01*
X213433841Y-80359039D01*
X210310000Y-77235199D01*
X210310000Y-68588178D01*
X210496632Y-68463475D01*
X210703475Y-68256632D01*
X210820000Y-68082240D01*
X210936525Y-68256632D01*
X211143368Y-68463475D01*
X211386589Y-68625990D01*
X211656842Y-68737932D01*
X211943740Y-68795000D01*
X212236260Y-68795000D01*
X212523158Y-68737932D01*
X212793411Y-68625990D01*
X213036632Y-68463475D01*
X213243475Y-68256632D01*
X213360000Y-68082240D01*
X213476525Y-68256632D01*
X213683368Y-68463475D01*
X213926589Y-68625990D01*
X214196842Y-68737932D01*
X214483740Y-68795000D01*
X214776260Y-68795000D01*
X215063158Y-68737932D01*
X215333411Y-68625990D01*
X215576632Y-68463475D01*
X215783475Y-68256632D01*
X215900000Y-68082240D01*
X216016525Y-68256632D01*
X216223368Y-68463475D01*
X216466589Y-68625990D01*
X216736842Y-68737932D01*
X217023740Y-68795000D01*
X217316260Y-68795000D01*
X217603158Y-68737932D01*
X217873411Y-68625990D01*
X218116632Y-68463475D01*
X218323475Y-68256632D01*
X218485990Y-68013411D01*
X218597932Y-67743158D01*
X218655000Y-67456260D01*
X218655000Y-67163740D01*
X218597932Y-66876842D01*
X218485990Y-66606589D01*
X218323475Y-66363368D01*
X218116632Y-66156525D01*
X217942240Y-66040000D01*
X218116632Y-65923475D01*
X218323475Y-65716632D01*
X218485990Y-65473411D01*
X218597932Y-65203158D01*
X218655000Y-64916260D01*
X218655000Y-64623740D01*
X218597932Y-64336842D01*
X218485990Y-64066589D01*
X218323475Y-63823368D01*
X218116632Y-63616525D01*
X217873411Y-63454010D01*
X217603158Y-63342068D01*
X217316260Y-63285000D01*
X217023740Y-63285000D01*
X216736842Y-63342068D01*
X216466589Y-63454010D01*
X216223368Y-63616525D01*
X216016525Y-63823368D01*
X215900000Y-63997760D01*
X215783475Y-63823368D01*
X215576632Y-63616525D01*
X215333411Y-63454010D01*
X215063158Y-63342068D01*
X214776260Y-63285000D01*
X214483740Y-63285000D01*
X214196842Y-63342068D01*
X213926589Y-63454010D01*
X213683368Y-63616525D01*
X213476525Y-63823368D01*
X213354805Y-64005534D01*
X213285178Y-63888645D01*
X213090269Y-63672412D01*
X212856920Y-63498359D01*
X212594099Y-63373175D01*
X212446890Y-63328524D01*
X212217002Y-63449844D01*
X212217002Y-63285000D01*
X212109801Y-63285000D01*
X214792099Y-60602702D01*
X216356903Y-60602702D01*
X216428486Y-60846671D01*
X216683996Y-60967571D01*
X216958184Y-61036300D01*
X217240512Y-61050217D01*
X217520130Y-61008787D01*
X217786292Y-60913603D01*
X217911514Y-60846671D01*
X217983097Y-60602702D01*
X217170000Y-59789605D01*
X216356903Y-60602702D01*
X214792099Y-60602702D01*
X215730586Y-59664215D01*
X215729783Y-59680512D01*
X215771213Y-59960130D01*
X215866397Y-60226292D01*
X215933329Y-60351514D01*
X216177298Y-60423097D01*
X216990395Y-59610000D01*
X217349605Y-59610000D01*
X218162702Y-60423097D01*
X218406671Y-60351514D01*
X218527571Y-60096004D01*
X218596300Y-59821816D01*
X218610217Y-59539488D01*
X218568787Y-59259870D01*
X218473603Y-58993708D01*
X218406671Y-58868486D01*
X218162702Y-58796903D01*
X217349605Y-59610000D01*
X216990395Y-59610000D01*
X216976253Y-59595858D01*
X217155858Y-59416253D01*
X217170000Y-59430395D01*
X217983097Y-58617298D01*
X217911514Y-58373329D01*
X217656004Y-58252429D01*
X217381816Y-58183700D01*
X217219121Y-58175680D01*
X219044801Y-56350000D01*
X223351928Y-56350000D01*
X223355000Y-56864250D01*
X223513750Y-57023000D01*
X224663000Y-57023000D01*
X224663000Y-55873750D01*
X224917000Y-55873750D01*
X224917000Y-57023000D01*
X226066250Y-57023000D01*
X226225000Y-56864250D01*
X226228072Y-56350000D01*
X226215812Y-56225518D01*
X226179502Y-56105820D01*
X226120537Y-55995506D01*
X226041185Y-55898815D01*
X225944494Y-55819463D01*
X225834180Y-55760498D01*
X225714482Y-55724188D01*
X225590000Y-55711928D01*
X225075750Y-55715000D01*
X224917000Y-55873750D01*
X224663000Y-55873750D01*
X224504250Y-55715000D01*
X223990000Y-55711928D01*
X223865518Y-55724188D01*
X223745820Y-55760498D01*
X223635506Y-55819463D01*
X223538815Y-55898815D01*
X223459463Y-55995506D01*
X223400498Y-56105820D01*
X223364188Y-56225518D01*
X223351928Y-56350000D01*
X219044801Y-56350000D01*
X221294802Y-54100000D01*
X232095199Y-54100000D01*
X234190000Y-56194803D01*
G37*
X234190000Y-56194803D02*
X234190001Y-77155196D01*
X233845000Y-77500197D01*
X233845000Y-77328665D01*
X233789853Y-77051426D01*
X233681680Y-76790273D01*
X233524637Y-76555241D01*
X233324759Y-76355363D01*
X233092241Y-76200000D01*
X233324759Y-76044637D01*
X233524637Y-75844759D01*
X233681680Y-75609727D01*
X233789853Y-75348574D01*
X233845000Y-75071335D01*
X233845000Y-74788665D01*
X233789853Y-74511426D01*
X233681680Y-74250273D01*
X233524637Y-74015241D01*
X233324759Y-73815363D01*
X233092241Y-73660000D01*
X233324759Y-73504637D01*
X233524637Y-73304759D01*
X233681680Y-73069727D01*
X233789853Y-72808574D01*
X233845000Y-72531335D01*
X233845000Y-72248665D01*
X233789853Y-71971426D01*
X233681680Y-71710273D01*
X233524637Y-71475241D01*
X233324759Y-71275363D01*
X233092241Y-71120000D01*
X233324759Y-70964637D01*
X233524637Y-70764759D01*
X233681680Y-70529727D01*
X233789853Y-70268574D01*
X233845000Y-69991335D01*
X233845000Y-69708665D01*
X233789853Y-69431426D01*
X233681680Y-69170273D01*
X233524637Y-68935241D01*
X233324759Y-68735363D01*
X233092241Y-68580000D01*
X233324759Y-68424637D01*
X233524637Y-68224759D01*
X233681680Y-67989727D01*
X233789853Y-67728574D01*
X233845000Y-67451335D01*
X233845000Y-67168665D01*
X233789853Y-66891426D01*
X233681680Y-66630273D01*
X233524637Y-66395241D01*
X233324759Y-66195363D01*
X233092241Y-66040000D01*
X233324759Y-65884637D01*
X233524637Y-65684759D01*
X233681680Y-65449727D01*
X233789853Y-65188574D01*
X233845000Y-64911335D01*
X233845000Y-64628665D01*
X233789853Y-64351426D01*
X233681680Y-64090273D01*
X233524637Y-63855241D01*
X233324759Y-63655363D01*
X233092241Y-63500000D01*
X233324759Y-63344637D01*
X233524637Y-63144759D01*
X233681680Y-62909727D01*
X233789853Y-62648574D01*
X233845000Y-62371335D01*
X233845000Y-62088665D01*
X233789853Y-61811426D01*
X233681680Y-61550273D01*
X233524637Y-61315241D01*
X233324759Y-61115363D01*
X233092241Y-60960000D01*
X233324759Y-60804637D01*
X233524637Y-60604759D01*
X233681680Y-60369727D01*
X233789853Y-60108574D01*
X233845000Y-59831335D01*
X233845000Y-59548665D01*
X233789853Y-59271426D01*
X233681680Y-59010273D01*
X233524637Y-58775241D01*
X233324759Y-58575363D01*
X233092241Y-58420000D01*
X233324759Y-58264637D01*
X233524637Y-58064759D01*
X233681680Y-57829727D01*
X233789853Y-57568574D01*
X233845000Y-57291335D01*
X233845000Y-57008665D01*
X233789853Y-56731426D01*
X233681680Y-56470273D01*
X233524637Y-56235241D01*
X233324759Y-56035363D01*
X233089727Y-55878320D01*
X232828574Y-55770147D01*
X232551335Y-55715000D01*
X232268665Y-55715000D01*
X231991426Y-55770147D01*
X231730273Y-55878320D01*
X231495241Y-56035363D01*
X231295363Y-56235241D01*
X231138320Y-56470273D01*
X231030147Y-56731426D01*
X230975000Y-57008665D01*
X230975000Y-57291335D01*
X231030147Y-57568574D01*
X231138320Y-57829727D01*
X231295363Y-58064759D01*
X231495241Y-58264637D01*
X231727759Y-58420000D01*
X231495241Y-58575363D01*
X231295363Y-58775241D01*
X231138320Y-59010273D01*
X231030147Y-59271426D01*
X230975000Y-59548665D01*
X230975000Y-59831335D01*
X231030147Y-60108574D01*
X231138320Y-60369727D01*
X231295363Y-60604759D01*
X231495241Y-60804637D01*
X231727759Y-60960000D01*
X231495241Y-61115363D01*
X231295363Y-61315241D01*
X231138320Y-61550273D01*
X231030147Y-61811426D01*
X230975000Y-62088665D01*
X230975000Y-62371335D01*
X231030147Y-62648574D01*
X231138320Y-62909727D01*
X231295363Y-63144759D01*
X231495241Y-63344637D01*
X231727759Y-63500000D01*
X231495241Y-63655363D01*
X231295363Y-63855241D01*
X231138320Y-64090273D01*
X231030147Y-64351426D01*
X230975000Y-64628665D01*
X230975000Y-64800198D01*
X226188688Y-60013887D01*
X226225000Y-59831335D01*
X226225000Y-59548665D01*
X226169853Y-59271426D01*
X226061680Y-59010273D01*
X225904637Y-58775241D01*
X225706039Y-58576643D01*
X225714482Y-58575812D01*
X225834180Y-58539502D01*
X225944494Y-58480537D01*
X226041185Y-58401185D01*
X226120537Y-58304494D01*
X226179502Y-58194180D01*
X226215812Y-58074482D01*
X226228072Y-57950000D01*
X226225000Y-57435750D01*
X226066250Y-57277000D01*
X224917000Y-57277000D01*
X224917000Y-57297000D01*
X224663000Y-57297000D01*
X224663000Y-57277000D01*
X223513750Y-57277000D01*
X223355000Y-57435750D01*
X223351928Y-57950000D01*
X223364188Y-58074482D01*
X223400498Y-58194180D01*
X223459463Y-58304494D01*
X223538815Y-58401185D01*
X223635506Y-58480537D01*
X223745820Y-58539502D01*
X223865518Y-58575812D01*
X223873961Y-58576643D01*
X223675363Y-58775241D01*
X223518320Y-59010273D01*
X223410147Y-59271426D01*
X223355000Y-59548665D01*
X223355000Y-59831335D01*
X223410147Y-60108574D01*
X223518320Y-60369727D01*
X223675363Y-60604759D01*
X223875241Y-60804637D01*
X224107759Y-60960000D01*
X223875241Y-61115363D01*
X223675363Y-61315241D01*
X223518320Y-61550273D01*
X223410147Y-61811426D01*
X223355000Y-62088665D01*
X223355000Y-62371335D01*
X223392533Y-62560023D01*
X223355027Y-62605723D01*
X223284455Y-62737753D01*
X223240999Y-62881014D01*
X223226325Y-63029999D01*
X223240999Y-63178984D01*
X223284455Y-63322245D01*
X223355027Y-63454275D01*
X223450000Y-63570000D01*
X223565725Y-63664973D01*
X223697755Y-63735545D01*
X223772413Y-63758191D01*
X223675363Y-63855241D01*
X223518320Y-64090273D01*
X223410147Y-64351426D01*
X223355000Y-64628665D01*
X223355000Y-64911335D01*
X223410147Y-65188574D01*
X223518320Y-65449727D01*
X223675363Y-65684759D01*
X223875241Y-65884637D01*
X224107759Y-66040000D01*
X223875241Y-66195363D01*
X223675363Y-66395241D01*
X223518320Y-66630273D01*
X223410147Y-66891426D01*
X223355000Y-67168665D01*
X223355000Y-67451335D01*
X223410147Y-67728574D01*
X223518320Y-67989727D01*
X223675363Y-68224759D01*
X223875241Y-68424637D01*
X224107759Y-68580000D01*
X223875241Y-68735363D01*
X223675363Y-68935241D01*
X223518320Y-69170273D01*
X223410147Y-69431426D01*
X223355000Y-69708665D01*
X223355000Y-69991335D01*
X223410147Y-70268574D01*
X223518320Y-70529727D01*
X223675363Y-70764759D01*
X223875241Y-70964637D01*
X224107759Y-71120000D01*
X223875241Y-71275363D01*
X223675363Y-71475241D01*
X223518320Y-71710273D01*
X223410147Y-71971426D01*
X223355000Y-72248665D01*
X223355000Y-72531335D01*
X223410147Y-72808574D01*
X223518320Y-73069727D01*
X223675363Y-73304759D01*
X223875241Y-73504637D01*
X224107759Y-73660000D01*
X223875241Y-73815363D01*
X223675363Y-74015241D01*
X223518320Y-74250273D01*
X223410147Y-74511426D01*
X223355000Y-74788665D01*
X223355000Y-75071335D01*
X223410147Y-75348574D01*
X223518320Y-75609727D01*
X223675363Y-75844759D01*
X223875241Y-76044637D01*
X224107759Y-76200000D01*
X223875241Y-76355363D01*
X223675363Y-76555241D01*
X223518320Y-76790273D01*
X223410147Y-77051426D01*
X223355000Y-77328665D01*
X223355000Y-77611335D01*
X223410147Y-77888574D01*
X223518320Y-78149727D01*
X223675363Y-78384759D01*
X223875241Y-78584637D01*
X224110273Y-78741680D01*
X224120865Y-78746067D01*
X223934869Y-78857615D01*
X223726481Y-79046586D01*
X223558963Y-79272580D01*
X223438754Y-79526913D01*
X223398096Y-79660961D01*
X223520085Y-79883000D01*
X224663000Y-79883000D01*
X224663000Y-79863000D01*
X224917000Y-79863000D01*
X224917000Y-79883000D01*
X226059915Y-79883000D01*
X226181904Y-79660961D01*
X226141246Y-79526913D01*
X226021037Y-79272580D01*
X225853519Y-79046586D01*
X225645131Y-78857615D01*
X225459135Y-78746067D01*
X225469727Y-78741680D01*
X225704759Y-78584637D01*
X225904637Y-78384759D01*
X226061680Y-78149727D01*
X226169853Y-77888574D01*
X226225000Y-77611335D01*
X226225000Y-77328665D01*
X226169853Y-77051426D01*
X226061680Y-76790273D01*
X225904637Y-76555241D01*
X225704759Y-76355363D01*
X225472241Y-76200000D01*
X225704759Y-76044637D01*
X225904637Y-75844759D01*
X226061680Y-75609727D01*
X226169853Y-75348574D01*
X226225000Y-75071335D01*
X226225000Y-74788665D01*
X226169853Y-74511426D01*
X226061680Y-74250273D01*
X225904637Y-74015241D01*
X225704759Y-73815363D01*
X225472241Y-73660000D01*
X225704759Y-73504637D01*
X225904637Y-73304759D01*
X226061680Y-73069727D01*
X226169853Y-72808574D01*
X226225000Y-72531335D01*
X226225000Y-72248665D01*
X226169853Y-71971426D01*
X226061680Y-71710273D01*
X225904637Y-71475241D01*
X225704759Y-71275363D01*
X225472241Y-71120000D01*
X225704759Y-70964637D01*
X225904637Y-70764759D01*
X226061680Y-70529727D01*
X226169853Y-70268574D01*
X226225000Y-69991335D01*
X226225000Y-69708665D01*
X226169853Y-69431426D01*
X226061680Y-69170273D01*
X225904637Y-68935241D01*
X225704759Y-68735363D01*
X225472241Y-68580000D01*
X225704759Y-68424637D01*
X225904637Y-68224759D01*
X226061680Y-67989727D01*
X226169853Y-67728574D01*
X226225000Y-67451335D01*
X226225000Y-67168665D01*
X226169853Y-66891426D01*
X226061680Y-66630273D01*
X225904637Y-66395241D01*
X225704759Y-66195363D01*
X225472241Y-66040000D01*
X225704759Y-65884637D01*
X225904637Y-65684759D01*
X226061680Y-65449727D01*
X226169853Y-65188574D01*
X226225000Y-64911335D01*
X226225000Y-64628665D01*
X226169853Y-64351426D01*
X226061680Y-64090273D01*
X225904637Y-63855241D01*
X225704759Y-63655363D01*
X225472241Y-63500000D01*
X225704759Y-63344637D01*
X225904637Y-63144759D01*
X226061680Y-62909727D01*
X226169853Y-62648574D01*
X226225000Y-62371335D01*
X226225000Y-62199801D01*
X230524999Y-66499801D01*
X230525000Y-86842664D01*
X230521323Y-86879997D01*
X230533149Y-87000062D01*
X230335581Y-87039361D01*
X229983434Y-87185225D01*
X229666509Y-87396987D01*
X229396987Y-87666509D01*
X229185225Y-87983434D01*
X229039361Y-88335581D01*
X228965000Y-88709419D01*
X228965000Y-89090581D01*
X229039361Y-89464419D01*
X229104213Y-89620986D01*
X229089008Y-89636191D01*
X229088997Y-89636200D01*
X228510187Y-90215011D01*
X227321493Y-90215011D01*
X227403013Y-90133491D01*
X227614775Y-89816566D01*
X227760639Y-89464419D01*
X227835000Y-89090581D01*
X227835000Y-88709419D01*
X227760639Y-88335581D01*
X227614775Y-87983434D01*
X227403013Y-87666509D01*
X227133491Y-87396987D01*
X226816566Y-87185225D01*
X226464419Y-87039361D01*
X226090581Y-86965000D01*
X225709419Y-86965000D01*
X225335581Y-87039361D01*
X224983434Y-87185225D01*
X224666509Y-87396987D01*
X224396987Y-87666509D01*
X224185225Y-87983434D01*
X224120373Y-88140000D01*
X224098845Y-88140000D01*
X224061522Y-88136324D01*
X224024199Y-88140000D01*
X224024190Y-88140000D01*
X223912537Y-88150997D01*
X223769276Y-88194454D01*
X223637247Y-88265026D01*
X223637245Y-88265027D01*
X223637246Y-88265027D01*
X223550519Y-88336201D01*
X223550515Y-88336205D01*
X223521522Y-88359999D01*
X223497728Y-88388992D01*
X222835000Y-89051721D01*
X222835000Y-88709419D01*
X222760639Y-88335581D01*
X222614775Y-87983434D01*
X222403013Y-87666509D01*
X222133491Y-87396987D01*
X221816566Y-87185225D01*
X221464419Y-87039361D01*
X221090581Y-86965000D01*
X220709419Y-86965000D01*
X220335581Y-87039361D01*
X220179015Y-87104213D01*
X213433841Y-80359039D01*
X223398096Y-80359039D01*
X223438754Y-80493087D01*
X223558963Y-80747420D01*
X223726481Y-80973414D01*
X223934869Y-81162385D01*
X224176119Y-81307070D01*
X224440960Y-81401909D01*
X224663000Y-81280624D01*
X224663000Y-80137000D01*
X224917000Y-80137000D01*
X224917000Y-81280624D01*
X225139040Y-81401909D01*
X225403881Y-81307070D01*
X225645131Y-81162385D01*
X225853519Y-80973414D01*
X226021037Y-80747420D01*
X226141246Y-80493087D01*
X226181904Y-80359039D01*
X226059915Y-80137000D01*
X224917000Y-80137000D01*
X224663000Y-80137000D01*
X223520085Y-80137000D01*
X223398096Y-80359039D01*
X213433841Y-80359039D01*
X210310000Y-77235199D01*
X210310000Y-68588178D01*
X210496632Y-68463475D01*
X210703475Y-68256632D01*
X210820000Y-68082240D01*
X210936525Y-68256632D01*
X211143368Y-68463475D01*
X211386589Y-68625990D01*
X211656842Y-68737932D01*
X211943740Y-68795000D01*
X212236260Y-68795000D01*
X212523158Y-68737932D01*
X212793411Y-68625990D01*
X213036632Y-68463475D01*
X213243475Y-68256632D01*
X213360000Y-68082240D01*
X213476525Y-68256632D01*
X213683368Y-68463475D01*
X213926589Y-68625990D01*
X214196842Y-68737932D01*
X214483740Y-68795000D01*
X214776260Y-68795000D01*
X215063158Y-68737932D01*
X215333411Y-68625990D01*
X215576632Y-68463475D01*
X215783475Y-68256632D01*
X215900000Y-68082240D01*
X216016525Y-68256632D01*
X216223368Y-68463475D01*
X216466589Y-68625990D01*
X216736842Y-68737932D01*
X217023740Y-68795000D01*
X217316260Y-68795000D01*
X217603158Y-68737932D01*
X217873411Y-68625990D01*
X218116632Y-68463475D01*
X218323475Y-68256632D01*
X218485990Y-68013411D01*
X218597932Y-67743158D01*
X218655000Y-67456260D01*
X218655000Y-67163740D01*
X218597932Y-66876842D01*
X218485990Y-66606589D01*
X218323475Y-66363368D01*
X218116632Y-66156525D01*
X217942240Y-66040000D01*
X218116632Y-65923475D01*
X218323475Y-65716632D01*
X218485990Y-65473411D01*
X218597932Y-65203158D01*
X218655000Y-64916260D01*
X218655000Y-64623740D01*
X218597932Y-64336842D01*
X218485990Y-64066589D01*
X218323475Y-63823368D01*
X218116632Y-63616525D01*
X217873411Y-63454010D01*
X217603158Y-63342068D01*
X217316260Y-63285000D01*
X217023740Y-63285000D01*
X216736842Y-63342068D01*
X216466589Y-63454010D01*
X216223368Y-63616525D01*
X216016525Y-63823368D01*
X215900000Y-63997760D01*
X215783475Y-63823368D01*
X215576632Y-63616525D01*
X215333411Y-63454010D01*
X215063158Y-63342068D01*
X214776260Y-63285000D01*
X214483740Y-63285000D01*
X214196842Y-63342068D01*
X213926589Y-63454010D01*
X213683368Y-63616525D01*
X213476525Y-63823368D01*
X213354805Y-64005534D01*
X213285178Y-63888645D01*
X213090269Y-63672412D01*
X212856920Y-63498359D01*
X212594099Y-63373175D01*
X212446890Y-63328524D01*
X212217002Y-63449844D01*
X212217002Y-63285000D01*
X212109801Y-63285000D01*
X214792099Y-60602702D01*
X216356903Y-60602702D01*
X216428486Y-60846671D01*
X216683996Y-60967571D01*
X216958184Y-61036300D01*
X217240512Y-61050217D01*
X217520130Y-61008787D01*
X217786292Y-60913603D01*
X217911514Y-60846671D01*
X217983097Y-60602702D01*
X217170000Y-59789605D01*
X216356903Y-60602702D01*
X214792099Y-60602702D01*
X215730586Y-59664215D01*
X215729783Y-59680512D01*
X215771213Y-59960130D01*
X215866397Y-60226292D01*
X215933329Y-60351514D01*
X216177298Y-60423097D01*
X216990395Y-59610000D01*
X217349605Y-59610000D01*
X218162702Y-60423097D01*
X218406671Y-60351514D01*
X218527571Y-60096004D01*
X218596300Y-59821816D01*
X218610217Y-59539488D01*
X218568787Y-59259870D01*
X218473603Y-58993708D01*
X218406671Y-58868486D01*
X218162702Y-58796903D01*
X217349605Y-59610000D01*
X216990395Y-59610000D01*
X216976253Y-59595858D01*
X217155858Y-59416253D01*
X217170000Y-59430395D01*
X217983097Y-58617298D01*
X217911514Y-58373329D01*
X217656004Y-58252429D01*
X217381816Y-58183700D01*
X217219121Y-58175680D01*
X219044801Y-56350000D01*
X223351928Y-56350000D01*
X223355000Y-56864250D01*
X223513750Y-57023000D01*
X224663000Y-57023000D01*
X224663000Y-55873750D01*
X224917000Y-55873750D01*
X224917000Y-57023000D01*
X226066250Y-57023000D01*
X226225000Y-56864250D01*
X226228072Y-56350000D01*
X226215812Y-56225518D01*
X226179502Y-56105820D01*
X226120537Y-55995506D01*
X226041185Y-55898815D01*
X225944494Y-55819463D01*
X225834180Y-55760498D01*
X225714482Y-55724188D01*
X225590000Y-55711928D01*
X225075750Y-55715000D01*
X224917000Y-55873750D01*
X224663000Y-55873750D01*
X224504250Y-55715000D01*
X223990000Y-55711928D01*
X223865518Y-55724188D01*
X223745820Y-55760498D01*
X223635506Y-55819463D01*
X223538815Y-55898815D01*
X223459463Y-55995506D01*
X223400498Y-56105820D01*
X223364188Y-56225518D01*
X223351928Y-56350000D01*
X219044801Y-56350000D01*
X221294802Y-54100000D01*
X232095199Y-54100000D01*
X234190000Y-56194803D01*
G36*
X212217000Y-64643000D02*
G01*
X212237000Y-64643000D01*
X212237000Y-64897000D01*
X212217000Y-64897000D01*
X212217000Y-64917000D01*
X211963000Y-64917000D01*
X211963000Y-64897000D01*
X211943000Y-64897000D01*
X211943000Y-64643000D01*
X211963000Y-64643000D01*
X211963000Y-64623000D01*
X212217000Y-64623000D01*
X212217000Y-64643000D01*
G37*
X212217000Y-64643000D02*
X212237000Y-64643000D01*
X212237000Y-64897000D01*
X212217000Y-64897000D01*
X212217000Y-64917000D01*
X211963000Y-64917000D01*
X211963000Y-64897000D01*
X211943000Y-64897000D01*
X211943000Y-64643000D01*
X211963000Y-64643000D01*
X211963000Y-64623000D01*
X212217000Y-64623000D01*
X212217000Y-64643000D01*
M02*
