G04 #@! TF.GenerationSoftware,KiCad,Pcbnew,(5.1.5-0-10_14)*
G04 #@! TF.CreationDate,2022-01-19T13:44:37-07:00*
G04 #@! TF.ProjectId,genesisctl,67656e65-7369-4736-9374-6c2e6b696361,rev?*
G04 #@! TF.SameCoordinates,Original*
G04 #@! TF.FileFunction,Soldermask,Bot*
G04 #@! TF.FilePolarity,Negative*
%FSLAX46Y46*%
G04 Gerber Fmt 4.6, Leading zero omitted, Abs format (unit mm)*
G04 Created by KiCad (PCBNEW (5.1.5-0-10_14)) date 2022-01-19 13:44:37*
%MOMM*%
%LPD*%
G04 APERTURE LIST*
%ADD10C,0.100000*%
G04 APERTURE END LIST*
D10*
G36*
X231294072Y-87600918D02*
G01*
X231539939Y-87702759D01*
X231761212Y-87850610D01*
X231949390Y-88038788D01*
X232097241Y-88260061D01*
X232199082Y-88505928D01*
X232251000Y-88766938D01*
X232251000Y-89033062D01*
X232199082Y-89294072D01*
X232097241Y-89539939D01*
X231949390Y-89761212D01*
X231761212Y-89949390D01*
X231539939Y-90097241D01*
X231539938Y-90097242D01*
X231539937Y-90097242D01*
X231294072Y-90199082D01*
X231033063Y-90251000D01*
X230766937Y-90251000D01*
X230505928Y-90199082D01*
X230260063Y-90097242D01*
X230260062Y-90097242D01*
X230260061Y-90097241D01*
X230038788Y-89949390D01*
X229850610Y-89761212D01*
X229702759Y-89539939D01*
X229600918Y-89294072D01*
X229549000Y-89033062D01*
X229549000Y-88766938D01*
X229600918Y-88505928D01*
X229702759Y-88260061D01*
X229850610Y-88038788D01*
X230038788Y-87850610D01*
X230260061Y-87702759D01*
X230505928Y-87600918D01*
X230766937Y-87549000D01*
X231033063Y-87549000D01*
X231294072Y-87600918D01*
G37*
G36*
X226294072Y-87600918D02*
G01*
X226539939Y-87702759D01*
X226761212Y-87850610D01*
X226949390Y-88038788D01*
X227097241Y-88260061D01*
X227199082Y-88505928D01*
X227251000Y-88766938D01*
X227251000Y-89033062D01*
X227199082Y-89294072D01*
X227097241Y-89539939D01*
X226949390Y-89761212D01*
X226761212Y-89949390D01*
X226539939Y-90097241D01*
X226539938Y-90097242D01*
X226539937Y-90097242D01*
X226294072Y-90199082D01*
X226033063Y-90251000D01*
X225766937Y-90251000D01*
X225505928Y-90199082D01*
X225260063Y-90097242D01*
X225260062Y-90097242D01*
X225260061Y-90097241D01*
X225038788Y-89949390D01*
X224850610Y-89761212D01*
X224702759Y-89539939D01*
X224600918Y-89294072D01*
X224549000Y-89033062D01*
X224549000Y-88766938D01*
X224600918Y-88505928D01*
X224702759Y-88260061D01*
X224850610Y-88038788D01*
X225038788Y-87850610D01*
X225260061Y-87702759D01*
X225505928Y-87600918D01*
X225766937Y-87549000D01*
X226033063Y-87549000D01*
X226294072Y-87600918D01*
G37*
G36*
X221294072Y-87600918D02*
G01*
X221539939Y-87702759D01*
X221761212Y-87850610D01*
X221949390Y-88038788D01*
X222097241Y-88260061D01*
X222199082Y-88505928D01*
X222251000Y-88766938D01*
X222251000Y-89033062D01*
X222199082Y-89294072D01*
X222097241Y-89539939D01*
X221949390Y-89761212D01*
X221761212Y-89949390D01*
X221539939Y-90097241D01*
X221539938Y-90097242D01*
X221539937Y-90097242D01*
X221294072Y-90199082D01*
X221033063Y-90251000D01*
X220766937Y-90251000D01*
X220505928Y-90199082D01*
X220260063Y-90097242D01*
X220260062Y-90097242D01*
X220260061Y-90097241D01*
X220038788Y-89949390D01*
X219850610Y-89761212D01*
X219702759Y-89539939D01*
X219600918Y-89294072D01*
X219549000Y-89033062D01*
X219549000Y-88766938D01*
X219600918Y-88505928D01*
X219702759Y-88260061D01*
X219850610Y-88038788D01*
X220038788Y-87850610D01*
X220260061Y-87702759D01*
X220505928Y-87600918D01*
X220766937Y-87549000D01*
X221033063Y-87549000D01*
X221294072Y-87600918D01*
G37*
G36*
X217251000Y-90251000D02*
G01*
X214549000Y-90251000D01*
X214549000Y-87549000D01*
X217251000Y-87549000D01*
X217251000Y-90251000D01*
G37*
G36*
X208434072Y-87600918D02*
G01*
X208679939Y-87702759D01*
X208901212Y-87850610D01*
X209089390Y-88038788D01*
X209237241Y-88260061D01*
X209339082Y-88505928D01*
X209391000Y-88766938D01*
X209391000Y-89033062D01*
X209339082Y-89294072D01*
X209237241Y-89539939D01*
X209089390Y-89761212D01*
X208901212Y-89949390D01*
X208679939Y-90097241D01*
X208679938Y-90097242D01*
X208679937Y-90097242D01*
X208434072Y-90199082D01*
X208173063Y-90251000D01*
X207906937Y-90251000D01*
X207645928Y-90199082D01*
X207400063Y-90097242D01*
X207400062Y-90097242D01*
X207400061Y-90097241D01*
X207178788Y-89949390D01*
X206990610Y-89761212D01*
X206842759Y-89539939D01*
X206740918Y-89294072D01*
X206689000Y-89033062D01*
X206689000Y-88766938D01*
X206740918Y-88505928D01*
X206842759Y-88260061D01*
X206990610Y-88038788D01*
X207178788Y-87850610D01*
X207400061Y-87702759D01*
X207645928Y-87600918D01*
X207906937Y-87549000D01*
X208173063Y-87549000D01*
X208434072Y-87600918D01*
G37*
G36*
X203434072Y-87600918D02*
G01*
X203679939Y-87702759D01*
X203901212Y-87850610D01*
X204089390Y-88038788D01*
X204237241Y-88260061D01*
X204339082Y-88505928D01*
X204391000Y-88766938D01*
X204391000Y-89033062D01*
X204339082Y-89294072D01*
X204237241Y-89539939D01*
X204089390Y-89761212D01*
X203901212Y-89949390D01*
X203679939Y-90097241D01*
X203679938Y-90097242D01*
X203679937Y-90097242D01*
X203434072Y-90199082D01*
X203173063Y-90251000D01*
X202906937Y-90251000D01*
X202645928Y-90199082D01*
X202400063Y-90097242D01*
X202400062Y-90097242D01*
X202400061Y-90097241D01*
X202178788Y-89949390D01*
X201990610Y-89761212D01*
X201842759Y-89539939D01*
X201740918Y-89294072D01*
X201689000Y-89033062D01*
X201689000Y-88766938D01*
X201740918Y-88505928D01*
X201842759Y-88260061D01*
X201990610Y-88038788D01*
X202178788Y-87850610D01*
X202400061Y-87702759D01*
X202645928Y-87600918D01*
X202906937Y-87549000D01*
X203173063Y-87549000D01*
X203434072Y-87600918D01*
G37*
G36*
X198434072Y-87600918D02*
G01*
X198679939Y-87702759D01*
X198901212Y-87850610D01*
X199089390Y-88038788D01*
X199237241Y-88260061D01*
X199339082Y-88505928D01*
X199391000Y-88766938D01*
X199391000Y-89033062D01*
X199339082Y-89294072D01*
X199237241Y-89539939D01*
X199089390Y-89761212D01*
X198901212Y-89949390D01*
X198679939Y-90097241D01*
X198679938Y-90097242D01*
X198679937Y-90097242D01*
X198434072Y-90199082D01*
X198173063Y-90251000D01*
X197906937Y-90251000D01*
X197645928Y-90199082D01*
X197400063Y-90097242D01*
X197400062Y-90097242D01*
X197400061Y-90097241D01*
X197178788Y-89949390D01*
X196990610Y-89761212D01*
X196842759Y-89539939D01*
X196740918Y-89294072D01*
X196689000Y-89033062D01*
X196689000Y-88766938D01*
X196740918Y-88505928D01*
X196842759Y-88260061D01*
X196990610Y-88038788D01*
X197178788Y-87850610D01*
X197400061Y-87702759D01*
X197645928Y-87600918D01*
X197906937Y-87549000D01*
X198173063Y-87549000D01*
X198434072Y-87600918D01*
G37*
G36*
X194391000Y-90251000D02*
G01*
X191689000Y-90251000D01*
X191689000Y-87549000D01*
X194391000Y-87549000D01*
X194391000Y-90251000D01*
G37*
G36*
X225038228Y-79191703D02*
G01*
X225193100Y-79255853D01*
X225332481Y-79348985D01*
X225451015Y-79467519D01*
X225544147Y-79606900D01*
X225608297Y-79761772D01*
X225641000Y-79926184D01*
X225641000Y-80093816D01*
X225608297Y-80258228D01*
X225544147Y-80413100D01*
X225451015Y-80552481D01*
X225332481Y-80671015D01*
X225193100Y-80764147D01*
X225038228Y-80828297D01*
X224873816Y-80861000D01*
X224706184Y-80861000D01*
X224541772Y-80828297D01*
X224386900Y-80764147D01*
X224247519Y-80671015D01*
X224128985Y-80552481D01*
X224035853Y-80413100D01*
X223971703Y-80258228D01*
X223939000Y-80093816D01*
X223939000Y-79926184D01*
X223971703Y-79761772D01*
X224035853Y-79606900D01*
X224128985Y-79467519D01*
X224247519Y-79348985D01*
X224386900Y-79255853D01*
X224541772Y-79191703D01*
X224706184Y-79159000D01*
X224873816Y-79159000D01*
X225038228Y-79191703D01*
G37*
G36*
X232658228Y-79191703D02*
G01*
X232813100Y-79255853D01*
X232952481Y-79348985D01*
X233071015Y-79467519D01*
X233164147Y-79606900D01*
X233228297Y-79761772D01*
X233261000Y-79926184D01*
X233261000Y-80093816D01*
X233228297Y-80258228D01*
X233164147Y-80413100D01*
X233071015Y-80552481D01*
X232952481Y-80671015D01*
X232813100Y-80764147D01*
X232658228Y-80828297D01*
X232493816Y-80861000D01*
X232326184Y-80861000D01*
X232161772Y-80828297D01*
X232006900Y-80764147D01*
X231867519Y-80671015D01*
X231748985Y-80552481D01*
X231655853Y-80413100D01*
X231591703Y-80258228D01*
X231559000Y-80093816D01*
X231559000Y-79926184D01*
X231591703Y-79761772D01*
X231655853Y-79606900D01*
X231748985Y-79467519D01*
X231867519Y-79348985D01*
X232006900Y-79255853D01*
X232161772Y-79191703D01*
X232326184Y-79159000D01*
X232493816Y-79159000D01*
X232658228Y-79191703D01*
G37*
G36*
X190748228Y-79191703D02*
G01*
X190903100Y-79255853D01*
X191042481Y-79348985D01*
X191161015Y-79467519D01*
X191254147Y-79606900D01*
X191318297Y-79761772D01*
X191351000Y-79926184D01*
X191351000Y-80093816D01*
X191318297Y-80258228D01*
X191254147Y-80413100D01*
X191161015Y-80552481D01*
X191042481Y-80671015D01*
X190903100Y-80764147D01*
X190748228Y-80828297D01*
X190583816Y-80861000D01*
X190416184Y-80861000D01*
X190251772Y-80828297D01*
X190096900Y-80764147D01*
X189957519Y-80671015D01*
X189838985Y-80552481D01*
X189745853Y-80413100D01*
X189681703Y-80258228D01*
X189649000Y-80093816D01*
X189649000Y-79926184D01*
X189681703Y-79761772D01*
X189745853Y-79606900D01*
X189838985Y-79467519D01*
X189957519Y-79348985D01*
X190096900Y-79255853D01*
X190251772Y-79191703D01*
X190416184Y-79159000D01*
X190583816Y-79159000D01*
X190748228Y-79191703D01*
G37*
G36*
X198368228Y-79191703D02*
G01*
X198523100Y-79255853D01*
X198662481Y-79348985D01*
X198781015Y-79467519D01*
X198874147Y-79606900D01*
X198938297Y-79761772D01*
X198971000Y-79926184D01*
X198971000Y-80093816D01*
X198938297Y-80258228D01*
X198874147Y-80413100D01*
X198781015Y-80552481D01*
X198662481Y-80671015D01*
X198523100Y-80764147D01*
X198368228Y-80828297D01*
X198203816Y-80861000D01*
X198036184Y-80861000D01*
X197871772Y-80828297D01*
X197716900Y-80764147D01*
X197577519Y-80671015D01*
X197458985Y-80552481D01*
X197365853Y-80413100D01*
X197301703Y-80258228D01*
X197269000Y-80093816D01*
X197269000Y-79926184D01*
X197301703Y-79761772D01*
X197365853Y-79606900D01*
X197458985Y-79467519D01*
X197577519Y-79348985D01*
X197716900Y-79255853D01*
X197871772Y-79191703D01*
X198036184Y-79159000D01*
X198203816Y-79159000D01*
X198368228Y-79191703D01*
G37*
G36*
X198368228Y-76651703D02*
G01*
X198523100Y-76715853D01*
X198662481Y-76808985D01*
X198781015Y-76927519D01*
X198874147Y-77066900D01*
X198938297Y-77221772D01*
X198971000Y-77386184D01*
X198971000Y-77553816D01*
X198938297Y-77718228D01*
X198874147Y-77873100D01*
X198781015Y-78012481D01*
X198662481Y-78131015D01*
X198523100Y-78224147D01*
X198368228Y-78288297D01*
X198203816Y-78321000D01*
X198036184Y-78321000D01*
X197871772Y-78288297D01*
X197716900Y-78224147D01*
X197577519Y-78131015D01*
X197458985Y-78012481D01*
X197365853Y-77873100D01*
X197301703Y-77718228D01*
X197269000Y-77553816D01*
X197269000Y-77386184D01*
X197301703Y-77221772D01*
X197365853Y-77066900D01*
X197458985Y-76927519D01*
X197577519Y-76808985D01*
X197716900Y-76715853D01*
X197871772Y-76651703D01*
X198036184Y-76619000D01*
X198203816Y-76619000D01*
X198368228Y-76651703D01*
G37*
G36*
X190748228Y-76651703D02*
G01*
X190903100Y-76715853D01*
X191042481Y-76808985D01*
X191161015Y-76927519D01*
X191254147Y-77066900D01*
X191318297Y-77221772D01*
X191351000Y-77386184D01*
X191351000Y-77553816D01*
X191318297Y-77718228D01*
X191254147Y-77873100D01*
X191161015Y-78012481D01*
X191042481Y-78131015D01*
X190903100Y-78224147D01*
X190748228Y-78288297D01*
X190583816Y-78321000D01*
X190416184Y-78321000D01*
X190251772Y-78288297D01*
X190096900Y-78224147D01*
X189957519Y-78131015D01*
X189838985Y-78012481D01*
X189745853Y-77873100D01*
X189681703Y-77718228D01*
X189649000Y-77553816D01*
X189649000Y-77386184D01*
X189681703Y-77221772D01*
X189745853Y-77066900D01*
X189838985Y-76927519D01*
X189957519Y-76808985D01*
X190096900Y-76715853D01*
X190251772Y-76651703D01*
X190416184Y-76619000D01*
X190583816Y-76619000D01*
X190748228Y-76651703D01*
G37*
G36*
X225038228Y-76651703D02*
G01*
X225193100Y-76715853D01*
X225332481Y-76808985D01*
X225451015Y-76927519D01*
X225544147Y-77066900D01*
X225608297Y-77221772D01*
X225641000Y-77386184D01*
X225641000Y-77553816D01*
X225608297Y-77718228D01*
X225544147Y-77873100D01*
X225451015Y-78012481D01*
X225332481Y-78131015D01*
X225193100Y-78224147D01*
X225038228Y-78288297D01*
X224873816Y-78321000D01*
X224706184Y-78321000D01*
X224541772Y-78288297D01*
X224386900Y-78224147D01*
X224247519Y-78131015D01*
X224128985Y-78012481D01*
X224035853Y-77873100D01*
X223971703Y-77718228D01*
X223939000Y-77553816D01*
X223939000Y-77386184D01*
X223971703Y-77221772D01*
X224035853Y-77066900D01*
X224128985Y-76927519D01*
X224247519Y-76808985D01*
X224386900Y-76715853D01*
X224541772Y-76651703D01*
X224706184Y-76619000D01*
X224873816Y-76619000D01*
X225038228Y-76651703D01*
G37*
G36*
X232658228Y-76651703D02*
G01*
X232813100Y-76715853D01*
X232952481Y-76808985D01*
X233071015Y-76927519D01*
X233164147Y-77066900D01*
X233228297Y-77221772D01*
X233261000Y-77386184D01*
X233261000Y-77553816D01*
X233228297Y-77718228D01*
X233164147Y-77873100D01*
X233071015Y-78012481D01*
X232952481Y-78131015D01*
X232813100Y-78224147D01*
X232658228Y-78288297D01*
X232493816Y-78321000D01*
X232326184Y-78321000D01*
X232161772Y-78288297D01*
X232006900Y-78224147D01*
X231867519Y-78131015D01*
X231748985Y-78012481D01*
X231655853Y-77873100D01*
X231591703Y-77718228D01*
X231559000Y-77553816D01*
X231559000Y-77386184D01*
X231591703Y-77221772D01*
X231655853Y-77066900D01*
X231748985Y-76927519D01*
X231867519Y-76808985D01*
X232006900Y-76715853D01*
X232161772Y-76651703D01*
X232326184Y-76619000D01*
X232493816Y-76619000D01*
X232658228Y-76651703D01*
G37*
G36*
X232658228Y-74111703D02*
G01*
X232813100Y-74175853D01*
X232952481Y-74268985D01*
X233071015Y-74387519D01*
X233164147Y-74526900D01*
X233228297Y-74681772D01*
X233261000Y-74846184D01*
X233261000Y-75013816D01*
X233228297Y-75178228D01*
X233164147Y-75333100D01*
X233071015Y-75472481D01*
X232952481Y-75591015D01*
X232813100Y-75684147D01*
X232658228Y-75748297D01*
X232493816Y-75781000D01*
X232326184Y-75781000D01*
X232161772Y-75748297D01*
X232006900Y-75684147D01*
X231867519Y-75591015D01*
X231748985Y-75472481D01*
X231655853Y-75333100D01*
X231591703Y-75178228D01*
X231559000Y-75013816D01*
X231559000Y-74846184D01*
X231591703Y-74681772D01*
X231655853Y-74526900D01*
X231748985Y-74387519D01*
X231867519Y-74268985D01*
X232006900Y-74175853D01*
X232161772Y-74111703D01*
X232326184Y-74079000D01*
X232493816Y-74079000D01*
X232658228Y-74111703D01*
G37*
G36*
X225038228Y-74111703D02*
G01*
X225193100Y-74175853D01*
X225332481Y-74268985D01*
X225451015Y-74387519D01*
X225544147Y-74526900D01*
X225608297Y-74681772D01*
X225641000Y-74846184D01*
X225641000Y-75013816D01*
X225608297Y-75178228D01*
X225544147Y-75333100D01*
X225451015Y-75472481D01*
X225332481Y-75591015D01*
X225193100Y-75684147D01*
X225038228Y-75748297D01*
X224873816Y-75781000D01*
X224706184Y-75781000D01*
X224541772Y-75748297D01*
X224386900Y-75684147D01*
X224247519Y-75591015D01*
X224128985Y-75472481D01*
X224035853Y-75333100D01*
X223971703Y-75178228D01*
X223939000Y-75013816D01*
X223939000Y-74846184D01*
X223971703Y-74681772D01*
X224035853Y-74526900D01*
X224128985Y-74387519D01*
X224247519Y-74268985D01*
X224386900Y-74175853D01*
X224541772Y-74111703D01*
X224706184Y-74079000D01*
X224873816Y-74079000D01*
X225038228Y-74111703D01*
G37*
G36*
X198368228Y-74111703D02*
G01*
X198523100Y-74175853D01*
X198662481Y-74268985D01*
X198781015Y-74387519D01*
X198874147Y-74526900D01*
X198938297Y-74681772D01*
X198971000Y-74846184D01*
X198971000Y-75013816D01*
X198938297Y-75178228D01*
X198874147Y-75333100D01*
X198781015Y-75472481D01*
X198662481Y-75591015D01*
X198523100Y-75684147D01*
X198368228Y-75748297D01*
X198203816Y-75781000D01*
X198036184Y-75781000D01*
X197871772Y-75748297D01*
X197716900Y-75684147D01*
X197577519Y-75591015D01*
X197458985Y-75472481D01*
X197365853Y-75333100D01*
X197301703Y-75178228D01*
X197269000Y-75013816D01*
X197269000Y-74846184D01*
X197301703Y-74681772D01*
X197365853Y-74526900D01*
X197458985Y-74387519D01*
X197577519Y-74268985D01*
X197716900Y-74175853D01*
X197871772Y-74111703D01*
X198036184Y-74079000D01*
X198203816Y-74079000D01*
X198368228Y-74111703D01*
G37*
G36*
X190748228Y-74111703D02*
G01*
X190903100Y-74175853D01*
X191042481Y-74268985D01*
X191161015Y-74387519D01*
X191254147Y-74526900D01*
X191318297Y-74681772D01*
X191351000Y-74846184D01*
X191351000Y-75013816D01*
X191318297Y-75178228D01*
X191254147Y-75333100D01*
X191161015Y-75472481D01*
X191042481Y-75591015D01*
X190903100Y-75684147D01*
X190748228Y-75748297D01*
X190583816Y-75781000D01*
X190416184Y-75781000D01*
X190251772Y-75748297D01*
X190096900Y-75684147D01*
X189957519Y-75591015D01*
X189838985Y-75472481D01*
X189745853Y-75333100D01*
X189681703Y-75178228D01*
X189649000Y-75013816D01*
X189649000Y-74846184D01*
X189681703Y-74681772D01*
X189745853Y-74526900D01*
X189838985Y-74387519D01*
X189957519Y-74268985D01*
X190096900Y-74175853D01*
X190251772Y-74111703D01*
X190416184Y-74079000D01*
X190583816Y-74079000D01*
X190748228Y-74111703D01*
G37*
G36*
X190748228Y-71571703D02*
G01*
X190903100Y-71635853D01*
X191042481Y-71728985D01*
X191161015Y-71847519D01*
X191254147Y-71986900D01*
X191318297Y-72141772D01*
X191351000Y-72306184D01*
X191351000Y-72473816D01*
X191318297Y-72638228D01*
X191254147Y-72793100D01*
X191161015Y-72932481D01*
X191042481Y-73051015D01*
X190903100Y-73144147D01*
X190748228Y-73208297D01*
X190583816Y-73241000D01*
X190416184Y-73241000D01*
X190251772Y-73208297D01*
X190096900Y-73144147D01*
X189957519Y-73051015D01*
X189838985Y-72932481D01*
X189745853Y-72793100D01*
X189681703Y-72638228D01*
X189649000Y-72473816D01*
X189649000Y-72306184D01*
X189681703Y-72141772D01*
X189745853Y-71986900D01*
X189838985Y-71847519D01*
X189957519Y-71728985D01*
X190096900Y-71635853D01*
X190251772Y-71571703D01*
X190416184Y-71539000D01*
X190583816Y-71539000D01*
X190748228Y-71571703D01*
G37*
G36*
X232658228Y-71571703D02*
G01*
X232813100Y-71635853D01*
X232952481Y-71728985D01*
X233071015Y-71847519D01*
X233164147Y-71986900D01*
X233228297Y-72141772D01*
X233261000Y-72306184D01*
X233261000Y-72473816D01*
X233228297Y-72638228D01*
X233164147Y-72793100D01*
X233071015Y-72932481D01*
X232952481Y-73051015D01*
X232813100Y-73144147D01*
X232658228Y-73208297D01*
X232493816Y-73241000D01*
X232326184Y-73241000D01*
X232161772Y-73208297D01*
X232006900Y-73144147D01*
X231867519Y-73051015D01*
X231748985Y-72932481D01*
X231655853Y-72793100D01*
X231591703Y-72638228D01*
X231559000Y-72473816D01*
X231559000Y-72306184D01*
X231591703Y-72141772D01*
X231655853Y-71986900D01*
X231748985Y-71847519D01*
X231867519Y-71728985D01*
X232006900Y-71635853D01*
X232161772Y-71571703D01*
X232326184Y-71539000D01*
X232493816Y-71539000D01*
X232658228Y-71571703D01*
G37*
G36*
X225038228Y-71571703D02*
G01*
X225193100Y-71635853D01*
X225332481Y-71728985D01*
X225451015Y-71847519D01*
X225544147Y-71986900D01*
X225608297Y-72141772D01*
X225641000Y-72306184D01*
X225641000Y-72473816D01*
X225608297Y-72638228D01*
X225544147Y-72793100D01*
X225451015Y-72932481D01*
X225332481Y-73051015D01*
X225193100Y-73144147D01*
X225038228Y-73208297D01*
X224873816Y-73241000D01*
X224706184Y-73241000D01*
X224541772Y-73208297D01*
X224386900Y-73144147D01*
X224247519Y-73051015D01*
X224128985Y-72932481D01*
X224035853Y-72793100D01*
X223971703Y-72638228D01*
X223939000Y-72473816D01*
X223939000Y-72306184D01*
X223971703Y-72141772D01*
X224035853Y-71986900D01*
X224128985Y-71847519D01*
X224247519Y-71728985D01*
X224386900Y-71635853D01*
X224541772Y-71571703D01*
X224706184Y-71539000D01*
X224873816Y-71539000D01*
X225038228Y-71571703D01*
G37*
G36*
X198368228Y-71571703D02*
G01*
X198523100Y-71635853D01*
X198662481Y-71728985D01*
X198781015Y-71847519D01*
X198874147Y-71986900D01*
X198938297Y-72141772D01*
X198971000Y-72306184D01*
X198971000Y-72473816D01*
X198938297Y-72638228D01*
X198874147Y-72793100D01*
X198781015Y-72932481D01*
X198662481Y-73051015D01*
X198523100Y-73144147D01*
X198368228Y-73208297D01*
X198203816Y-73241000D01*
X198036184Y-73241000D01*
X197871772Y-73208297D01*
X197716900Y-73144147D01*
X197577519Y-73051015D01*
X197458985Y-72932481D01*
X197365853Y-72793100D01*
X197301703Y-72638228D01*
X197269000Y-72473816D01*
X197269000Y-72306184D01*
X197301703Y-72141772D01*
X197365853Y-71986900D01*
X197458985Y-71847519D01*
X197577519Y-71728985D01*
X197716900Y-71635853D01*
X197871772Y-71571703D01*
X198036184Y-71539000D01*
X198203816Y-71539000D01*
X198368228Y-71571703D01*
G37*
G36*
X225038228Y-69031703D02*
G01*
X225193100Y-69095853D01*
X225332481Y-69188985D01*
X225451015Y-69307519D01*
X225544147Y-69446900D01*
X225608297Y-69601772D01*
X225641000Y-69766184D01*
X225641000Y-69933816D01*
X225608297Y-70098228D01*
X225544147Y-70253100D01*
X225451015Y-70392481D01*
X225332481Y-70511015D01*
X225193100Y-70604147D01*
X225038228Y-70668297D01*
X224873816Y-70701000D01*
X224706184Y-70701000D01*
X224541772Y-70668297D01*
X224386900Y-70604147D01*
X224247519Y-70511015D01*
X224128985Y-70392481D01*
X224035853Y-70253100D01*
X223971703Y-70098228D01*
X223939000Y-69933816D01*
X223939000Y-69766184D01*
X223971703Y-69601772D01*
X224035853Y-69446900D01*
X224128985Y-69307519D01*
X224247519Y-69188985D01*
X224386900Y-69095853D01*
X224541772Y-69031703D01*
X224706184Y-68999000D01*
X224873816Y-68999000D01*
X225038228Y-69031703D01*
G37*
G36*
X190748228Y-69031703D02*
G01*
X190903100Y-69095853D01*
X191042481Y-69188985D01*
X191161015Y-69307519D01*
X191254147Y-69446900D01*
X191318297Y-69601772D01*
X191351000Y-69766184D01*
X191351000Y-69933816D01*
X191318297Y-70098228D01*
X191254147Y-70253100D01*
X191161015Y-70392481D01*
X191042481Y-70511015D01*
X190903100Y-70604147D01*
X190748228Y-70668297D01*
X190583816Y-70701000D01*
X190416184Y-70701000D01*
X190251772Y-70668297D01*
X190096900Y-70604147D01*
X189957519Y-70511015D01*
X189838985Y-70392481D01*
X189745853Y-70253100D01*
X189681703Y-70098228D01*
X189649000Y-69933816D01*
X189649000Y-69766184D01*
X189681703Y-69601772D01*
X189745853Y-69446900D01*
X189838985Y-69307519D01*
X189957519Y-69188985D01*
X190096900Y-69095853D01*
X190251772Y-69031703D01*
X190416184Y-68999000D01*
X190583816Y-68999000D01*
X190748228Y-69031703D01*
G37*
G36*
X198368228Y-69031703D02*
G01*
X198523100Y-69095853D01*
X198662481Y-69188985D01*
X198781015Y-69307519D01*
X198874147Y-69446900D01*
X198938297Y-69601772D01*
X198971000Y-69766184D01*
X198971000Y-69933816D01*
X198938297Y-70098228D01*
X198874147Y-70253100D01*
X198781015Y-70392481D01*
X198662481Y-70511015D01*
X198523100Y-70604147D01*
X198368228Y-70668297D01*
X198203816Y-70701000D01*
X198036184Y-70701000D01*
X197871772Y-70668297D01*
X197716900Y-70604147D01*
X197577519Y-70511015D01*
X197458985Y-70392481D01*
X197365853Y-70253100D01*
X197301703Y-70098228D01*
X197269000Y-69933816D01*
X197269000Y-69766184D01*
X197301703Y-69601772D01*
X197365853Y-69446900D01*
X197458985Y-69307519D01*
X197577519Y-69188985D01*
X197716900Y-69095853D01*
X197871772Y-69031703D01*
X198036184Y-68999000D01*
X198203816Y-68999000D01*
X198368228Y-69031703D01*
G37*
G36*
X232658228Y-69031703D02*
G01*
X232813100Y-69095853D01*
X232952481Y-69188985D01*
X233071015Y-69307519D01*
X233164147Y-69446900D01*
X233228297Y-69601772D01*
X233261000Y-69766184D01*
X233261000Y-69933816D01*
X233228297Y-70098228D01*
X233164147Y-70253100D01*
X233071015Y-70392481D01*
X232952481Y-70511015D01*
X232813100Y-70604147D01*
X232658228Y-70668297D01*
X232493816Y-70701000D01*
X232326184Y-70701000D01*
X232161772Y-70668297D01*
X232006900Y-70604147D01*
X231867519Y-70511015D01*
X231748985Y-70392481D01*
X231655853Y-70253100D01*
X231591703Y-70098228D01*
X231559000Y-69933816D01*
X231559000Y-69766184D01*
X231591703Y-69601772D01*
X231655853Y-69446900D01*
X231748985Y-69307519D01*
X231867519Y-69188985D01*
X232006900Y-69095853D01*
X232161772Y-69031703D01*
X232326184Y-68999000D01*
X232493816Y-68999000D01*
X232658228Y-69031703D01*
G37*
G36*
X212203512Y-66413927D02*
G01*
X212352812Y-66443624D01*
X212516784Y-66511544D01*
X212664354Y-66610147D01*
X212789853Y-66735646D01*
X212888456Y-66883216D01*
X212956376Y-67047188D01*
X212991000Y-67221259D01*
X212991000Y-67398741D01*
X212956376Y-67572812D01*
X212888456Y-67736784D01*
X212789853Y-67884354D01*
X212664354Y-68009853D01*
X212516784Y-68108456D01*
X212352812Y-68176376D01*
X212203512Y-68206073D01*
X212178742Y-68211000D01*
X212001258Y-68211000D01*
X211976488Y-68206073D01*
X211827188Y-68176376D01*
X211663216Y-68108456D01*
X211515646Y-68009853D01*
X211390147Y-67884354D01*
X211291544Y-67736784D01*
X211223624Y-67572812D01*
X211189000Y-67398741D01*
X211189000Y-67221259D01*
X211223624Y-67047188D01*
X211291544Y-66883216D01*
X211390147Y-66735646D01*
X211515646Y-66610147D01*
X211663216Y-66511544D01*
X211827188Y-66443624D01*
X211976488Y-66413927D01*
X212001258Y-66409000D01*
X212178742Y-66409000D01*
X212203512Y-66413927D01*
G37*
G36*
X209663512Y-66413927D02*
G01*
X209812812Y-66443624D01*
X209976784Y-66511544D01*
X210124354Y-66610147D01*
X210249853Y-66735646D01*
X210348456Y-66883216D01*
X210416376Y-67047188D01*
X210451000Y-67221259D01*
X210451000Y-67398741D01*
X210416376Y-67572812D01*
X210348456Y-67736784D01*
X210249853Y-67884354D01*
X210124354Y-68009853D01*
X209976784Y-68108456D01*
X209812812Y-68176376D01*
X209663512Y-68206073D01*
X209638742Y-68211000D01*
X209461258Y-68211000D01*
X209436488Y-68206073D01*
X209287188Y-68176376D01*
X209123216Y-68108456D01*
X208975646Y-68009853D01*
X208850147Y-67884354D01*
X208751544Y-67736784D01*
X208683624Y-67572812D01*
X208649000Y-67398741D01*
X208649000Y-67221259D01*
X208683624Y-67047188D01*
X208751544Y-66883216D01*
X208850147Y-66735646D01*
X208975646Y-66610147D01*
X209123216Y-66511544D01*
X209287188Y-66443624D01*
X209436488Y-66413927D01*
X209461258Y-66409000D01*
X209638742Y-66409000D01*
X209663512Y-66413927D01*
G37*
G36*
X207911000Y-68211000D02*
G01*
X206109000Y-68211000D01*
X206109000Y-66409000D01*
X207911000Y-66409000D01*
X207911000Y-68211000D01*
G37*
G36*
X214743512Y-66413927D02*
G01*
X214892812Y-66443624D01*
X215056784Y-66511544D01*
X215204354Y-66610147D01*
X215329853Y-66735646D01*
X215428456Y-66883216D01*
X215496376Y-67047188D01*
X215531000Y-67221259D01*
X215531000Y-67398741D01*
X215496376Y-67572812D01*
X215428456Y-67736784D01*
X215329853Y-67884354D01*
X215204354Y-68009853D01*
X215056784Y-68108456D01*
X214892812Y-68176376D01*
X214743512Y-68206073D01*
X214718742Y-68211000D01*
X214541258Y-68211000D01*
X214516488Y-68206073D01*
X214367188Y-68176376D01*
X214203216Y-68108456D01*
X214055646Y-68009853D01*
X213930147Y-67884354D01*
X213831544Y-67736784D01*
X213763624Y-67572812D01*
X213729000Y-67398741D01*
X213729000Y-67221259D01*
X213763624Y-67047188D01*
X213831544Y-66883216D01*
X213930147Y-66735646D01*
X214055646Y-66610147D01*
X214203216Y-66511544D01*
X214367188Y-66443624D01*
X214516488Y-66413927D01*
X214541258Y-66409000D01*
X214718742Y-66409000D01*
X214743512Y-66413927D01*
G37*
G36*
X217283512Y-66413927D02*
G01*
X217432812Y-66443624D01*
X217596784Y-66511544D01*
X217744354Y-66610147D01*
X217869853Y-66735646D01*
X217968456Y-66883216D01*
X218036376Y-67047188D01*
X218071000Y-67221259D01*
X218071000Y-67398741D01*
X218036376Y-67572812D01*
X217968456Y-67736784D01*
X217869853Y-67884354D01*
X217744354Y-68009853D01*
X217596784Y-68108456D01*
X217432812Y-68176376D01*
X217283512Y-68206073D01*
X217258742Y-68211000D01*
X217081258Y-68211000D01*
X217056488Y-68206073D01*
X216907188Y-68176376D01*
X216743216Y-68108456D01*
X216595646Y-68009853D01*
X216470147Y-67884354D01*
X216371544Y-67736784D01*
X216303624Y-67572812D01*
X216269000Y-67398741D01*
X216269000Y-67221259D01*
X216303624Y-67047188D01*
X216371544Y-66883216D01*
X216470147Y-66735646D01*
X216595646Y-66610147D01*
X216743216Y-66511544D01*
X216907188Y-66443624D01*
X217056488Y-66413927D01*
X217081258Y-66409000D01*
X217258742Y-66409000D01*
X217283512Y-66413927D01*
G37*
G36*
X232658228Y-66491703D02*
G01*
X232813100Y-66555853D01*
X232952481Y-66648985D01*
X233071015Y-66767519D01*
X233164147Y-66906900D01*
X233228297Y-67061772D01*
X233261000Y-67226184D01*
X233261000Y-67393816D01*
X233228297Y-67558228D01*
X233164147Y-67713100D01*
X233071015Y-67852481D01*
X232952481Y-67971015D01*
X232813100Y-68064147D01*
X232658228Y-68128297D01*
X232493816Y-68161000D01*
X232326184Y-68161000D01*
X232161772Y-68128297D01*
X232006900Y-68064147D01*
X231867519Y-67971015D01*
X231748985Y-67852481D01*
X231655853Y-67713100D01*
X231591703Y-67558228D01*
X231559000Y-67393816D01*
X231559000Y-67226184D01*
X231591703Y-67061772D01*
X231655853Y-66906900D01*
X231748985Y-66767519D01*
X231867519Y-66648985D01*
X232006900Y-66555853D01*
X232161772Y-66491703D01*
X232326184Y-66459000D01*
X232493816Y-66459000D01*
X232658228Y-66491703D01*
G37*
G36*
X198368228Y-66491703D02*
G01*
X198523100Y-66555853D01*
X198662481Y-66648985D01*
X198781015Y-66767519D01*
X198874147Y-66906900D01*
X198938297Y-67061772D01*
X198971000Y-67226184D01*
X198971000Y-67393816D01*
X198938297Y-67558228D01*
X198874147Y-67713100D01*
X198781015Y-67852481D01*
X198662481Y-67971015D01*
X198523100Y-68064147D01*
X198368228Y-68128297D01*
X198203816Y-68161000D01*
X198036184Y-68161000D01*
X197871772Y-68128297D01*
X197716900Y-68064147D01*
X197577519Y-67971015D01*
X197458985Y-67852481D01*
X197365853Y-67713100D01*
X197301703Y-67558228D01*
X197269000Y-67393816D01*
X197269000Y-67226184D01*
X197301703Y-67061772D01*
X197365853Y-66906900D01*
X197458985Y-66767519D01*
X197577519Y-66648985D01*
X197716900Y-66555853D01*
X197871772Y-66491703D01*
X198036184Y-66459000D01*
X198203816Y-66459000D01*
X198368228Y-66491703D01*
G37*
G36*
X225038228Y-66491703D02*
G01*
X225193100Y-66555853D01*
X225332481Y-66648985D01*
X225451015Y-66767519D01*
X225544147Y-66906900D01*
X225608297Y-67061772D01*
X225641000Y-67226184D01*
X225641000Y-67393816D01*
X225608297Y-67558228D01*
X225544147Y-67713100D01*
X225451015Y-67852481D01*
X225332481Y-67971015D01*
X225193100Y-68064147D01*
X225038228Y-68128297D01*
X224873816Y-68161000D01*
X224706184Y-68161000D01*
X224541772Y-68128297D01*
X224386900Y-68064147D01*
X224247519Y-67971015D01*
X224128985Y-67852481D01*
X224035853Y-67713100D01*
X223971703Y-67558228D01*
X223939000Y-67393816D01*
X223939000Y-67226184D01*
X223971703Y-67061772D01*
X224035853Y-66906900D01*
X224128985Y-66767519D01*
X224247519Y-66648985D01*
X224386900Y-66555853D01*
X224541772Y-66491703D01*
X224706184Y-66459000D01*
X224873816Y-66459000D01*
X225038228Y-66491703D01*
G37*
G36*
X190748228Y-66491703D02*
G01*
X190903100Y-66555853D01*
X191042481Y-66648985D01*
X191161015Y-66767519D01*
X191254147Y-66906900D01*
X191318297Y-67061772D01*
X191351000Y-67226184D01*
X191351000Y-67393816D01*
X191318297Y-67558228D01*
X191254147Y-67713100D01*
X191161015Y-67852481D01*
X191042481Y-67971015D01*
X190903100Y-68064147D01*
X190748228Y-68128297D01*
X190583816Y-68161000D01*
X190416184Y-68161000D01*
X190251772Y-68128297D01*
X190096900Y-68064147D01*
X189957519Y-67971015D01*
X189838985Y-67852481D01*
X189745853Y-67713100D01*
X189681703Y-67558228D01*
X189649000Y-67393816D01*
X189649000Y-67226184D01*
X189681703Y-67061772D01*
X189745853Y-66906900D01*
X189838985Y-66767519D01*
X189957519Y-66648985D01*
X190096900Y-66555853D01*
X190251772Y-66491703D01*
X190416184Y-66459000D01*
X190583816Y-66459000D01*
X190748228Y-66491703D01*
G37*
G36*
X217283512Y-63873927D02*
G01*
X217432812Y-63903624D01*
X217596784Y-63971544D01*
X217744354Y-64070147D01*
X217869853Y-64195646D01*
X217968456Y-64343216D01*
X218036376Y-64507188D01*
X218071000Y-64681259D01*
X218071000Y-64858741D01*
X218036376Y-65032812D01*
X217968456Y-65196784D01*
X217869853Y-65344354D01*
X217744354Y-65469853D01*
X217596784Y-65568456D01*
X217432812Y-65636376D01*
X217283512Y-65666073D01*
X217258742Y-65671000D01*
X217081258Y-65671000D01*
X217056488Y-65666073D01*
X216907188Y-65636376D01*
X216743216Y-65568456D01*
X216595646Y-65469853D01*
X216470147Y-65344354D01*
X216371544Y-65196784D01*
X216303624Y-65032812D01*
X216269000Y-64858741D01*
X216269000Y-64681259D01*
X216303624Y-64507188D01*
X216371544Y-64343216D01*
X216470147Y-64195646D01*
X216595646Y-64070147D01*
X216743216Y-63971544D01*
X216907188Y-63903624D01*
X217056488Y-63873927D01*
X217081258Y-63869000D01*
X217258742Y-63869000D01*
X217283512Y-63873927D01*
G37*
G36*
X212203512Y-63873927D02*
G01*
X212352812Y-63903624D01*
X212516784Y-63971544D01*
X212664354Y-64070147D01*
X212789853Y-64195646D01*
X212888456Y-64343216D01*
X212956376Y-64507188D01*
X212991000Y-64681259D01*
X212991000Y-64858741D01*
X212956376Y-65032812D01*
X212888456Y-65196784D01*
X212789853Y-65344354D01*
X212664354Y-65469853D01*
X212516784Y-65568456D01*
X212352812Y-65636376D01*
X212203512Y-65666073D01*
X212178742Y-65671000D01*
X212001258Y-65671000D01*
X211976488Y-65666073D01*
X211827188Y-65636376D01*
X211663216Y-65568456D01*
X211515646Y-65469853D01*
X211390147Y-65344354D01*
X211291544Y-65196784D01*
X211223624Y-65032812D01*
X211189000Y-64858741D01*
X211189000Y-64681259D01*
X211223624Y-64507188D01*
X211291544Y-64343216D01*
X211390147Y-64195646D01*
X211515646Y-64070147D01*
X211663216Y-63971544D01*
X211827188Y-63903624D01*
X211976488Y-63873927D01*
X212001258Y-63869000D01*
X212178742Y-63869000D01*
X212203512Y-63873927D01*
G37*
G36*
X214743512Y-63873927D02*
G01*
X214892812Y-63903624D01*
X215056784Y-63971544D01*
X215204354Y-64070147D01*
X215329853Y-64195646D01*
X215428456Y-64343216D01*
X215496376Y-64507188D01*
X215531000Y-64681259D01*
X215531000Y-64858741D01*
X215496376Y-65032812D01*
X215428456Y-65196784D01*
X215329853Y-65344354D01*
X215204354Y-65469853D01*
X215056784Y-65568456D01*
X214892812Y-65636376D01*
X214743512Y-65666073D01*
X214718742Y-65671000D01*
X214541258Y-65671000D01*
X214516488Y-65666073D01*
X214367188Y-65636376D01*
X214203216Y-65568456D01*
X214055646Y-65469853D01*
X213930147Y-65344354D01*
X213831544Y-65196784D01*
X213763624Y-65032812D01*
X213729000Y-64858741D01*
X213729000Y-64681259D01*
X213763624Y-64507188D01*
X213831544Y-64343216D01*
X213930147Y-64195646D01*
X214055646Y-64070147D01*
X214203216Y-63971544D01*
X214367188Y-63903624D01*
X214516488Y-63873927D01*
X214541258Y-63869000D01*
X214718742Y-63869000D01*
X214743512Y-63873927D01*
G37*
G36*
X209663512Y-63873927D02*
G01*
X209812812Y-63903624D01*
X209976784Y-63971544D01*
X210124354Y-64070147D01*
X210249853Y-64195646D01*
X210348456Y-64343216D01*
X210416376Y-64507188D01*
X210451000Y-64681259D01*
X210451000Y-64858741D01*
X210416376Y-65032812D01*
X210348456Y-65196784D01*
X210249853Y-65344354D01*
X210124354Y-65469853D01*
X209976784Y-65568456D01*
X209812812Y-65636376D01*
X209663512Y-65666073D01*
X209638742Y-65671000D01*
X209461258Y-65671000D01*
X209436488Y-65666073D01*
X209287188Y-65636376D01*
X209123216Y-65568456D01*
X208975646Y-65469853D01*
X208850147Y-65344354D01*
X208751544Y-65196784D01*
X208683624Y-65032812D01*
X208649000Y-64858741D01*
X208649000Y-64681259D01*
X208683624Y-64507188D01*
X208751544Y-64343216D01*
X208850147Y-64195646D01*
X208975646Y-64070147D01*
X209123216Y-63971544D01*
X209287188Y-63903624D01*
X209436488Y-63873927D01*
X209461258Y-63869000D01*
X209638742Y-63869000D01*
X209663512Y-63873927D01*
G37*
G36*
X207123512Y-63873927D02*
G01*
X207272812Y-63903624D01*
X207436784Y-63971544D01*
X207584354Y-64070147D01*
X207709853Y-64195646D01*
X207808456Y-64343216D01*
X207876376Y-64507188D01*
X207911000Y-64681259D01*
X207911000Y-64858741D01*
X207876376Y-65032812D01*
X207808456Y-65196784D01*
X207709853Y-65344354D01*
X207584354Y-65469853D01*
X207436784Y-65568456D01*
X207272812Y-65636376D01*
X207123512Y-65666073D01*
X207098742Y-65671000D01*
X206921258Y-65671000D01*
X206896488Y-65666073D01*
X206747188Y-65636376D01*
X206583216Y-65568456D01*
X206435646Y-65469853D01*
X206310147Y-65344354D01*
X206211544Y-65196784D01*
X206143624Y-65032812D01*
X206109000Y-64858741D01*
X206109000Y-64681259D01*
X206143624Y-64507188D01*
X206211544Y-64343216D01*
X206310147Y-64195646D01*
X206435646Y-64070147D01*
X206583216Y-63971544D01*
X206747188Y-63903624D01*
X206896488Y-63873927D01*
X206921258Y-63869000D01*
X207098742Y-63869000D01*
X207123512Y-63873927D01*
G37*
G36*
X190748228Y-63951703D02*
G01*
X190903100Y-64015853D01*
X191042481Y-64108985D01*
X191161015Y-64227519D01*
X191254147Y-64366900D01*
X191318297Y-64521772D01*
X191351000Y-64686184D01*
X191351000Y-64853816D01*
X191318297Y-65018228D01*
X191254147Y-65173100D01*
X191161015Y-65312481D01*
X191042481Y-65431015D01*
X190903100Y-65524147D01*
X190748228Y-65588297D01*
X190583816Y-65621000D01*
X190416184Y-65621000D01*
X190251772Y-65588297D01*
X190096900Y-65524147D01*
X189957519Y-65431015D01*
X189838985Y-65312481D01*
X189745853Y-65173100D01*
X189681703Y-65018228D01*
X189649000Y-64853816D01*
X189649000Y-64686184D01*
X189681703Y-64521772D01*
X189745853Y-64366900D01*
X189838985Y-64227519D01*
X189957519Y-64108985D01*
X190096900Y-64015853D01*
X190251772Y-63951703D01*
X190416184Y-63919000D01*
X190583816Y-63919000D01*
X190748228Y-63951703D01*
G37*
G36*
X198368228Y-63951703D02*
G01*
X198523100Y-64015853D01*
X198662481Y-64108985D01*
X198781015Y-64227519D01*
X198874147Y-64366900D01*
X198938297Y-64521772D01*
X198971000Y-64686184D01*
X198971000Y-64853816D01*
X198938297Y-65018228D01*
X198874147Y-65173100D01*
X198781015Y-65312481D01*
X198662481Y-65431015D01*
X198523100Y-65524147D01*
X198368228Y-65588297D01*
X198203816Y-65621000D01*
X198036184Y-65621000D01*
X197871772Y-65588297D01*
X197716900Y-65524147D01*
X197577519Y-65431015D01*
X197458985Y-65312481D01*
X197365853Y-65173100D01*
X197301703Y-65018228D01*
X197269000Y-64853816D01*
X197269000Y-64686184D01*
X197301703Y-64521772D01*
X197365853Y-64366900D01*
X197458985Y-64227519D01*
X197577519Y-64108985D01*
X197716900Y-64015853D01*
X197871772Y-63951703D01*
X198036184Y-63919000D01*
X198203816Y-63919000D01*
X198368228Y-63951703D01*
G37*
G36*
X225038228Y-63951703D02*
G01*
X225193100Y-64015853D01*
X225332481Y-64108985D01*
X225451015Y-64227519D01*
X225544147Y-64366900D01*
X225608297Y-64521772D01*
X225641000Y-64686184D01*
X225641000Y-64853816D01*
X225608297Y-65018228D01*
X225544147Y-65173100D01*
X225451015Y-65312481D01*
X225332481Y-65431015D01*
X225193100Y-65524147D01*
X225038228Y-65588297D01*
X224873816Y-65621000D01*
X224706184Y-65621000D01*
X224541772Y-65588297D01*
X224386900Y-65524147D01*
X224247519Y-65431015D01*
X224128985Y-65312481D01*
X224035853Y-65173100D01*
X223971703Y-65018228D01*
X223939000Y-64853816D01*
X223939000Y-64686184D01*
X223971703Y-64521772D01*
X224035853Y-64366900D01*
X224128985Y-64227519D01*
X224247519Y-64108985D01*
X224386900Y-64015853D01*
X224541772Y-63951703D01*
X224706184Y-63919000D01*
X224873816Y-63919000D01*
X225038228Y-63951703D01*
G37*
G36*
X232658228Y-63951703D02*
G01*
X232813100Y-64015853D01*
X232952481Y-64108985D01*
X233071015Y-64227519D01*
X233164147Y-64366900D01*
X233228297Y-64521772D01*
X233261000Y-64686184D01*
X233261000Y-64853816D01*
X233228297Y-65018228D01*
X233164147Y-65173100D01*
X233071015Y-65312481D01*
X232952481Y-65431015D01*
X232813100Y-65524147D01*
X232658228Y-65588297D01*
X232493816Y-65621000D01*
X232326184Y-65621000D01*
X232161772Y-65588297D01*
X232006900Y-65524147D01*
X231867519Y-65431015D01*
X231748985Y-65312481D01*
X231655853Y-65173100D01*
X231591703Y-65018228D01*
X231559000Y-64853816D01*
X231559000Y-64686184D01*
X231591703Y-64521772D01*
X231655853Y-64366900D01*
X231748985Y-64227519D01*
X231867519Y-64108985D01*
X232006900Y-64015853D01*
X232161772Y-63951703D01*
X232326184Y-63919000D01*
X232493816Y-63919000D01*
X232658228Y-63951703D01*
G37*
G36*
X232658228Y-61411703D02*
G01*
X232813100Y-61475853D01*
X232952481Y-61568985D01*
X233071015Y-61687519D01*
X233164147Y-61826900D01*
X233228297Y-61981772D01*
X233261000Y-62146184D01*
X233261000Y-62313816D01*
X233228297Y-62478228D01*
X233164147Y-62633100D01*
X233071015Y-62772481D01*
X232952481Y-62891015D01*
X232813100Y-62984147D01*
X232658228Y-63048297D01*
X232493816Y-63081000D01*
X232326184Y-63081000D01*
X232161772Y-63048297D01*
X232006900Y-62984147D01*
X231867519Y-62891015D01*
X231748985Y-62772481D01*
X231655853Y-62633100D01*
X231591703Y-62478228D01*
X231559000Y-62313816D01*
X231559000Y-62146184D01*
X231591703Y-61981772D01*
X231655853Y-61826900D01*
X231748985Y-61687519D01*
X231867519Y-61568985D01*
X232006900Y-61475853D01*
X232161772Y-61411703D01*
X232326184Y-61379000D01*
X232493816Y-61379000D01*
X232658228Y-61411703D01*
G37*
G36*
X225038228Y-61411703D02*
G01*
X225193100Y-61475853D01*
X225332481Y-61568985D01*
X225451015Y-61687519D01*
X225544147Y-61826900D01*
X225608297Y-61981772D01*
X225641000Y-62146184D01*
X225641000Y-62313816D01*
X225608297Y-62478228D01*
X225544147Y-62633100D01*
X225451015Y-62772481D01*
X225332481Y-62891015D01*
X225193100Y-62984147D01*
X225038228Y-63048297D01*
X224873816Y-63081000D01*
X224706184Y-63081000D01*
X224541772Y-63048297D01*
X224386900Y-62984147D01*
X224247519Y-62891015D01*
X224128985Y-62772481D01*
X224035853Y-62633100D01*
X223971703Y-62478228D01*
X223939000Y-62313816D01*
X223939000Y-62146184D01*
X223971703Y-61981772D01*
X224035853Y-61826900D01*
X224128985Y-61687519D01*
X224247519Y-61568985D01*
X224386900Y-61475853D01*
X224541772Y-61411703D01*
X224706184Y-61379000D01*
X224873816Y-61379000D01*
X225038228Y-61411703D01*
G37*
G36*
X198368228Y-61411703D02*
G01*
X198523100Y-61475853D01*
X198662481Y-61568985D01*
X198781015Y-61687519D01*
X198874147Y-61826900D01*
X198938297Y-61981772D01*
X198971000Y-62146184D01*
X198971000Y-62313816D01*
X198938297Y-62478228D01*
X198874147Y-62633100D01*
X198781015Y-62772481D01*
X198662481Y-62891015D01*
X198523100Y-62984147D01*
X198368228Y-63048297D01*
X198203816Y-63081000D01*
X198036184Y-63081000D01*
X197871772Y-63048297D01*
X197716900Y-62984147D01*
X197577519Y-62891015D01*
X197458985Y-62772481D01*
X197365853Y-62633100D01*
X197301703Y-62478228D01*
X197269000Y-62313816D01*
X197269000Y-62146184D01*
X197301703Y-61981772D01*
X197365853Y-61826900D01*
X197458985Y-61687519D01*
X197577519Y-61568985D01*
X197716900Y-61475853D01*
X197871772Y-61411703D01*
X198036184Y-61379000D01*
X198203816Y-61379000D01*
X198368228Y-61411703D01*
G37*
G36*
X190748228Y-61411703D02*
G01*
X190903100Y-61475853D01*
X191042481Y-61568985D01*
X191161015Y-61687519D01*
X191254147Y-61826900D01*
X191318297Y-61981772D01*
X191351000Y-62146184D01*
X191351000Y-62313816D01*
X191318297Y-62478228D01*
X191254147Y-62633100D01*
X191161015Y-62772481D01*
X191042481Y-62891015D01*
X190903100Y-62984147D01*
X190748228Y-63048297D01*
X190583816Y-63081000D01*
X190416184Y-63081000D01*
X190251772Y-63048297D01*
X190096900Y-62984147D01*
X189957519Y-62891015D01*
X189838985Y-62772481D01*
X189745853Y-62633100D01*
X189681703Y-62478228D01*
X189649000Y-62313816D01*
X189649000Y-62146184D01*
X189681703Y-61981772D01*
X189745853Y-61826900D01*
X189838985Y-61687519D01*
X189957519Y-61568985D01*
X190096900Y-61475853D01*
X190251772Y-61411703D01*
X190416184Y-61379000D01*
X190583816Y-61379000D01*
X190748228Y-61411703D01*
G37*
G36*
X198368228Y-58871703D02*
G01*
X198523100Y-58935853D01*
X198662481Y-59028985D01*
X198781015Y-59147519D01*
X198874147Y-59286900D01*
X198938297Y-59441772D01*
X198971000Y-59606184D01*
X198971000Y-59773816D01*
X198938297Y-59938228D01*
X198874147Y-60093100D01*
X198781015Y-60232481D01*
X198662481Y-60351015D01*
X198523100Y-60444147D01*
X198368228Y-60508297D01*
X198203816Y-60541000D01*
X198036184Y-60541000D01*
X197871772Y-60508297D01*
X197716900Y-60444147D01*
X197577519Y-60351015D01*
X197458985Y-60232481D01*
X197365853Y-60093100D01*
X197301703Y-59938228D01*
X197269000Y-59773816D01*
X197269000Y-59606184D01*
X197301703Y-59441772D01*
X197365853Y-59286900D01*
X197458985Y-59147519D01*
X197577519Y-59028985D01*
X197716900Y-58935853D01*
X197871772Y-58871703D01*
X198036184Y-58839000D01*
X198203816Y-58839000D01*
X198368228Y-58871703D01*
G37*
G36*
X232658228Y-58871703D02*
G01*
X232813100Y-58935853D01*
X232952481Y-59028985D01*
X233071015Y-59147519D01*
X233164147Y-59286900D01*
X233228297Y-59441772D01*
X233261000Y-59606184D01*
X233261000Y-59773816D01*
X233228297Y-59938228D01*
X233164147Y-60093100D01*
X233071015Y-60232481D01*
X232952481Y-60351015D01*
X232813100Y-60444147D01*
X232658228Y-60508297D01*
X232493816Y-60541000D01*
X232326184Y-60541000D01*
X232161772Y-60508297D01*
X232006900Y-60444147D01*
X231867519Y-60351015D01*
X231748985Y-60232481D01*
X231655853Y-60093100D01*
X231591703Y-59938228D01*
X231559000Y-59773816D01*
X231559000Y-59606184D01*
X231591703Y-59441772D01*
X231655853Y-59286900D01*
X231748985Y-59147519D01*
X231867519Y-59028985D01*
X232006900Y-58935853D01*
X232161772Y-58871703D01*
X232326184Y-58839000D01*
X232493816Y-58839000D01*
X232658228Y-58871703D01*
G37*
G36*
X225038228Y-58871703D02*
G01*
X225193100Y-58935853D01*
X225332481Y-59028985D01*
X225451015Y-59147519D01*
X225544147Y-59286900D01*
X225608297Y-59441772D01*
X225641000Y-59606184D01*
X225641000Y-59773816D01*
X225608297Y-59938228D01*
X225544147Y-60093100D01*
X225451015Y-60232481D01*
X225332481Y-60351015D01*
X225193100Y-60444147D01*
X225038228Y-60508297D01*
X224873816Y-60541000D01*
X224706184Y-60541000D01*
X224541772Y-60508297D01*
X224386900Y-60444147D01*
X224247519Y-60351015D01*
X224128985Y-60232481D01*
X224035853Y-60093100D01*
X223971703Y-59938228D01*
X223939000Y-59773816D01*
X223939000Y-59606184D01*
X223971703Y-59441772D01*
X224035853Y-59286900D01*
X224128985Y-59147519D01*
X224247519Y-59028985D01*
X224386900Y-58935853D01*
X224541772Y-58871703D01*
X224706184Y-58839000D01*
X224873816Y-58839000D01*
X225038228Y-58871703D01*
G37*
G36*
X190748228Y-58871703D02*
G01*
X190903100Y-58935853D01*
X191042481Y-59028985D01*
X191161015Y-59147519D01*
X191254147Y-59286900D01*
X191318297Y-59441772D01*
X191351000Y-59606184D01*
X191351000Y-59773816D01*
X191318297Y-59938228D01*
X191254147Y-60093100D01*
X191161015Y-60232481D01*
X191042481Y-60351015D01*
X190903100Y-60444147D01*
X190748228Y-60508297D01*
X190583816Y-60541000D01*
X190416184Y-60541000D01*
X190251772Y-60508297D01*
X190096900Y-60444147D01*
X189957519Y-60351015D01*
X189838985Y-60232481D01*
X189745853Y-60093100D01*
X189681703Y-59938228D01*
X189649000Y-59773816D01*
X189649000Y-59606184D01*
X189681703Y-59441772D01*
X189745853Y-59286900D01*
X189838985Y-59147519D01*
X189957519Y-59028985D01*
X190096900Y-58935853D01*
X190251772Y-58871703D01*
X190416184Y-58839000D01*
X190583816Y-58839000D01*
X190748228Y-58871703D01*
G37*
G36*
X217418228Y-58791703D02*
G01*
X217573100Y-58855853D01*
X217712481Y-58948985D01*
X217831015Y-59067519D01*
X217924147Y-59206900D01*
X217988297Y-59361772D01*
X218021000Y-59526184D01*
X218021000Y-59693816D01*
X217988297Y-59858228D01*
X217924147Y-60013100D01*
X217831015Y-60152481D01*
X217712481Y-60271015D01*
X217573100Y-60364147D01*
X217418228Y-60428297D01*
X217253816Y-60461000D01*
X217086184Y-60461000D01*
X216921772Y-60428297D01*
X216766900Y-60364147D01*
X216627519Y-60271015D01*
X216508985Y-60152481D01*
X216415853Y-60013100D01*
X216351703Y-59858228D01*
X216319000Y-59693816D01*
X216319000Y-59526184D01*
X216351703Y-59361772D01*
X216415853Y-59206900D01*
X216508985Y-59067519D01*
X216627519Y-58948985D01*
X216766900Y-58855853D01*
X216921772Y-58791703D01*
X217086184Y-58759000D01*
X217253816Y-58759000D01*
X217418228Y-58791703D01*
G37*
G36*
X198368228Y-56331703D02*
G01*
X198523100Y-56395853D01*
X198662481Y-56488985D01*
X198781015Y-56607519D01*
X198874147Y-56746900D01*
X198938297Y-56901772D01*
X198971000Y-57066184D01*
X198971000Y-57233816D01*
X198938297Y-57398228D01*
X198874147Y-57553100D01*
X198781015Y-57692481D01*
X198662481Y-57811015D01*
X198523100Y-57904147D01*
X198368228Y-57968297D01*
X198203816Y-58001000D01*
X198036184Y-58001000D01*
X197871772Y-57968297D01*
X197716900Y-57904147D01*
X197577519Y-57811015D01*
X197458985Y-57692481D01*
X197365853Y-57553100D01*
X197301703Y-57398228D01*
X197269000Y-57233816D01*
X197269000Y-57066184D01*
X197301703Y-56901772D01*
X197365853Y-56746900D01*
X197458985Y-56607519D01*
X197577519Y-56488985D01*
X197716900Y-56395853D01*
X197871772Y-56331703D01*
X198036184Y-56299000D01*
X198203816Y-56299000D01*
X198368228Y-56331703D01*
G37*
G36*
X225641000Y-58001000D02*
G01*
X223939000Y-58001000D01*
X223939000Y-56299000D01*
X225641000Y-56299000D01*
X225641000Y-58001000D01*
G37*
G36*
X207861000Y-58001000D02*
G01*
X206159000Y-58001000D01*
X206159000Y-56299000D01*
X207861000Y-56299000D01*
X207861000Y-58001000D01*
G37*
G36*
X232658228Y-56331703D02*
G01*
X232813100Y-56395853D01*
X232952481Y-56488985D01*
X233071015Y-56607519D01*
X233164147Y-56746900D01*
X233228297Y-56901772D01*
X233261000Y-57066184D01*
X233261000Y-57233816D01*
X233228297Y-57398228D01*
X233164147Y-57553100D01*
X233071015Y-57692481D01*
X232952481Y-57811015D01*
X232813100Y-57904147D01*
X232658228Y-57968297D01*
X232493816Y-58001000D01*
X232326184Y-58001000D01*
X232161772Y-57968297D01*
X232006900Y-57904147D01*
X231867519Y-57811015D01*
X231748985Y-57692481D01*
X231655853Y-57553100D01*
X231591703Y-57398228D01*
X231559000Y-57233816D01*
X231559000Y-57066184D01*
X231591703Y-56901772D01*
X231655853Y-56746900D01*
X231748985Y-56607519D01*
X231867519Y-56488985D01*
X232006900Y-56395853D01*
X232161772Y-56331703D01*
X232326184Y-56299000D01*
X232493816Y-56299000D01*
X232658228Y-56331703D01*
G37*
G36*
X202258228Y-56331703D02*
G01*
X202413100Y-56395853D01*
X202552481Y-56488985D01*
X202671015Y-56607519D01*
X202764147Y-56746900D01*
X202828297Y-56901772D01*
X202861000Y-57066184D01*
X202861000Y-57233816D01*
X202828297Y-57398228D01*
X202764147Y-57553100D01*
X202671015Y-57692481D01*
X202552481Y-57811015D01*
X202413100Y-57904147D01*
X202258228Y-57968297D01*
X202093816Y-58001000D01*
X201926184Y-58001000D01*
X201761772Y-57968297D01*
X201606900Y-57904147D01*
X201467519Y-57811015D01*
X201348985Y-57692481D01*
X201255853Y-57553100D01*
X201191703Y-57398228D01*
X201159000Y-57233816D01*
X201159000Y-57066184D01*
X201191703Y-56901772D01*
X201255853Y-56746900D01*
X201348985Y-56607519D01*
X201467519Y-56488985D01*
X201606900Y-56395853D01*
X201761772Y-56331703D01*
X201926184Y-56299000D01*
X202093816Y-56299000D01*
X202258228Y-56331703D01*
G37*
G36*
X191351000Y-58001000D02*
G01*
X189649000Y-58001000D01*
X189649000Y-56299000D01*
X191351000Y-56299000D01*
X191351000Y-58001000D01*
G37*
G36*
X218021000Y-55461000D02*
G01*
X216319000Y-55461000D01*
X216319000Y-53759000D01*
X218021000Y-53759000D01*
X218021000Y-55461000D01*
G37*
G36*
X190748228Y-49981703D02*
G01*
X190903100Y-50045853D01*
X191042481Y-50138985D01*
X191161015Y-50257519D01*
X191254147Y-50396900D01*
X191318297Y-50551772D01*
X191351000Y-50716184D01*
X191351000Y-50883816D01*
X191318297Y-51048228D01*
X191254147Y-51203100D01*
X191161015Y-51342481D01*
X191042481Y-51461015D01*
X190903100Y-51554147D01*
X190748228Y-51618297D01*
X190583816Y-51651000D01*
X190416184Y-51651000D01*
X190251772Y-51618297D01*
X190096900Y-51554147D01*
X189957519Y-51461015D01*
X189838985Y-51342481D01*
X189745853Y-51203100D01*
X189681703Y-51048228D01*
X189649000Y-50883816D01*
X189649000Y-50716184D01*
X189681703Y-50551772D01*
X189745853Y-50396900D01*
X189838985Y-50257519D01*
X189957519Y-50138985D01*
X190096900Y-50045853D01*
X190251772Y-49981703D01*
X190416184Y-49949000D01*
X190583816Y-49949000D01*
X190748228Y-49981703D01*
G37*
G36*
X198971000Y-51651000D02*
G01*
X197269000Y-51651000D01*
X197269000Y-49949000D01*
X198971000Y-49949000D01*
X198971000Y-51651000D01*
G37*
G36*
X219958228Y-48711703D02*
G01*
X220113100Y-48775853D01*
X220252481Y-48868985D01*
X220371015Y-48987519D01*
X220464147Y-49126900D01*
X220528297Y-49281772D01*
X220561000Y-49446184D01*
X220561000Y-49613816D01*
X220528297Y-49778228D01*
X220464147Y-49933100D01*
X220371015Y-50072481D01*
X220252481Y-50191015D01*
X220113100Y-50284147D01*
X219958228Y-50348297D01*
X219793816Y-50381000D01*
X219626184Y-50381000D01*
X219461772Y-50348297D01*
X219306900Y-50284147D01*
X219167519Y-50191015D01*
X219048985Y-50072481D01*
X218955853Y-49933100D01*
X218891703Y-49778228D01*
X218859000Y-49613816D01*
X218859000Y-49446184D01*
X218891703Y-49281772D01*
X218955853Y-49126900D01*
X219048985Y-48987519D01*
X219167519Y-48868985D01*
X219306900Y-48775853D01*
X219461772Y-48711703D01*
X219626184Y-48679000D01*
X219793816Y-48679000D01*
X219958228Y-48711703D01*
G37*
G36*
X212338228Y-48711703D02*
G01*
X212493100Y-48775853D01*
X212632481Y-48868985D01*
X212751015Y-48987519D01*
X212844147Y-49126900D01*
X212908297Y-49281772D01*
X212941000Y-49446184D01*
X212941000Y-49613816D01*
X212908297Y-49778228D01*
X212844147Y-49933100D01*
X212751015Y-50072481D01*
X212632481Y-50191015D01*
X212493100Y-50284147D01*
X212338228Y-50348297D01*
X212173816Y-50381000D01*
X212006184Y-50381000D01*
X211841772Y-50348297D01*
X211686900Y-50284147D01*
X211547519Y-50191015D01*
X211428985Y-50072481D01*
X211335853Y-49933100D01*
X211271703Y-49778228D01*
X211239000Y-49613816D01*
X211239000Y-49446184D01*
X211271703Y-49281772D01*
X211335853Y-49126900D01*
X211428985Y-48987519D01*
X211547519Y-48868985D01*
X211686900Y-48775853D01*
X211841772Y-48711703D01*
X212006184Y-48679000D01*
X212173816Y-48679000D01*
X212338228Y-48711703D01*
G37*
G36*
X198368228Y-47441703D02*
G01*
X198523100Y-47505853D01*
X198662481Y-47598985D01*
X198781015Y-47717519D01*
X198874147Y-47856900D01*
X198938297Y-48011772D01*
X198971000Y-48176184D01*
X198971000Y-48343816D01*
X198938297Y-48508228D01*
X198874147Y-48663100D01*
X198781015Y-48802481D01*
X198662481Y-48921015D01*
X198523100Y-49014147D01*
X198368228Y-49078297D01*
X198203816Y-49111000D01*
X198036184Y-49111000D01*
X197871772Y-49078297D01*
X197716900Y-49014147D01*
X197577519Y-48921015D01*
X197458985Y-48802481D01*
X197365853Y-48663100D01*
X197301703Y-48508228D01*
X197269000Y-48343816D01*
X197269000Y-48176184D01*
X197301703Y-48011772D01*
X197365853Y-47856900D01*
X197458985Y-47717519D01*
X197577519Y-47598985D01*
X197716900Y-47505853D01*
X197871772Y-47441703D01*
X198036184Y-47409000D01*
X198203816Y-47409000D01*
X198368228Y-47441703D01*
G37*
G36*
X190748228Y-47441703D02*
G01*
X190903100Y-47505853D01*
X191042481Y-47598985D01*
X191161015Y-47717519D01*
X191254147Y-47856900D01*
X191318297Y-48011772D01*
X191351000Y-48176184D01*
X191351000Y-48343816D01*
X191318297Y-48508228D01*
X191254147Y-48663100D01*
X191161015Y-48802481D01*
X191042481Y-48921015D01*
X190903100Y-49014147D01*
X190748228Y-49078297D01*
X190583816Y-49111000D01*
X190416184Y-49111000D01*
X190251772Y-49078297D01*
X190096900Y-49014147D01*
X189957519Y-48921015D01*
X189838985Y-48802481D01*
X189745853Y-48663100D01*
X189681703Y-48508228D01*
X189649000Y-48343816D01*
X189649000Y-48176184D01*
X189681703Y-48011772D01*
X189745853Y-47856900D01*
X189838985Y-47717519D01*
X189957519Y-47598985D01*
X190096900Y-47505853D01*
X190251772Y-47441703D01*
X190416184Y-47409000D01*
X190583816Y-47409000D01*
X190748228Y-47441703D01*
G37*
G36*
X228994072Y-44340918D02*
G01*
X229239939Y-44442759D01*
X229351328Y-44517187D01*
X229461211Y-44590609D01*
X229649391Y-44778789D01*
X229797242Y-45000063D01*
X229899082Y-45245928D01*
X229951000Y-45506937D01*
X229951000Y-45773063D01*
X229899082Y-46034072D01*
X229797242Y-46279937D01*
X229667475Y-46474147D01*
X229649390Y-46501212D01*
X229461212Y-46689390D01*
X229239939Y-46837241D01*
X229239938Y-46837242D01*
X229239937Y-46837242D01*
X228994072Y-46939082D01*
X228733063Y-46991000D01*
X228466937Y-46991000D01*
X228205928Y-46939082D01*
X227960063Y-46837242D01*
X227960062Y-46837242D01*
X227960061Y-46837241D01*
X227738788Y-46689390D01*
X227550610Y-46501212D01*
X227532526Y-46474147D01*
X227402758Y-46279937D01*
X227300918Y-46034072D01*
X227249000Y-45773063D01*
X227249000Y-45506937D01*
X227300918Y-45245928D01*
X227402758Y-45000063D01*
X227550609Y-44778789D01*
X227738789Y-44590609D01*
X227848672Y-44517187D01*
X227960061Y-44442759D01*
X228205928Y-44340918D01*
X228466937Y-44289000D01*
X228733063Y-44289000D01*
X228994072Y-44340918D01*
G37*
G36*
X190748228Y-44901703D02*
G01*
X190903100Y-44965853D01*
X191042481Y-45058985D01*
X191161015Y-45177519D01*
X191254147Y-45316900D01*
X191318297Y-45471772D01*
X191351000Y-45636184D01*
X191351000Y-45803816D01*
X191318297Y-45968228D01*
X191254147Y-46123100D01*
X191161015Y-46262481D01*
X191042481Y-46381015D01*
X190903100Y-46474147D01*
X190748228Y-46538297D01*
X190583816Y-46571000D01*
X190416184Y-46571000D01*
X190251772Y-46538297D01*
X190096900Y-46474147D01*
X189957519Y-46381015D01*
X189838985Y-46262481D01*
X189745853Y-46123100D01*
X189681703Y-45968228D01*
X189649000Y-45803816D01*
X189649000Y-45636184D01*
X189681703Y-45471772D01*
X189745853Y-45316900D01*
X189838985Y-45177519D01*
X189957519Y-45058985D01*
X190096900Y-44965853D01*
X190251772Y-44901703D01*
X190416184Y-44869000D01*
X190583816Y-44869000D01*
X190748228Y-44901703D01*
G37*
G36*
X198368228Y-44901703D02*
G01*
X198523100Y-44965853D01*
X198662481Y-45058985D01*
X198781015Y-45177519D01*
X198874147Y-45316900D01*
X198938297Y-45471772D01*
X198971000Y-45636184D01*
X198971000Y-45803816D01*
X198938297Y-45968228D01*
X198874147Y-46123100D01*
X198781015Y-46262481D01*
X198662481Y-46381015D01*
X198523100Y-46474147D01*
X198368228Y-46538297D01*
X198203816Y-46571000D01*
X198036184Y-46571000D01*
X197871772Y-46538297D01*
X197716900Y-46474147D01*
X197577519Y-46381015D01*
X197458985Y-46262481D01*
X197365853Y-46123100D01*
X197301703Y-45968228D01*
X197269000Y-45803816D01*
X197269000Y-45636184D01*
X197301703Y-45471772D01*
X197365853Y-45316900D01*
X197458985Y-45177519D01*
X197577519Y-45058985D01*
X197716900Y-44965853D01*
X197871772Y-44901703D01*
X198036184Y-44869000D01*
X198203816Y-44869000D01*
X198368228Y-44901703D01*
G37*
G36*
X204718228Y-42361703D02*
G01*
X204873100Y-42425853D01*
X205012481Y-42518985D01*
X205131015Y-42637519D01*
X205224147Y-42776900D01*
X205288297Y-42931772D01*
X205321000Y-43096184D01*
X205321000Y-43263816D01*
X205288297Y-43428228D01*
X205224147Y-43583100D01*
X205131015Y-43722481D01*
X205012481Y-43841015D01*
X204873100Y-43934147D01*
X204718228Y-43998297D01*
X204553816Y-44031000D01*
X204386184Y-44031000D01*
X204221772Y-43998297D01*
X204066900Y-43934147D01*
X203927519Y-43841015D01*
X203808985Y-43722481D01*
X203715853Y-43583100D01*
X203651703Y-43428228D01*
X203619000Y-43263816D01*
X203619000Y-43096184D01*
X203651703Y-42931772D01*
X203715853Y-42776900D01*
X203808985Y-42637519D01*
X203927519Y-42518985D01*
X204066900Y-42425853D01*
X204221772Y-42361703D01*
X204386184Y-42329000D01*
X204553816Y-42329000D01*
X204718228Y-42361703D01*
G37*
G36*
X218688228Y-42361703D02*
G01*
X218843100Y-42425853D01*
X218982481Y-42518985D01*
X219101015Y-42637519D01*
X219194147Y-42776900D01*
X219258297Y-42931772D01*
X219291000Y-43096184D01*
X219291000Y-43263816D01*
X219258297Y-43428228D01*
X219194147Y-43583100D01*
X219101015Y-43722481D01*
X218982481Y-43841015D01*
X218843100Y-43934147D01*
X218688228Y-43998297D01*
X218523816Y-44031000D01*
X218356184Y-44031000D01*
X218191772Y-43998297D01*
X218036900Y-43934147D01*
X217897519Y-43841015D01*
X217778985Y-43722481D01*
X217685853Y-43583100D01*
X217621703Y-43428228D01*
X217589000Y-43263816D01*
X217589000Y-43096184D01*
X217621703Y-42931772D01*
X217685853Y-42776900D01*
X217778985Y-42637519D01*
X217897519Y-42518985D01*
X218036900Y-42425853D01*
X218191772Y-42361703D01*
X218356184Y-42329000D01*
X218523816Y-42329000D01*
X218688228Y-42361703D01*
G37*
G36*
X190748228Y-42361703D02*
G01*
X190903100Y-42425853D01*
X191042481Y-42518985D01*
X191161015Y-42637519D01*
X191254147Y-42776900D01*
X191318297Y-42931772D01*
X191351000Y-43096184D01*
X191351000Y-43263816D01*
X191318297Y-43428228D01*
X191254147Y-43583100D01*
X191161015Y-43722481D01*
X191042481Y-43841015D01*
X190903100Y-43934147D01*
X190748228Y-43998297D01*
X190583816Y-44031000D01*
X190416184Y-44031000D01*
X190251772Y-43998297D01*
X190096900Y-43934147D01*
X189957519Y-43841015D01*
X189838985Y-43722481D01*
X189745853Y-43583100D01*
X189681703Y-43428228D01*
X189649000Y-43263816D01*
X189649000Y-43096184D01*
X189681703Y-42931772D01*
X189745853Y-42776900D01*
X189838985Y-42637519D01*
X189957519Y-42518985D01*
X190096900Y-42425853D01*
X190251772Y-42361703D01*
X190416184Y-42329000D01*
X190583816Y-42329000D01*
X190748228Y-42361703D01*
G37*
G36*
X212338228Y-42361703D02*
G01*
X212493100Y-42425853D01*
X212632481Y-42518985D01*
X212751015Y-42637519D01*
X212844147Y-42776900D01*
X212908297Y-42931772D01*
X212941000Y-43096184D01*
X212941000Y-43263816D01*
X212908297Y-43428228D01*
X212844147Y-43583100D01*
X212751015Y-43722481D01*
X212632481Y-43841015D01*
X212493100Y-43934147D01*
X212338228Y-43998297D01*
X212173816Y-44031000D01*
X212006184Y-44031000D01*
X211841772Y-43998297D01*
X211686900Y-43934147D01*
X211547519Y-43841015D01*
X211428985Y-43722481D01*
X211335853Y-43583100D01*
X211271703Y-43428228D01*
X211239000Y-43263816D01*
X211239000Y-43096184D01*
X211271703Y-42931772D01*
X211335853Y-42776900D01*
X211428985Y-42637519D01*
X211547519Y-42518985D01*
X211686900Y-42425853D01*
X211841772Y-42361703D01*
X212006184Y-42329000D01*
X212173816Y-42329000D01*
X212338228Y-42361703D01*
G37*
G36*
X198368228Y-42361703D02*
G01*
X198523100Y-42425853D01*
X198662481Y-42518985D01*
X198781015Y-42637519D01*
X198874147Y-42776900D01*
X198938297Y-42931772D01*
X198971000Y-43096184D01*
X198971000Y-43263816D01*
X198938297Y-43428228D01*
X198874147Y-43583100D01*
X198781015Y-43722481D01*
X198662481Y-43841015D01*
X198523100Y-43934147D01*
X198368228Y-43998297D01*
X198203816Y-44031000D01*
X198036184Y-44031000D01*
X197871772Y-43998297D01*
X197716900Y-43934147D01*
X197577519Y-43841015D01*
X197458985Y-43722481D01*
X197365853Y-43583100D01*
X197301703Y-43428228D01*
X197269000Y-43263816D01*
X197269000Y-43096184D01*
X197301703Y-42931772D01*
X197365853Y-42776900D01*
X197458985Y-42637519D01*
X197577519Y-42518985D01*
X197716900Y-42425853D01*
X197871772Y-42361703D01*
X198036184Y-42329000D01*
X198203816Y-42329000D01*
X198368228Y-42361703D01*
G37*
G36*
X229951000Y-41991000D02*
G01*
X227249000Y-41991000D01*
X227249000Y-39289000D01*
X229951000Y-39289000D01*
X229951000Y-41991000D01*
G37*
G36*
X212338228Y-39821703D02*
G01*
X212493100Y-39885853D01*
X212632481Y-39978985D01*
X212751015Y-40097519D01*
X212844147Y-40236900D01*
X212908297Y-40391772D01*
X212941000Y-40556184D01*
X212941000Y-40723816D01*
X212908297Y-40888228D01*
X212844147Y-41043100D01*
X212751015Y-41182481D01*
X212632481Y-41301015D01*
X212493100Y-41394147D01*
X212338228Y-41458297D01*
X212173816Y-41491000D01*
X212006184Y-41491000D01*
X211841772Y-41458297D01*
X211686900Y-41394147D01*
X211547519Y-41301015D01*
X211428985Y-41182481D01*
X211335853Y-41043100D01*
X211271703Y-40888228D01*
X211239000Y-40723816D01*
X211239000Y-40556184D01*
X211271703Y-40391772D01*
X211335853Y-40236900D01*
X211428985Y-40097519D01*
X211547519Y-39978985D01*
X211686900Y-39885853D01*
X211841772Y-39821703D01*
X212006184Y-39789000D01*
X212173816Y-39789000D01*
X212338228Y-39821703D01*
G37*
G36*
X204718228Y-39821703D02*
G01*
X204873100Y-39885853D01*
X205012481Y-39978985D01*
X205131015Y-40097519D01*
X205224147Y-40236900D01*
X205288297Y-40391772D01*
X205321000Y-40556184D01*
X205321000Y-40723816D01*
X205288297Y-40888228D01*
X205224147Y-41043100D01*
X205131015Y-41182481D01*
X205012481Y-41301015D01*
X204873100Y-41394147D01*
X204718228Y-41458297D01*
X204553816Y-41491000D01*
X204386184Y-41491000D01*
X204221772Y-41458297D01*
X204066900Y-41394147D01*
X203927519Y-41301015D01*
X203808985Y-41182481D01*
X203715853Y-41043100D01*
X203651703Y-40888228D01*
X203619000Y-40723816D01*
X203619000Y-40556184D01*
X203651703Y-40391772D01*
X203715853Y-40236900D01*
X203808985Y-40097519D01*
X203927519Y-39978985D01*
X204066900Y-39885853D01*
X204221772Y-39821703D01*
X204386184Y-39789000D01*
X204553816Y-39789000D01*
X204718228Y-39821703D01*
G37*
G36*
X198368228Y-39821703D02*
G01*
X198523100Y-39885853D01*
X198662481Y-39978985D01*
X198781015Y-40097519D01*
X198874147Y-40236900D01*
X198938297Y-40391772D01*
X198971000Y-40556184D01*
X198971000Y-40723816D01*
X198938297Y-40888228D01*
X198874147Y-41043100D01*
X198781015Y-41182481D01*
X198662481Y-41301015D01*
X198523100Y-41394147D01*
X198368228Y-41458297D01*
X198203816Y-41491000D01*
X198036184Y-41491000D01*
X197871772Y-41458297D01*
X197716900Y-41394147D01*
X197577519Y-41301015D01*
X197458985Y-41182481D01*
X197365853Y-41043100D01*
X197301703Y-40888228D01*
X197269000Y-40723816D01*
X197269000Y-40556184D01*
X197301703Y-40391772D01*
X197365853Y-40236900D01*
X197458985Y-40097519D01*
X197577519Y-39978985D01*
X197716900Y-39885853D01*
X197871772Y-39821703D01*
X198036184Y-39789000D01*
X198203816Y-39789000D01*
X198368228Y-39821703D01*
G37*
G36*
X190748228Y-39821703D02*
G01*
X190903100Y-39885853D01*
X191042481Y-39978985D01*
X191161015Y-40097519D01*
X191254147Y-40236900D01*
X191318297Y-40391772D01*
X191351000Y-40556184D01*
X191351000Y-40723816D01*
X191318297Y-40888228D01*
X191254147Y-41043100D01*
X191161015Y-41182481D01*
X191042481Y-41301015D01*
X190903100Y-41394147D01*
X190748228Y-41458297D01*
X190583816Y-41491000D01*
X190416184Y-41491000D01*
X190251772Y-41458297D01*
X190096900Y-41394147D01*
X189957519Y-41301015D01*
X189838985Y-41182481D01*
X189745853Y-41043100D01*
X189681703Y-40888228D01*
X189649000Y-40723816D01*
X189649000Y-40556184D01*
X189681703Y-40391772D01*
X189745853Y-40236900D01*
X189838985Y-40097519D01*
X189957519Y-39978985D01*
X190096900Y-39885853D01*
X190251772Y-39821703D01*
X190416184Y-39789000D01*
X190583816Y-39789000D01*
X190748228Y-39821703D01*
G37*
G36*
X212338228Y-37281703D02*
G01*
X212493100Y-37345853D01*
X212632481Y-37438985D01*
X212751015Y-37557519D01*
X212844147Y-37696900D01*
X212908297Y-37851772D01*
X212941000Y-38016184D01*
X212941000Y-38183816D01*
X212908297Y-38348228D01*
X212844147Y-38503100D01*
X212751015Y-38642481D01*
X212632481Y-38761015D01*
X212493100Y-38854147D01*
X212338228Y-38918297D01*
X212173816Y-38951000D01*
X212006184Y-38951000D01*
X211841772Y-38918297D01*
X211686900Y-38854147D01*
X211547519Y-38761015D01*
X211428985Y-38642481D01*
X211335853Y-38503100D01*
X211271703Y-38348228D01*
X211239000Y-38183816D01*
X211239000Y-38016184D01*
X211271703Y-37851772D01*
X211335853Y-37696900D01*
X211428985Y-37557519D01*
X211547519Y-37438985D01*
X211686900Y-37345853D01*
X211841772Y-37281703D01*
X212006184Y-37249000D01*
X212173816Y-37249000D01*
X212338228Y-37281703D01*
G37*
G36*
X204718228Y-37281703D02*
G01*
X204873100Y-37345853D01*
X205012481Y-37438985D01*
X205131015Y-37557519D01*
X205224147Y-37696900D01*
X205288297Y-37851772D01*
X205321000Y-38016184D01*
X205321000Y-38183816D01*
X205288297Y-38348228D01*
X205224147Y-38503100D01*
X205131015Y-38642481D01*
X205012481Y-38761015D01*
X204873100Y-38854147D01*
X204718228Y-38918297D01*
X204553816Y-38951000D01*
X204386184Y-38951000D01*
X204221772Y-38918297D01*
X204066900Y-38854147D01*
X203927519Y-38761015D01*
X203808985Y-38642481D01*
X203715853Y-38503100D01*
X203651703Y-38348228D01*
X203619000Y-38183816D01*
X203619000Y-38016184D01*
X203651703Y-37851772D01*
X203715853Y-37696900D01*
X203808985Y-37557519D01*
X203927519Y-37438985D01*
X204066900Y-37345853D01*
X204221772Y-37281703D01*
X204386184Y-37249000D01*
X204553816Y-37249000D01*
X204718228Y-37281703D01*
G37*
G36*
X198368228Y-37281703D02*
G01*
X198523100Y-37345853D01*
X198662481Y-37438985D01*
X198781015Y-37557519D01*
X198874147Y-37696900D01*
X198938297Y-37851772D01*
X198971000Y-38016184D01*
X198971000Y-38183816D01*
X198938297Y-38348228D01*
X198874147Y-38503100D01*
X198781015Y-38642481D01*
X198662481Y-38761015D01*
X198523100Y-38854147D01*
X198368228Y-38918297D01*
X198203816Y-38951000D01*
X198036184Y-38951000D01*
X197871772Y-38918297D01*
X197716900Y-38854147D01*
X197577519Y-38761015D01*
X197458985Y-38642481D01*
X197365853Y-38503100D01*
X197301703Y-38348228D01*
X197269000Y-38183816D01*
X197269000Y-38016184D01*
X197301703Y-37851772D01*
X197365853Y-37696900D01*
X197458985Y-37557519D01*
X197577519Y-37438985D01*
X197716900Y-37345853D01*
X197871772Y-37281703D01*
X198036184Y-37249000D01*
X198203816Y-37249000D01*
X198368228Y-37281703D01*
G37*
G36*
X190748228Y-37281703D02*
G01*
X190903100Y-37345853D01*
X191042481Y-37438985D01*
X191161015Y-37557519D01*
X191254147Y-37696900D01*
X191318297Y-37851772D01*
X191351000Y-38016184D01*
X191351000Y-38183816D01*
X191318297Y-38348228D01*
X191254147Y-38503100D01*
X191161015Y-38642481D01*
X191042481Y-38761015D01*
X190903100Y-38854147D01*
X190748228Y-38918297D01*
X190583816Y-38951000D01*
X190416184Y-38951000D01*
X190251772Y-38918297D01*
X190096900Y-38854147D01*
X189957519Y-38761015D01*
X189838985Y-38642481D01*
X189745853Y-38503100D01*
X189681703Y-38348228D01*
X189649000Y-38183816D01*
X189649000Y-38016184D01*
X189681703Y-37851772D01*
X189745853Y-37696900D01*
X189838985Y-37557519D01*
X189957519Y-37438985D01*
X190096900Y-37345853D01*
X190251772Y-37281703D01*
X190416184Y-37249000D01*
X190583816Y-37249000D01*
X190748228Y-37281703D01*
G37*
G36*
X212338228Y-34741703D02*
G01*
X212493100Y-34805853D01*
X212632481Y-34898985D01*
X212751015Y-35017519D01*
X212844147Y-35156900D01*
X212908297Y-35311772D01*
X212941000Y-35476184D01*
X212941000Y-35643816D01*
X212908297Y-35808228D01*
X212844147Y-35963100D01*
X212751015Y-36102481D01*
X212632481Y-36221015D01*
X212493100Y-36314147D01*
X212338228Y-36378297D01*
X212173816Y-36411000D01*
X212006184Y-36411000D01*
X211841772Y-36378297D01*
X211686900Y-36314147D01*
X211547519Y-36221015D01*
X211428985Y-36102481D01*
X211335853Y-35963100D01*
X211271703Y-35808228D01*
X211239000Y-35643816D01*
X211239000Y-35476184D01*
X211271703Y-35311772D01*
X211335853Y-35156900D01*
X211428985Y-35017519D01*
X211547519Y-34898985D01*
X211686900Y-34805853D01*
X211841772Y-34741703D01*
X212006184Y-34709000D01*
X212173816Y-34709000D01*
X212338228Y-34741703D01*
G37*
G36*
X218688228Y-34741703D02*
G01*
X218843100Y-34805853D01*
X218982481Y-34898985D01*
X219101015Y-35017519D01*
X219194147Y-35156900D01*
X219258297Y-35311772D01*
X219291000Y-35476184D01*
X219291000Y-35643816D01*
X219258297Y-35808228D01*
X219194147Y-35963100D01*
X219101015Y-36102481D01*
X218982481Y-36221015D01*
X218843100Y-36314147D01*
X218688228Y-36378297D01*
X218523816Y-36411000D01*
X218356184Y-36411000D01*
X218191772Y-36378297D01*
X218036900Y-36314147D01*
X217897519Y-36221015D01*
X217778985Y-36102481D01*
X217685853Y-35963100D01*
X217621703Y-35808228D01*
X217589000Y-35643816D01*
X217589000Y-35476184D01*
X217621703Y-35311772D01*
X217685853Y-35156900D01*
X217778985Y-35017519D01*
X217897519Y-34898985D01*
X218036900Y-34805853D01*
X218191772Y-34741703D01*
X218356184Y-34709000D01*
X218523816Y-34709000D01*
X218688228Y-34741703D01*
G37*
G36*
X205321000Y-36411000D02*
G01*
X203619000Y-36411000D01*
X203619000Y-34709000D01*
X205321000Y-34709000D01*
X205321000Y-36411000D01*
G37*
G36*
X198368228Y-34741703D02*
G01*
X198523100Y-34805853D01*
X198662481Y-34898985D01*
X198781015Y-35017519D01*
X198874147Y-35156900D01*
X198938297Y-35311772D01*
X198971000Y-35476184D01*
X198971000Y-35643816D01*
X198938297Y-35808228D01*
X198874147Y-35963100D01*
X198781015Y-36102481D01*
X198662481Y-36221015D01*
X198523100Y-36314147D01*
X198368228Y-36378297D01*
X198203816Y-36411000D01*
X198036184Y-36411000D01*
X197871772Y-36378297D01*
X197716900Y-36314147D01*
X197577519Y-36221015D01*
X197458985Y-36102481D01*
X197365853Y-35963100D01*
X197301703Y-35808228D01*
X197269000Y-35643816D01*
X197269000Y-35476184D01*
X197301703Y-35311772D01*
X197365853Y-35156900D01*
X197458985Y-35017519D01*
X197577519Y-34898985D01*
X197716900Y-34805853D01*
X197871772Y-34741703D01*
X198036184Y-34709000D01*
X198203816Y-34709000D01*
X198368228Y-34741703D01*
G37*
G36*
X190748228Y-34741703D02*
G01*
X190903100Y-34805853D01*
X191042481Y-34898985D01*
X191161015Y-35017519D01*
X191254147Y-35156900D01*
X191318297Y-35311772D01*
X191351000Y-35476184D01*
X191351000Y-35643816D01*
X191318297Y-35808228D01*
X191254147Y-35963100D01*
X191161015Y-36102481D01*
X191042481Y-36221015D01*
X190903100Y-36314147D01*
X190748228Y-36378297D01*
X190583816Y-36411000D01*
X190416184Y-36411000D01*
X190251772Y-36378297D01*
X190096900Y-36314147D01*
X189957519Y-36221015D01*
X189838985Y-36102481D01*
X189745853Y-35963100D01*
X189681703Y-35808228D01*
X189649000Y-35643816D01*
X189649000Y-35476184D01*
X189681703Y-35311772D01*
X189745853Y-35156900D01*
X189838985Y-35017519D01*
X189957519Y-34898985D01*
X190096900Y-34805853D01*
X190251772Y-34741703D01*
X190416184Y-34709000D01*
X190583816Y-34709000D01*
X190748228Y-34741703D01*
G37*
M02*
